<?xml version="1.0" encoding="UTF-8" standalone="no"?>
<svg
   id="svg2032"
   width="240"
   height="162"
   version="1.1"
   viewBox="0 0 240 162"
   sodipodi:docname="nutriscore-d-new-en.svg"
   inkscape:version="1.4.2 (f4327f4, 2025-05-13)"
   xmlns:inkscape="http://www.inkscape.org/namespaces/inkscape"
   xmlns:sodipodi="http://sodipodi.sourceforge.net/DTD/sodipodi-0.dtd"
   xmlns="http://www.w3.org/2000/svg"
   xmlns:svg="http://www.w3.org/2000/svg">
  <defs
     id="defs1" />
  <sodipodi:namedview
     id="namedview1"
     pagecolor="#ffffff"
     bordercolor="#000000"
     borderopacity="0.25"
     inkscape:showpageshadow="2"
     inkscape:pageopacity="0.0"
     inkscape:pagecheckerboard="0"
     inkscape:deskcolor="#d1d1d1"
     inkscape:zoom="4.9814815"
     inkscape:cx="119.94424"
     inkscape:cy="81"
     inkscape:window-width="1920"
     inkscape:window-height="1009"
     inkscape:window-x="1912"
     inkscape:window-y="-8"
     inkscape:window-maximized="1"
     inkscape:current-layer="svg2032" />
  <rect
     style="fill:#ffffff;fill-opacity:1;stroke:none;stroke-width:2.65346;stroke-linecap:round;stroke-linejoin:round;paint-order:stroke fill markers"
     id="rect18499"
     width="239.17799"
     height="30"
     x="0"
     y="98" />
  <path
     id="path248"
     fill="#ffffff"
     d="M 212.183,0 H 27.826 C 12.71,0 0.414,12.298 0.414,27.41 v 70.773 c 0,15.116 12.298,27.41 27.412,27.41 h 118.278 a 31.612,31.612 0 0 0 16.173,4.409 h 3.12 c 5.957,0 11.498,-1.633 16.174,-4.41 h 30.612 c 15.114,0 27.408,-12.295 27.408,-27.407 V 27.415 C 239.591,12.3 227.297,0.002 212.183,0.002"
     clip-path="url(#clipPath1648)"
     style="fill-opacity:1;fill-rule:nonzero;stroke:none" />
  <path
     id="path252"
     fill="#e63312"
     d="M 212.179,115.826 H 185.927 V 44.318 h 26.252 a 17.647,17.647 0 0 1 17.65,17.647 v 36.213 a 17.65,17.65 0 0 1 -17.65,17.648"
     clip-path="url(#clipPath1655)"
     style="fill-opacity:1;fill-rule:nonzero;stroke:none;fill:#666666" />
  <path
     id="path256"
     fill="#00803d"
     d="M 27.824,115.826 H 54.076 V 44.318 H 27.824 A 17.647,17.647 0 0 0 10.176,61.965 v 36.213 a 17.647,17.647 0 0 0 17.648,17.648"
     clip-path="url(#clipPath1661)"
     style="fill-opacity:1;fill-rule:nonzero;stroke:none;fill:#666666" />
  <path
     id="path260"
     fill="#f28f66"
     d="M 221.97,64.194 H 201.734 V 96.07 h 20.43 v -4.802 h -14.277 v -9.379 h 9.999 v -4.804 h -9.997 V 69 h 14.081 z"
     style="fill-opacity:1;fill-rule:nonzero;stroke:none;fill:#ffffff" />
  <path
     id="path264"
     fill="#7c7b7b"
     d="m 42.666632,19.799 v 9.754 h -3.94 V 12.496 h 3.075 l 7.95,10.02 v -10.02 h 3.94 V 29.55 h -3.171 z"
     style="fill-opacity:1;fill-rule:nonzero;stroke:none;fill:#093c6b" />
  <path
     id="path276"
     fill="#7c7b7b"
     d="m 64.257632,26.187 c 0.673,0 1.24,-0.139 1.705,-0.419 0.464,-0.28 0.839,-0.653 1.13,-1.117 a 4.78,4.78 0 0 0 0.612,-1.597 c 0.121,-0.6 0.18,-1.214 0.18,-1.839 V 12.5 h 3.94 v 8.716 a 11.894,11.894 0 0 1 -0.444,3.315 7.67,7.67 0 0 1 -1.37,2.692 6.422,6.422 0 0 1 -2.355,1.814 c -0.951,0.437 -2.085,0.662 -3.398,0.662 -1.36,0 -2.52,-0.234 -3.483,-0.7 -0.962,-0.463 -1.743,-1.08 -2.341,-1.862 -0.6,-0.777 -1.042,-1.677 -1.324,-2.7 a 12.062,12.062 0 0 1 -0.42,-3.22 V 12.5 h 3.942 v 8.716 c 0,0.656 0.062,1.283 0.192,1.876 a 4.965,4.965 0 0 0 0.624,1.585 c 0.287,0.463 0.66,0.832 1.117,1.103 0.455,0.274 1.022,0.408 1.693,0.408"
     clip-path="url(#clipPath1673)"
     style="fill-opacity:1;fill-rule:nonzero;stroke:none;fill:#093c6b" />
  <path
     id="path280"
     fill="#7c7b7b"
     d="m 87.847632,15.959 h -5.19 v 13.594 h -3.942 V 15.959 h -5.212 v -3.46 h 14.344 z"
     style="fill-opacity:1;fill-rule:nonzero;stroke:none;fill:#093c6b" />
  <path
     id="path292"
     fill="#7c7b7b"
     d="M 89.793632,29.55 V 12.496 h 7.684 a 4.965,4.965 0 0 1 2.225,0.508 5.866,5.866 0 0 1 1.762998,1.32 c 0.496,0.545 0.883,1.16 1.165,1.849 0.283,0.688 0.42,1.384 0.42,2.09 0,0.53 -0.067,1.037 -0.19,1.525 a 6.029,6.029 0 0 1 -0.554,1.381 5.208,5.208 0 0 1 -2.042,2.041 l 3.915,6.34 h -4.441998 l -3.436,-5.499 h -2.569 v 5.5 z m 3.94,-8.935 h 3.6 c 0.464,0 0.866,-0.218 1.201,-0.66 0.338,-0.441 0.506,-1.004 0.506,-1.692 0,-0.706 -0.192,-1.265 -0.576,-1.684 -0.384,-0.415 -0.804,-0.622 -1.25,-0.622 h -3.482 z"
     style="fill-opacity:1;fill-rule:nonzero;stroke:none;fill:#093c6b" />
  <path
     id="path294"
     fill="#7c7b7b"
     d="m 106.12363,12.499 h 3.94 V 29.55 h -3.94 z"
     style="fill-opacity:1;fill-rule:nonzero;stroke:none;fill:#093c6b" />
  <path
     id="path296"
     fill="#7c7b7b"
     d="m 112.99363,21.215 h 7.397 v 3.46 h -7.397 z"
     style="fill-opacity:1;fill-rule:nonzero;stroke:none;fill:#093c6b" />
  <path
     id="path308"
     fill="#7c7b7b"
     d="m 133.55363,17.493 -0.53,-0.362 a 10.526,10.526 0 0 0 -2.497,-1.055 5.599,5.599 0 0 0 -1.534,-0.216 c -0.675,0 -1.192,0.119 -1.551,0.36 a 1.19,1.19 0 0 0 -0.539,1.059 l 0.24,0.719 0.685,0.514 a 6.201,6.201 0 0 0 1.103,0.422 c 0.442,0.128 0.95,0.273 1.527,0.432 a 20.51,20.51 0 0 1 2.207,0.733 c 0.658,0.265 1.218,0.591 1.684,0.984 0.463,0.393 0.82,0.87 1.068,1.43 a 4.943,4.943 0 0 1 0.373,2.017 c 0,0.962 -0.181,1.774 -0.54,2.436 a 4.55,4.55 0 0 1 -1.43,1.611 6.042,6.042 0 0 1 -2.053,0.89 10.272,10.272 0 0 1 -2.39,0.275 c -0.627,0 -1.262,-0.044 -1.911,-0.145 a 13.622,13.622 0 0 1 -1.909,-0.42 15.756,15.756 0 0 1 -1.825,-0.66 9.798,9.798 0 0 1 -1.635,-0.889 l 1.73,-3.436 0.649,0.457 c 0.35,0.227 0.783,0.45 1.297,0.673 0.512,0.225 1.088,0.426 1.728,0.6 a 7.3,7.3 0 0 0 1.947,0.265 c 1.394,0 2.09,-0.423 2.09,-1.273 l -0.312,-0.792 -0.865,-0.563 a 9.249,9.249 0 0 0 -1.297,-0.47 c -0.497,-0.143 -1.04,-0.305 -1.633,-0.481 a 14.18,14.18 0 0 1 -2.042,-0.781 5.52,5.52 0 0 1 -1.443,-0.971 3.497,3.497 0 0 1 -0.852,-1.274 4.705,4.705 0 0 1 -0.275,-1.681 c 0,-0.898 0.167,-1.688 0.503,-2.377 a 5.21,5.21 0 0 1 1.368,-1.743 5.948,5.948 0 0 1 2.008,-1.068 7.95,7.95 0 0 1 2.414,-0.36 c 0.61,0 1.2,0.057 1.777,0.168 0.573,0.112 1.125,0.256 1.646,0.43 a 13.931,13.931 0 0 1 2.725,1.273 z"
     clip-path="url(#clipPath1667)"
     style="fill-opacity:1;fill-rule:nonzero;stroke:none;fill:#093c6b" />
  <path
     id="path312"
     fill="#7c7b7b"
     d="m 137.10863,20.88 a 8.94,8.94 0 0 1 0.552,-3.063 8.436,8.436 0 0 1 1.611,-2.725 8.157,8.157 0 0 1 2.582,-1.947 c 1.015,-0.496 2.174,-0.743 3.469,-0.743 1.523,0 2.844,0.344 3.963,1.032 a 6.501,6.501 0 0 1 2.5,2.693 l -3.027,2.11 a 3.64,3.64 0 0 0 -0.671,-1.117 l -0.89,-0.72 -0.997,-0.384 -0.973,-0.108 a 3.509,3.509 0 0 0 -1.825,0.457 4.019,4.019 0 0 0 -1.273,1.178 5.212,5.212 0 0 0 -0.755,1.633 6.859,6.859 0 0 0 -0.254,1.847 c 0,0.673 0.1,1.324 0.3,1.947 0.199,0.624 0.481,1.176 0.839,1.657 a 4.1,4.1 0 0 0 1.31,1.141 c 0.513,0.28 1.082,0.42 1.707,0.42 l 0.997,-0.131 0.993,-0.41 0.87,-0.72 c 0.253,-0.296 0.46,-0.662 0.622,-1.092 l 3.242,1.898 a 5.113,5.113 0 0 1 -1.117,1.681 6.894,6.894 0 0 1 -1.668,1.247 8.673,8.673 0 0 1 -4.039,1.037 7.062,7.062 0 0 1 -3.252,-0.759 8.291,8.291 0 0 1 -2.547,-2.006 9.52,9.52 0 0 1 -1.666,-2.833 8.997,8.997 0 0 1 -0.603,-3.22"
     clip-path="url(#clipPath1687)"
     style="fill-opacity:1;fill-rule:nonzero;stroke:none;fill:#093c6b" />
  <path
     id="path316"
     fill="#7c7b7b"
     d="m 160.98663,29.696 a 7.304,7.304 0 0 1 -3.315,-0.746 8.275,8.275 0 0 1 -2.56,-1.957 8.85,8.85 0 0 1 -1.655,-2.774 9.037,9.037 0 0 1 -0.59,-3.218 c 0,-1.12 0.204,-2.202 0.612,-3.244 0.41,-1.037 0.978,-1.957 1.706,-2.75 0.728,-0.793 1.593,-1.425 2.595,-1.897 1,-0.472 2.092,-0.706 3.277,-0.706 1.214,0 2.322,0.245 3.315,0.741 a 8.275,8.275 0 0 1 2.56,1.97 8.952,8.952 0 0 1 1.644,2.786 9.102,9.102 0 0 1 0.573,3.171 8.855,8.855 0 0 1 -0.609,3.244 8.933,8.933 0 0 1 -1.692,2.75 8.34,8.34 0 0 1 -2.582,1.908 7.474,7.474 0 0 1 -3.28,0.722 m -4.108,-8.646 c 0,0.655 0.092,1.29 0.278,1.907 0.183,0.617 0.448,1.165 0.79,1.648 a 3.928,3.928 0 0 0 1.3,1.152 c 0.518,0.287 1.116,0.43 1.787,0.43 0.688,0 1.29,-0.152 1.803,-0.457 0.507,-0.302 0.94,-0.697 1.284,-1.187 0.347,-0.485 0.6,-1.041 0.77,-1.655 a 7.277,7.277 0 0 0 0.252,-1.887 c 0,-0.657 -0.095,-1.295 -0.278,-1.908 a 5.142,5.142 0 0 0 -0.803,-1.634 3.982,3.982 0 0 0 -1.298,-1.13 3.568,3.568 0 0 0 -1.752,-0.419 3.53,3.53 0 0 0 -1.8,0.442 4.094,4.094 0 0 0 -1.287,1.165 5.34,5.34 0 0 0 -0.782,1.644 6.85,6.85 0 0 0 -0.264,1.889"
     clip-path="url(#clipPath1680)"
     style="fill-opacity:1;fill-rule:nonzero;stroke:none;fill:#093c6b" />
  <path
     id="path320"
     fill="#7c7b7b"
     d="M 171.45563,29.55 V 12.496 h 7.686 c 0.8,0 1.54,0.17 2.222,0.508 a 5.892,5.892 0 0 1 1.765,1.32 6.135,6.135 0 0 1 1.163,1.849 c 0.28,0.688 0.424,1.384 0.424,2.09 0,0.53 -0.066,1.037 -0.192,1.525 a 6.029,6.029 0 0 1 -0.552,1.381 5.28,5.28 0 0 1 -2.041,2.041 l 3.913,6.34 h -4.443 l -3.438,-5.499 h -2.568 v 5.5 z m 3.939,-8.935 h 3.603 c 0.464,0 0.863,-0.218 1.2,-0.66 0.338,-0.441 0.504,-1.004 0.504,-1.692 0,-0.706 -0.192,-1.265 -0.574,-1.684 -0.386,-0.415 -0.803,-0.622 -1.249,-0.622 h -3.484 z"
     style="fill-opacity:1;fill-rule:nonzero;stroke:none;fill:#093c6b" />
  <path
     id="path324"
     fill="#7c7b7b"
     d="m 199.77463,26.092 v 3.458 h -11.985 V 12.496 h 11.769 v 3.46 h -7.83 v 3.317 h 6.724 v 3.194 h -6.724 v 3.628 z"
     style="fill-opacity:1;fill-rule:nonzero;stroke:none;fill:#093c6b" />
  <path
     id="path326"
     fill="#87bd25"
     d="M 98.028,115.826 H 54.078 V 44.318 h 43.95 z"
     style="fill-opacity:1;fill-rule:nonzero;stroke:none;fill:#999999" />
  <path
     id="path328"
     fill="#ffcc00"
     d="M 141.975,115.826 H 98.025 V 44.318 h 43.952 z"
     style="fill-opacity:1;fill-rule:nonzero;stroke:none;fill:#cccccc" />
  <path
     id="path332"
     fill="#74ab7e"
     d="m 27.939,85.167 4.855,-12.704 4.662,12.702 z m 7.163,-20.973 h -4.28 L 17.605,96.066 h 6.201 l 2.309,-6.097 h 13.121 l 2.26,6.097 h 6.777 z"
     style="fill-opacity:1;fill-rule:nonzero;stroke:none;fill:#ffffff" />
  <path
     id="path344"
     fill="#bdd684"
     d="m 71.023,91.262 v -9.008 h 3.03 c 5.623,0.047 7.453,1.708 7.453,4.343 0,3.277 -2.406,4.665 -7.069,4.665 z m 0,-13.443 v -8.823 h 1.828 c 4.854,0 6.825,1.435 6.825,4.297 0,2.632 -1.876,4.435 -5.815,4.48 z m 2.598,-13.627 h -8.75 v 31.872 h 9.855 c 9.278,0 13.075,-3.74 13.075,-9.467 0,-3.142 -1.732,-5.636 -5.336,-7.068 2.068,-1.618 3.51,-3.88 3.51,-6.79 0,-4.714 -3.318,-8.547 -12.354,-8.547"
     clip-path="url(#clipPath1693)"
     style="fill-opacity:1;fill-rule:nonzero;stroke:none;fill:#ffffff" />
  <path
     id="path348"
     fill="#ffdf7d"
     d="m 116.306,63.73 c -8.555,0 -15.143,6.378 -15.143,16.355 0,10.025 6.058,16.445 15.238,16.445 5.914,0 10.145,-2.31 12.788,-6.7 l -4.616,-3.372 c -1.876,3.05 -4.471,4.76 -7.931,4.76 -5.864,0 -9.132,-4.067 -9.132,-11.18 0,-6.65 3.365,-10.993 8.556,-10.993 3.411,0 5.912,1.71 7.114,4.618 l 5.861,-2.169 c -1.92,-4.48 -5.428,-7.763 -12.735,-7.763"
     clip-path="url(#clipPath1699)"
     style="fill-opacity:1;fill-rule:nonzero;stroke:none;fill:#ffffff" />
  <path
     id="path352"
     fill="#ffffff"
     d="m 162.277,129.998 c -16.566,0 -30.045,-12.466 -30.045,-27.788 V 57.936 c 0,-15.324 13.48,-27.79 30.045,-27.79 h 3.118 c 16.567,0 30.043,12.468 30.043,27.79 v 44.274 c 0,15.322 -13.476,27.788 -30.043,27.788 z"
     clip-path="url(#clipPath1705)"
     style="fill-opacity:1;fill-rule:nonzero;stroke:none" />
  <path
     id="path356"
     fill="#ef7d00"
     d="m 165.396,124.761 h -3.119 c -13.704,0 -24.806,-10.096 -24.806,-22.55 V 57.935 c 0,-12.455 11.105,-22.551 24.804,-22.551 h 3.12 c 13.7,0 24.805,10.096 24.805,22.553 v 44.27 c 0,12.455 -11.105,22.553 -24.804,22.553"
     clip-path="url(#clipPath1711)"
     style="fill-opacity:1;fill-rule:nonzero;stroke:none" />
  <path
     id="path360"
     fill="#ffffff"
     d="M 147.106,100.849 V 58.353 h 14.534 c 13.796,0 22.17,7.82 22.17,21.247 0,11.95 -8.928,21.25 -23.216,21.25 z m 13.302,-8.684 c 8.805,0 12.257,-5.848 12.257,-12.565 0,-7.636 -3.081,-12.378 -11.085,-12.378 h -3.696 v 24.943 z"
     style="fill-opacity:1;fill-rule:nonzero;stroke:none" />
  <path
     id="path16330"
     clip-path="url(#clipPath1593)"
     style="fill:#ef7d00;fill-opacity:1;fill-rule:nonzero;stroke:none"
     d="M 0 33.997 L 0 27.407156 C 2.3684734e-15 12.296171 12.298124 -0.003 27.412109 -0.003 L 211.76953 -0.003 L 211.76953 -0.001046875 C 226.88152 -0.001046875 239.17773 12.295171 239.17773 27.407156 L 239.17773 33.997 L 0 33.997 z "
     transform="matrix(1,0,0,-1,0,161.997)" />
</svg>
