<?xml version="1.0" encoding="UTF-8" standalone="no"?>
<svg
   id="svg2032"
   width="240"
   height="162"
   version="1.1"
   viewBox="0 0 240 162"
   sodipodi:docname="nutriscore-b-new-en.svg"
   inkscape:version="1.4.2 (f4327f4, 2025-05-13)"
   xmlns:inkscape="http://www.inkscape.org/namespaces/inkscape"
   xmlns:sodipodi="http://sodipodi.sourceforge.net/DTD/sodipodi-0.dtd"
   xmlns="http://www.w3.org/2000/svg"
   xmlns:svg="http://www.w3.org/2000/svg">
  <defs
     id="defs1" />
  <sodipodi:namedview
     id="namedview1"
     pagecolor="#ffffff"
     bordercolor="#000000"
     borderopacity="0.25"
     inkscape:showpageshadow="2"
     inkscape:pageopacity="0.0"
     inkscape:pagecheckerboard="0"
     inkscape:deskcolor="#d1d1d1"
     inkscape:zoom="4.9814815"
     inkscape:cx="119.94424"
     inkscape:cy="81"
     inkscape:window-width="1920"
     inkscape:window-height="1009"
     inkscape:window-x="1912"
     inkscape:window-y="-8"
     inkscape:window-maximized="1"
     inkscape:current-layer="svg2032" />
  <rect
     style="fill:#ffffff;fill-opacity:1;stroke:none;stroke-width:2.65346;stroke-linecap:round;stroke-linejoin:round;paint-order:stroke fill markers"
     id="rect18499"
     width="239.17799"
     height="30"
     x="0"
     y="98" />
  <path
     id="path364"
     fill="#ffffff"
     d="M 211.749,-0.003 H 27.394 c -15.117,0 -27.41,12.3 -27.41,27.413 v 70.766 c 0,15.116 12.291,27.413 27.407,27.413 h 30.546 a 31.623,31.623 0 0 0 16.176,4.409 h 3.118 c 5.958,0 11.502,-1.633 16.176,-4.41 h 118.342 c 15.114,0 27.407,-12.296 27.407,-27.412 v -70.77 c 0,-15.11 -12.293,-27.409 -27.407,-27.409"
     clip-path="url(#clipPath1866)"
     style="fill-opacity:1;fill-rule:nonzero;stroke:none" />
  <path
     id="path366"
     fill="#ffcc00"
     d="M 141.545,115.826 H 97.595 V 44.318 h 43.95 z"
     style="fill-opacity:1;fill-rule:nonzero;stroke:none;fill:#cccccc" />
  <path
     id="path368"
     fill="#ef7d00"
     d="m 185.495,115.826 h -43.95 V 44.318 h 43.95 z"
     style="fill-opacity:1;fill-rule:nonzero;stroke:none;fill:#999999" />
  <path
     id="path380"
     fill="#e63312"
     d="M 211.749,115.826 H 185.495 V 44.318 h 26.254 a 17.647,17.647 0 0 1 17.647,17.647 v 36.213 a 17.65,17.65 0 0 1 -17.647,17.648"
     clip-path="url(#clipPath1717)"
     style="fill-opacity:1;fill-rule:nonzero;stroke:none;fill:#666666" />
  <path
     id="path384"
     fill="#00803d"
     d="M 27.391,115.826 H 53.643 V 44.318 H 27.391 A 17.647,17.647 0 0 0 9.741,61.965 v 36.213 a 17.65,17.65 0 0 0 17.65,17.648"
     clip-path="url(#clipPath1729)"
     style="fill-opacity:1;fill-rule:nonzero;stroke:none;fill:#666666" />
  <path
     id="path388"
     fill="#ffdf7d"
     d="m 124.88,63.73 c -8.556,0 -15.139,6.378 -15.139,16.353 0,10.027 6.055,16.447 15.236,16.447 5.914,0 10.142,-2.31 12.785,-6.7 l -4.612,-3.372 c -1.875,3.05 -4.473,4.76 -7.933,4.76 -5.863,0 -9.134,-4.067 -9.134,-11.181 0,-6.652 3.366,-10.99 8.556,-10.99 3.414,0 5.914,1.706 7.115,4.616 l 5.865,-2.17 c -1.924,-4.48 -5.433,-7.762 -12.74,-7.762"
     clip-path="url(#clipPath1735)"
     style="fill-opacity:1;fill-rule:nonzero;stroke:none;fill:#ffffff" />
  <path
     id="path392"
     fill="#f8b472"
     d="M 157.782,91.265 V 69.09 h 3.463 c 7.642,0 11.342,4.065 11.342,11.04 0,6.376 -3.987,11.134 -12.11,11.134 z m 3.509,-27.07 h -9.661 v 31.871 h 8.99 c 11.391,0 18.314,-6.788 18.314,-15.934 0,-9.977 -6.444,-15.938 -17.64,-15.938"
     clip-path="url(#clipPath1741)"
     style="fill-opacity:1;fill-rule:nonzero;stroke:none;fill:#ffffff" />
  <path
     id="path396"
     fill="#f28f66"
     d="m 217.559,64.192 h -20.236 v 31.874 h 20.43 v -4.801 h -14.278 v -9.38 h 10 v -4.803 h -10 v -8.084 h 14.084 z"
     style="fill-opacity:1;fill-rule:nonzero;stroke:none;fill:#ffffff" />
  <path
     id="path400"
     fill="#7c7b7b"
     d="m 43.436093,19.799 v 9.754 h -3.939 V 12.497 h 3.076 l 7.949,10.018 V 12.497 h 3.939 V 29.55 h -3.169 z"
     style="fill-opacity:1;fill-rule:nonzero;stroke:none;fill:#093c6b" />
  <path
     id="path412"
     fill="#7c7b7b"
     d="m 65.031093,26.187 c 0.671,0 1.24,-0.139 1.704,-0.419 0.463,-0.28 0.843,-0.653 1.13,-1.117 a 4.78,4.78 0 0 0 0.611,-1.597 c 0.122,-0.6 0.183,-1.214 0.183,-1.839 V 12.5 h 3.937 v 8.716 a 11.894,11.894 0 0 1 -0.443,3.315 7.67,7.67 0 0 1 -1.37,2.692 6.404,6.404 0 0 1 -2.355,1.814 c -0.951,0.437 -2.086,0.658 -3.399,0.658 -1.36,0 -2.52,-0.23 -3.482,-0.695 -0.962,-0.464 -1.743,-1.082 -2.34,-1.86 a 7.635,7.635 0 0 1 -1.323,-2.704 12.062,12.062 0 0 1 -0.422,-3.22 V 12.5 h 3.941 v 8.716 c 0,0.656 0.064,1.283 0.195,1.876 a 4.965,4.965 0 0 0 0.622,1.585 c 0.287,0.465 0.66,0.832 1.117,1.103 0.456,0.274 1.021,0.408 1.694,0.408"
     clip-path="url(#clipPath1747)"
     style="fill-opacity:1;fill-rule:nonzero;stroke:none;fill:#093c6b" />
  <path
     id="path416"
     fill="#7c7b7b"
     d="m 88.617093,15.957 h -5.19 V 29.55 h -3.94 V 15.957 h -5.211 v -3.46 h 14.339 z"
     style="fill-opacity:1;fill-rule:nonzero;stroke:none;fill:#093c6b" />
  <path
     id="path428"
     fill="#7c7b7b"
     d="M 90.561093,29.55 V 12.497 h 7.684 a 4.965,4.965 0 0 1 2.224997,0.507 5.903,5.903 0 0 1 1.765,1.32 c 0.494,0.543 0.883,1.16 1.163,1.849 0.283,0.688 0.422,1.384 0.422,2.09 a 5.991,5.991 0 0 1 -0.744,2.906 5.283,5.283 0 0 1 -2.041,2.041 l 3.915,6.34 h -4.445 l -3.435997,-5.499 h -2.569 v 5.5 z m 3.94,-8.935 h 3.603 c 0.464,0 0.863,-0.218 1.2,-0.66 0.338,-0.441 0.504,-1.004 0.504,-1.692 0,-0.706 -0.192,-1.265 -0.574,-1.684 -0.386,-0.415 -0.803,-0.622 -1.251,-0.622 h -3.483 z"
     style="fill-opacity:1;fill-rule:nonzero;stroke:none;fill:#093c6b" />
  <path
     id="path430"
     fill="#7c7b7b"
     d="m 106.89509,12.497 h 3.938 V 29.55 h -3.938 z"
     style="fill-opacity:1;fill-rule:nonzero;stroke:none;fill:#093c6b" />
  <path
     id="path432"
     fill="#7c7b7b"
     d="m 113.76309,21.215 h 7.4 v 3.46 h -7.4 z"
     style="fill-opacity:1;fill-rule:nonzero;stroke:none;fill:#093c6b" />
  <path
     id="path444"
     fill="#7c7b7b"
     d="m 134.32509,17.495 -0.529,-0.362 a 10.504,10.504 0 0 0 -2.498,-1.057 5.68,5.68 0 0 0 -1.536,-0.214 c -0.675,0 -1.191,0.119 -1.551,0.36 a 1.185,1.185 0 0 0 -0.538,1.057 l 0.24,0.721 0.684,0.514 c 0.296,0.153 0.662,0.294 1.103,0.42 0.442,0.13 0.95,0.275 1.528,0.434 0.816,0.225 1.553,0.468 2.206,0.733 0.66,0.263 1.218,0.591 1.684,0.984 0.464,0.393 0.821,0.87 1.068,1.43 a 4.943,4.943 0 0 1 0.373,2.017 c 0,0.96 -0.18,1.772 -0.54,2.436 a 4.568,4.568 0 0 1 -1.428,1.611 6.073,6.073 0 0 1 -2.055,0.89 10.26,10.26 0 0 1 -2.39,0.276 13.622,13.622 0 0 1 -3.82,-0.565 15.906,15.906 0 0 1 -1.825,-0.662 9.96,9.96 0 0 1 -1.635,-0.888 l 1.733,-3.435 0.646,0.456 c 0.35,0.228 0.786,0.45 1.298,0.673 0.512,0.226 1.088,0.426 1.73,0.6 a 7.282,7.282 0 0 0 1.942,0.265 c 1.397,0 2.092,-0.425 2.092,-1.273 l -0.311,-0.794 -0.866,-0.56 a 9.249,9.249 0 0 0 -1.297,-0.47 l -1.633,-0.482 a 14.28,14.28 0 0 1 -2.041,-0.781 5.599,5.599 0 0 1 -1.441,-0.971 3.471,3.471 0 0 1 -0.852,-1.273 4.654,4.654 0 0 1 -0.278,-1.682 c 0,-0.898 0.17,-1.688 0.505,-2.377 a 5.154,5.154 0 0 1 1.368,-1.743 5.895,5.895 0 0 1 2.006,-1.068 7.9,7.9 0 0 1 2.414,-0.36 c 0.61,0 1.203,0.055 1.779,0.166 0.574,0.115 1.125,0.258 1.644,0.432 a 14.565,14.565 0 0 1 2.726,1.274 z"
     clip-path="url(#clipPath1759)"
     style="fill-opacity:1;fill-rule:nonzero;stroke:none;fill:#093c6b" />
  <path
     id="path448"
     fill="#7c7b7b"
     d="m 137.87909,20.88 c 0,-1.024 0.185,-2.046 0.551,-3.063 a 8.474,8.474 0 0 1 1.611,-2.725 8.148,8.148 0 0 1 2.582,-1.947 c 1.015,-0.496 2.174,-0.743 3.471,-0.743 1.521,0 2.843,0.344 3.964,1.032 a 6.494,6.494 0 0 1 2.498,2.69 l -3.026,2.112 a 3.661,3.661 0 0 0 -0.673,-1.116 l -0.889,-0.72 -0.997,-0.384 -0.974,-0.108 c -0.706,0 -1.313,0.152 -1.822,0.457 a 4.016,4.016 0 0 0 -1.274,1.176 5.204,5.204 0 0 0 -0.757,1.633 6.845,6.845 0 0 0 -0.253,1.85 c 0,0.673 0.101,1.321 0.3,1.946 0.198,0.624 0.48,1.176 0.838,1.657 a 4.1,4.1 0 0 0 1.311,1.141 3.5,3.5 0 0 0 1.706,0.42 l 0.997,-0.131 0.993,-0.41 0.87,-0.72 c 0.254,-0.296 0.463,-0.662 0.624,-1.092 l 3.242,1.895 a 5.184,5.184 0 0 1 -1.116,1.684 6.907,6.907 0 0 1 -1.671,1.247 8.569,8.569 0 0 1 -4.038,1.033 c -1.181,0 -2.267,-0.252 -3.25,-0.755 a 8.27,8.27 0 0 1 -2.547,-2.006 9.432,9.432 0 0 1 -1.669,-2.833 8.997,8.997 0 0 1 -0.602,-3.22"
     clip-path="url(#clipPath1765)"
     style="fill-opacity:1;fill-rule:nonzero;stroke:none;fill:#093c6b" />
  <path
     id="path452"
     fill="#7c7b7b"
     d="m 161.75509,29.694 c -1.215,0 -2.32,-0.247 -3.314,-0.744 a 8.363,8.363 0 0 1 -2.56,-1.957 8.836,8.836 0 0 1 -1.655,-2.776 9.018,9.018 0 0 1 -0.589,-3.216 8.77,8.77 0 0 1 0.614,-3.244 8.784,8.784 0 0 1 1.703,-2.751 8.314,8.314 0 0 1 2.596,-1.896 c 1,-0.472 2.094,-0.706 3.279,-0.706 1.213,0 2.321,0.245 3.31,0.741 a 8.216,8.216 0 0 1 2.56,1.97 8.875,8.875 0 0 1 1.646,2.786 9.1,9.1 0 0 1 0.574,3.17 8.854,8.854 0 0 1 -0.61,3.245 8.85,8.85 0 0 1 -1.692,2.75 8.289,8.289 0 0 1 -2.582,1.908 7.472,7.472 0 0 1 -3.28,0.72 m -4.108,-8.644 c 0,0.655 0.093,1.29 0.278,1.907 0.183,0.617 0.448,1.165 0.792,1.648 0.344,0.479 0.777,0.863 1.298,1.152 a 3.641,3.641 0 0 0 1.787,0.43 c 0.691,0 1.291,-0.152 1.803,-0.457 0.512,-0.302 0.94,-0.7 1.287,-1.187 a 5.321,5.321 0 0 0 0.768,-1.655 7.275,7.275 0 0 0 0.251,-1.887 c 0,-0.657 -0.095,-1.295 -0.278,-1.91 a 5.13,5.13 0 0 0 -0.803,-1.634 4.01,4.01 0 0 0 -1.298,-1.13 c -0.512,-0.28 -1.096,-0.419 -1.752,-0.419 -0.688,0 -1.289,0.148 -1.8,0.444 a 4.094,4.094 0 0 0 -1.287,1.165 5.285,5.285 0 0 0 -0.78,1.644 6.841,6.841 0 0 0 -0.266,1.889"
     clip-path="url(#clipPath1773)"
     style="fill-opacity:1;fill-rule:nonzero;stroke:none;fill:#093c6b" />
  <path
     id="path456"
     fill="#7c7b7b"
     d="M 172.22709,29.55 V 12.497 h 7.686 c 0.801,0 1.54,0.17 2.222,0.507 a 5.892,5.892 0 0 1 1.766,1.32 c 0.496,0.543 0.882,1.16 1.165,1.849 a 5.539,5.539 0 0 1 0.42,2.09 c 0,0.53 -0.067,1.037 -0.19,1.525 a 6.029,6.029 0 0 1 -0.555,1.381 5.274,5.274 0 0 1 -2.04,2.041 l 3.914,6.34 h -4.442 l -3.436,-5.499 h -2.569 v 5.5 z m 3.941,-8.935 h 3.602 c 0.463,0 0.865,-0.218 1.2,-0.66 0.338,-0.441 0.506,-1.004 0.506,-1.692 0,-0.706 -0.193,-1.265 -0.576,-1.684 -0.387,-0.415 -0.804,-0.622 -1.25,-0.622 h -3.482 z"
     style="fill-opacity:1;fill-rule:nonzero;stroke:none;fill:#093c6b" />
  <path
     id="path460"
     fill="#7c7b7b"
     d="m 200.54509,26.092 v 3.458 h -11.986 V 12.497 h 11.769 v 3.46 h -7.83 v 3.314 h 6.726 v 3.193 h -6.726 v 3.628 z"
     style="fill-opacity:1;fill-rule:nonzero;stroke:none;fill:#093c6b" />
  <path
     id="path464"
     fill="#74ab7e"
     d="m 22.367,85.165 4.854,-12.702 4.666,12.702 z M 29.53,64.195 H 25.249 L 12.03,96.065 h 6.201 l 2.308,-6.097 h 13.124 l 2.26,6.097 h 6.774 z"
     style="fill-opacity:1;fill-rule:nonzero;stroke:none;fill:#ffffff" />
  <path
     id="path476"
     fill="#ffffff"
     d="M 74.113,129.998 C 57.547,129.998 44.07,117.532 44.07,102.21 V 57.936 c 0,-15.324 13.477,-27.79 30.043,-27.79 h 3.118 c 16.566,0 30.043,12.468 30.043,27.79 v 44.274 c 0,15.322 -13.477,27.788 -30.043,27.788 z"
     clip-path="url(#clipPath1779)"
     style="fill-opacity:1;fill-rule:nonzero;stroke:none" />
  <path
     id="path480"
     fill="#87bd25"
     d="m 77.231,124.761 h -3.118 c -13.704,0 -24.806,-10.096 -24.806,-22.553 V 57.936 c 0,-12.455 11.104,-22.553 24.804,-22.553 h 3.12 c 13.7,0 24.804,10.098 24.804,22.553 v 44.274 c 0,12.455 -11.104,22.551 -24.804,22.551"
     clip-path="url(#clipPath1785)"
     style="fill-opacity:1;fill-rule:nonzero;stroke:none" />
  <path
     id="path484"
     fill="#ffffff"
     d="M 62.7,99.615 V 57.122 h 13.086 c 10.071,0 14.357,5.296 14.357,12.07 0,3.695 -1.796,6.835 -4.575,8.254 3.88,1.29 6.775,4.616 6.775,9.114 0,7.818 -4.921,13.055 -15.227,13.055 z m 10.13,-25.19 h 1.912 c 2.893,0 4.978,-1.17 4.978,-4.434 0,-3.263 -2.085,-4.188 -4.978,-4.188 H 72.83 Z m 0,7.946 v 8.563 h 3.823 c 2.952,0 5.265,-1.174 5.265,-4.374 0,-3.143 -2.544,-4.189 -5.786,-4.189 z"
     style="fill-opacity:1;fill-rule:nonzero;stroke:none" />
  <path
     id="path16330"
     clip-path="url(#clipPath1593)"
     style="fill:#87bd25;fill-opacity:1;fill-rule:nonzero;stroke:none"
     d="M 0 33.997 L 0 27.407156 C 2.3684734e-15 12.296171 12.298124 -0.003 27.412109 -0.003 L 211.76953 -0.003 L 211.76953 -0.001046875 C 226.88152 -0.001046875 239.17773 12.295171 239.17773 27.407156 L 239.17773 33.997 L 0 33.997 z "
     transform="matrix(1,0,0,-1,0,161.997)" />
</svg>
