<?xml version="1.0" encoding="UTF-8" standalone="no"?>
<svg
   id="svg2032"
   width="240"
   height="162"
   version="1.1"
   viewBox="0 0 240 162"
   sodipodi:docname="nutriscore-e-new-en.svg"
   inkscape:version="1.4.2 (f4327f4, 2025-05-13)"
   xmlns:inkscape="http://www.inkscape.org/namespaces/inkscape"
   xmlns:sodipodi="http://sodipodi.sourceforge.net/DTD/sodipodi-0.dtd"
   xmlns="http://www.w3.org/2000/svg"
   xmlns:svg="http://www.w3.org/2000/svg">
  <sodipodi:namedview
     id="namedview1"
     pagecolor="#ffffff"
     bordercolor="#000000"
     borderopacity="0.25"
     inkscape:showpageshadow="2"
     inkscape:pageopacity="0.0"
     inkscape:pagecheckerboard="0"
     inkscape:deskcolor="#d1d1d1"
     inkscape:zoom="4.9814815"
     inkscape:cx="119.94424"
     inkscape:cy="81"
     inkscape:window-width="1920"
     inkscape:window-height="1009"
     inkscape:window-x="1912"
     inkscape:window-y="-8"
     inkscape:window-maximized="1"
     inkscape:current-layer="svg2032" />
  <rect
     style="fill:#ffffff;fill-opacity:1;stroke:none;stroke-width:2.65346;stroke-linecap:round;stroke-linejoin:round;paint-order:stroke fill markers"
     id="rect18499"
     width="239.17799"
     height="30"
     x="0"
     y="98" />
  <defs
     id="defs2029">
    <clipPath
       id="clipPath1836"
       clipPathUnits="userSpaceOnUse">
      <path
         id="path1838"
         stroke-width="1"
         d="M-576.406-131.683h841.89v595.276h-841.89z" />
    </clipPath>
    <clipPath
       id="clipPath1817"
       clipPathUnits="userSpaceOnUse">
      <path
         id="path1819"
         stroke-width="1"
         d="M-480.445-91.617h841.89V503.66h-841.89z" />
    </clipPath>
    <clipPath
       id="clipPath1872"
       clipPathUnits="userSpaceOnUse">
      <path
         id="path1874"
         stroke-width="1"
         d="M-488.313-132.237h841.89v595.276h-841.89z" />
    </clipPath>
    <clipPath
       id="clipPath1878"
       clipPathUnits="userSpaceOnUse">
      <path
         id="path1880"
         stroke-width="1"
         d="M-519.714-136.177h841.89V459.1h-841.89z" />
    </clipPath>
    <clipPath
       id="clipPath1886"
       clipPathUnits="userSpaceOnUse">
      <path
         id="path1888"
         stroke-width="1"
         d="M-521.325-134.642h841.89v595.276h-841.89z" />
    </clipPath>
    <clipPath
       id="clipPath1892"
       clipPathUnits="userSpaceOnUse">
      <path
         id="path1894"
         stroke-width="1"
         d="M-532.144-130.648h841.89v595.276h-841.89z" />
    </clipPath>
    <clipPath
       id="clipPath1898"
       clipPathUnits="userSpaceOnUse">
      <path
         id="path1900"
         stroke-width="1"
         d="M-500.02-102.749h841.89v595.276h-841.89z" />
    </clipPath>
    <clipPath
       id="clipPath1904"
       clipPathUnits="userSpaceOnUse">
      <path
         id="path1906"
         stroke-width="1"
         d="M-522.55-115.224h841.89v595.276h-841.89z" />
    </clipPath>
    <clipPath
       id="clipPath1910"
       clipPathUnits="userSpaceOnUse">
      <path
         id="path1912"
         stroke-width="1"
         d="M-561.373-85.195h841.89v595.276h-841.89z" />
    </clipPath>
    <clipPath
       id="clipPath1916"
       clipPathUnits="userSpaceOnUse">
      <path
         id="path1918"
         stroke-width="1"
         d="M-562.786-87.568h841.89v595.276h-841.89z" />
    </clipPath>
    <clipPath
       id="clipPath1593"
       clipPathUnits="userSpaceOnUse">
      <path
         id="path1595"
         stroke-width="1"
         d="M-503.056-291.81h841.89v595.277h-841.89z" />
    </clipPath>
    <clipPath
       id="clipPath1929"
       clipPathUnits="userSpaceOnUse">
      <path
         id="path1931"
         stroke-width="1"
         d="M-503.055-239.322h841.89v595.276h-841.89z" />
    </clipPath>
    <clipPath
       id="clipPath1605"
       clipPathUnits="userSpaceOnUse">
      <path
         id="path1607"
         stroke-width="1"
         d="M-427.382-279.942h841.89v595.276h-841.89z" />
    </clipPath>
    <clipPath
       id="clipPath1618"
       clipPathUnits="userSpaceOnUse">
      <path
         id="path1620"
         stroke-width="1"
         d="M-458.785-283.881h841.89v595.276h-841.89z" />
    </clipPath>
    <clipPath
       id="clipPath1611"
       clipPathUnits="userSpaceOnUse">
      <path
         id="path1613"
         stroke-width="1"
         d="M-460.394-282.347h841.89v595.276h-841.89z" />
    </clipPath>
    <clipPath
       id="clipPath1599"
       clipPathUnits="userSpaceOnUse">
      <path
         id="path1601"
         stroke-width="1"
         d="M-471.214-278.353h841.89v595.276h-841.89z" />
    </clipPath>
    <clipPath
       id="clipPath1624"
       clipPathUnits="userSpaceOnUse">
      <path
         id="path1626"
         stroke-width="1"
         d="M-441.091-250.452h841.89v595.276h-841.89z" />
    </clipPath>
    <clipPath
       id="clipPath1630"
       clipPathUnits="userSpaceOnUse">
      <path
         id="path1632"
         stroke-width="1"
         d="M-461.62-262.929h841.89v595.276h-841.89z" />
    </clipPath>
    <clipPath
       id="clipPath1636"
       clipPathUnits="userSpaceOnUse">
      <path
         id="path1638"
         stroke-width="1"
         d="M-478.601-250.452h841.89v595.276h-841.89z" />
    </clipPath>
    <clipPath
       id="clipPath1642"
       clipPathUnits="userSpaceOnUse">
      <path
         id="path1644"
         stroke-width="1"
         d="M-420.708-232.9h841.89v595.276h-841.89z" />
    </clipPath>
    <clipPath
       id="clipPath1922"
       clipPathUnits="userSpaceOnUse">
      <path
         id="path1924"
         stroke-width="1"
         d="M-422.121-235.273h841.89v595.276h-841.89z" />
    </clipPath>
    <clipPath
       id="clipPath1866"
       clipPathUnits="userSpaceOnUse">
      <path
         id="path1868"
         stroke-width="1"
         d="M-625.833-291.81h841.89v595.277h-841.89z" />
    </clipPath>
    <clipPath
       id="clipPath1717"
       clipPathUnits="userSpaceOnUse">
      <path
         id="path1719"
         stroke-width="1"
         d="M-625.833-239.322h841.89v595.276h-841.89z" />
    </clipPath>
    <clipPath
       id="clipPath1729"
       clipPathUnits="userSpaceOnUse">
      <path
         id="path1731"
         stroke-width="1"
         d="M-542.292-239.322h841.89v595.276h-841.89z" />
    </clipPath>
    <clipPath
       id="clipPath1735"
       clipPathUnits="userSpaceOnUse">
      <path
         id="path1737"
         stroke-width="1"
         d="M-586.47-262.929h841.89v595.276h-841.89z" />
    </clipPath>
    <clipPath
       id="clipPath1741"
       clipPathUnits="userSpaceOnUse">
      <path
         id="path1743"
         stroke-width="1"
         d="M-601.38-250.452h841.89v595.276h-841.89z" />
    </clipPath>
    <clipPath
       id="clipPath1747"
       clipPathUnits="userSpaceOnUse">
      <path
         id="path1749"
         stroke-width="1"
         d="M-550.16-279.942h841.89v595.276h-841.89z" />
    </clipPath>
    <clipPath
       id="clipPath1759"
       clipPathUnits="userSpaceOnUse">
      <path
         id="path1761"
         stroke-width="1"
         d="M-581.562-283.881h841.89v595.276h-841.89z" />
    </clipPath>
    <clipPath
       id="clipPath1765"
       clipPathUnits="userSpaceOnUse">
      <path
         id="path1767"
         stroke-width="1"
         d="M-583.172-282.347h841.89v595.276h-841.89z" />
    </clipPath>
    <clipPath
       id="clipPath1773"
       clipPathUnits="userSpaceOnUse">
      <path
         id="path1775"
         stroke-width="1"
         d="M-593.991-278.353h841.89v595.276h-841.89z" />
    </clipPath>
    <clipPath
       id="clipPath1779"
       clipPathUnits="userSpaceOnUse">
      <path
         id="path1781"
         stroke-width="1"
         d="M-563.464-232.9h841.89v595.276h-841.89z" />
    </clipPath>
    <clipPath
       id="clipPath1785"
       clipPathUnits="userSpaceOnUse">
      <path
         id="path1787"
         stroke-width="1"
         d="M-564.877-235.273h841.89v595.276h-841.89z" />
    </clipPath>
    <clipPath
       id="clipPath1792"
       clipPathUnits="userSpaceOnUse">
      <path
         id="path1794"
         stroke-width="1"
         d="M-503.055-216.392h841.89v595.276h-841.89z" />
    </clipPath>
    <clipPath
       id="clipPath1753"
       clipPathUnits="userSpaceOnUse">
      <path
         id="path1755"
         stroke-width="1"
         d="M-503.055-163.905h841.89v595.276h-841.89z" />
    </clipPath>
    <clipPath
       id="clipPath1723"
       clipPathUnits="userSpaceOnUse">
      <path
         id="path1725"
         stroke-width="1"
         d="M-419.514-163.905h841.89v595.276h-841.89z" />
    </clipPath>
    <clipPath
       id="clipPath1798"
       clipPathUnits="userSpaceOnUse">
      <path
         id="path1800"
         stroke-width="1"
         d="M-427.382-204.525h841.89v595.276h-841.89z" />
    </clipPath>
    <clipPath
       id="clipPath1804"
       clipPathUnits="userSpaceOnUse">
      <path
         id="path1806"
         stroke-width="1"
         d="M-458.784-208.465h841.89v595.276h-841.89z" />
    </clipPath>
    <clipPath
       id="clipPath1810"
       clipPathUnits="userSpaceOnUse">
      <path
         id="path1812"
         stroke-width="1"
         d="M-460.394-206.93h841.89v595.276h-841.89z" />
    </clipPath>
    <clipPath
       id="clipPath1823"
       clipPathUnits="userSpaceOnUse">
      <path
         id="path1825"
         stroke-width="1"
         d="M-471.213-202.936h841.89V392.34h-841.89z" />
    </clipPath>
    <clipPath
       id="clipPath1830"
       clipPathUnits="userSpaceOnUse">
      <path
         id="path1832"
         stroke-width="1"
         d="M-437.456-175.036h841.89V420.24h-841.89z" />
    </clipPath>
    <clipPath
       id="clipPath1848"
       clipPathUnits="userSpaceOnUse">
      <path
         id="path1850"
         stroke-width="1"
         d="M-480.209-175.036h841.89V420.24h-841.89z" />
    </clipPath>
    <clipPath
       id="clipPath1842"
       clipPathUnits="userSpaceOnUse">
      <path
         id="path1844"
         stroke-width="1"
         d="M-460.551-157.483h841.89v595.276h-841.89z" />
    </clipPath>
    <clipPath
       id="clipPath1854"
       clipPathUnits="userSpaceOnUse">
      <path
         id="path1856"
         stroke-width="1"
         d="M-461.964-159.856h841.89V435.42h-841.89z" />
    </clipPath>
    <clipPath
       id="clipPath1860"
       clipPathUnits="userSpaceOnUse">
      <path
         id="path1862"
         stroke-width="1"
         d="M-452.876-180.763h841.89v595.276h-841.89z" />
    </clipPath>
    <clipPath
       id="clipPath1648"
       clipPathUnits="userSpaceOnUse">
      <path
         id="path1650"
         stroke-width="1"
         d="M-625.835-216.392h841.89v595.276h-841.89z" />
    </clipPath>
    <clipPath
       id="clipPath1655"
       clipPathUnits="userSpaceOnUse">
      <path
         id="path1657"
         stroke-width="1"
         d="M-625.833-163.905h841.89v595.276h-841.89z" />
    </clipPath>
    <clipPath
       id="clipPath1661"
       clipPathUnits="userSpaceOnUse">
      <path
         id="path1663"
         stroke-width="1"
         d="M-542.292-163.905h841.89v595.276h-841.89z" />
    </clipPath>
    <clipPath
       id="clipPath1673"
       clipPathUnits="userSpaceOnUse">
      <path
         id="path1675"
         stroke-width="1"
         d="M-550.16-204.525h841.89v595.276h-841.89z" />
    </clipPath>
    <clipPath
       id="clipPath1667"
       clipPathUnits="userSpaceOnUse">
      <path
         id="path1669"
         stroke-width="1"
         d="M-581.562-208.465h841.89v595.276h-841.89z" />
    </clipPath>
    <clipPath
       id="clipPath1687"
       clipPathUnits="userSpaceOnUse">
      <path
         id="path1689"
         stroke-width="1"
         d="M-583.173-206.93h841.89v595.276h-841.89z" />
    </clipPath>
    <clipPath
       id="clipPath1680"
       clipPathUnits="userSpaceOnUse">
      <path
         id="path1682"
         stroke-width="1"
         d="M-593.993-202.935h841.89V392.34h-841.89z" />
    </clipPath>
    <clipPath
       id="clipPath1693"
       clipPathUnits="userSpaceOnUse">
      <path
         id="path1695"
         stroke-width="1"
         d="M-561.868-175.036h841.89V420.24h-841.89z" />
    </clipPath>
    <clipPath
       id="clipPath1699"
       clipPathUnits="userSpaceOnUse">
      <path
         id="path1701"
         stroke-width="1"
         d="M-582.388-187.512h841.89v595.276h-841.89z" />
    </clipPath>
    <clipPath
       id="clipPath1705"
       clipPathUnits="userSpaceOnUse">
      <path
         id="path1707"
         stroke-width="1"
         d="M-603.22-157.483h841.89v595.276h-841.89z" />
    </clipPath>
    <clipPath
       id="clipPath1711"
       clipPathUnits="userSpaceOnUse">
      <path
         id="path1713"
         stroke-width="1"
         d="M-604.633-159.856h841.89V435.42h-841.89z" />
    </clipPath>
    <clipPath
       id="clipPath1836-3"
       clipPathUnits="userSpaceOnUse">
      <path
         id="path1838-6"
         stroke-width="1"
         d="M-576.406-131.683h841.89v595.276h-841.89z" />
    </clipPath>
    <clipPath
       id="clipPath1817-7"
       clipPathUnits="userSpaceOnUse">
      <path
         id="path1819-5"
         stroke-width="1"
         d="M-480.445-91.617h841.89V503.66h-841.89z" />
    </clipPath>
    <clipPath
       id="clipPath1872-3"
       clipPathUnits="userSpaceOnUse">
      <path
         id="path1874-5"
         stroke-width="1"
         d="M-488.313-132.237h841.89v595.276h-841.89z" />
    </clipPath>
    <clipPath
       id="clipPath1878-6"
       clipPathUnits="userSpaceOnUse">
      <path
         id="path1880-2"
         stroke-width="1"
         d="M-519.714-136.177h841.89V459.1h-841.89z" />
    </clipPath>
    <clipPath
       id="clipPath1886-9"
       clipPathUnits="userSpaceOnUse">
      <path
         id="path1888-1"
         stroke-width="1"
         d="M-521.325-134.642h841.89v595.276h-841.89z" />
    </clipPath>
    <clipPath
       id="clipPath1892-2"
       clipPathUnits="userSpaceOnUse">
      <path
         id="path1894-7"
         stroke-width="1"
         d="M-532.144-130.648h841.89v595.276h-841.89z" />
    </clipPath>
    <clipPath
       id="clipPath1898-0"
       clipPathUnits="userSpaceOnUse">
      <path
         id="path1900-9"
         stroke-width="1"
         d="M-500.02-102.749h841.89v595.276h-841.89z" />
    </clipPath>
    <clipPath
       id="clipPath1904-3"
       clipPathUnits="userSpaceOnUse">
      <path
         id="path1906-6"
         stroke-width="1"
         d="M-522.55-115.224h841.89v595.276h-841.89z" />
    </clipPath>
    <clipPath
       id="clipPath1910-0"
       clipPathUnits="userSpaceOnUse">
      <path
         id="path1912-6"
         stroke-width="1"
         d="M-561.373-85.195h841.89v595.276h-841.89z" />
    </clipPath>
    <clipPath
       id="clipPath1916-2"
       clipPathUnits="userSpaceOnUse">
      <path
         id="path1918-6"
         stroke-width="1"
         d="M-562.786-87.568h841.89v595.276h-841.89z" />
    </clipPath>
    <clipPath
       id="clipPath2322"
       clipPathUnits="userSpaceOnUse">
      <path
         id="path2324"
         stroke-width="1"
         d="M-537.03-102.748h841.89v595.276h-841.89z" />
    </clipPath>
    <clipPath
       id="clipPath1605-8"
       clipPathUnits="userSpaceOnUse">
      <path
         id="path1607-3"
         stroke-width="1"
         d="m -427.382,-279.942 h 841.89 v 595.276 h -841.89 z" />
    </clipPath>
    <clipPath
       id="clipPath1618-5"
       clipPathUnits="userSpaceOnUse">
      <path
         id="path1620-1"
         stroke-width="1"
         d="m -458.785,-283.881 h 841.89 v 595.276 h -841.89 z" />
    </clipPath>
    <clipPath
       id="clipPath1611-2"
       clipPathUnits="userSpaceOnUse">
      <path
         id="path1613-0"
         stroke-width="1"
         d="m -460.394,-282.347 h 841.89 v 595.276 h -841.89 z" />
    </clipPath>
    <clipPath
       id="clipPath1599-1"
       clipPathUnits="userSpaceOnUse">
      <path
         id="path1601-6"
         stroke-width="1"
         d="m -471.214,-278.353 h 841.89 v 595.276 h -841.89 z" />
    </clipPath>
  </defs>
  <path
     id="path612"
     fill="#ffffff"
     d="M 239.174,27.41 C 239.174,12.298 226.878,0 211.766,0 H 27.411 C 12.295,0 0.001,12.298 0.001,27.41 v 70.768 c 0,15.117 12.294,27.41 27.41,27.41 H 189.824 A 31.607,31.607 0 0 0 206,130 h 3.118 c 16.568,0 30.045,-12.466 30.045,-27.79 v -3.793 l 0.011,-0.239 z"
     clip-path="url(#clipPath1836-3)"
     style="fill-opacity:1;fill-rule:nonzero;stroke:none" />
  <path
     id="path616"
     fill="#00803d"
     d="M 27.411,115.826 H 53.663 V 44.318 H 27.41 A 17.647,17.647 0 0 0 9.76,61.965 v 36.211 a 17.65,17.65 0 0 0 17.65,17.65"
     clip-path="url(#clipPath1817-7)"
     style="fill-opacity:1;fill-rule:nonzero;stroke:none;fill:#808080" />
  <path
     id="path620"
     fill="#7c7b7b"
     d="m 43.253349,19.799 v 9.751 h -3.94 V 12.497 h 3.077 l 7.949,10.016 V 12.497 h 3.939 V 29.55 h -3.17 z"
     style="fill-opacity:1;fill-rule:nonzero;stroke:none;fill:#093c6b" />
  <path
     id="path632"
     fill="#7c7b7b"
     d="m 44.774,26.187 c 0.67,0 1.24,-0.139 1.704,-0.419 0.465,-0.28 0.843,-0.653 1.13,-1.117 0.289,-0.465 0.492,-0.997 0.61,-1.597 0.122,-0.6 0.184,-1.214 0.184,-1.839 v -8.719 h 3.937 v 8.72 a 11.894,11.894 0 0 1 -0.444,3.314 7.635,7.635 0 0 1 -1.37,2.692 6.413,6.413 0 0 1 -2.353,1.814 c -0.953,0.437 -2.085,0.658 -3.398,0.658 -1.362,0 -2.522,-0.23 -3.484,-0.695 -0.96,-0.464 -1.742,-1.084 -2.34,-1.863 a 7.608,7.608 0 0 1 -1.321,-2.7 12.062,12.062 0 0 1 -0.422,-3.22 v -8.72 h 3.94 v 8.72 c 0,0.655 0.063,1.282 0.193,1.875 a 4.965,4.965 0 0 0 0.623,1.585 c 0.289,0.463 0.66,0.832 1.116,1.103 0.457,0.274 1.022,0.408 1.695,0.408"
     clip-path="url(#clipPath1872-3)"
     style="fill-opacity:1;fill-rule:nonzero;stroke:none;fill:#093c6b"
     transform="translate(20.074349)" />
  <path
     id="path636"
     fill="#7c7b7b"
     d="m 88.432349,15.957 h -5.186 V 29.55 h -3.937 V 15.957 h -5.212 v -3.46 h 14.335 z"
     style="fill-opacity:1;fill-rule:nonzero;stroke:none;fill:#093c6b" />
  <path
     id="path648"
     fill="#7c7b7b"
     d="M 90.380349,29.55 V 12.497 h 7.686 c 0.801,0 1.543,0.17 2.223001,0.505 0.68,0.335 1.266,0.777 1.763,1.322 0.496,0.545 0.882,1.16 1.165,1.849 0.282,0.688 0.42,1.384 0.42,2.09 a 5.991,5.991 0 0 1 -0.742,2.906 5.283,5.283 0 0 1 -2.044,2.041 l 3.917,6.34 h -4.444 l -3.436001,-5.499 h -2.569 v 5.5 z m 3.94,-8.937 h 3.6 c 0.464,0 0.866,-0.216 1.203,-0.658 0.338,-0.441 0.504,-1.004 0.504,-1.692 0,-0.706 -0.192,-1.265 -0.576,-1.684 -0.384,-0.415 -0.801,-0.622 -1.25,-0.622 h -3.482 z"
     style="fill-opacity:1;fill-rule:nonzero;stroke:none;fill:#093c6b" />
  <path
     id="path650"
     fill="#7c7b7b"
     d="m 106.71235,12.497 h 3.94 V 29.55 h -3.94 z"
     style="fill-opacity:1;fill-rule:nonzero;stroke:none;fill:#093c6b" />
  <path
     id="path652"
     fill="#7c7b7b"
     d="m 113.58035,21.215 h 7.4 v 3.46 h -7.4 z"
     style="fill-opacity:1;fill-rule:nonzero;stroke:none;fill:#093c6b" />
  <path
     id="path664"
     fill="#7c7b7b"
     d="m 114.068,17.493 -0.53,-0.362 a 10.504,10.504 0 0 0 -2.497,-1.057 5.67,5.67 0 0 0 -1.536,-0.214 c -0.675,0 -1.19,0.119 -1.551,0.36 a 1.185,1.185 0 0 0 -0.539,1.056 l 0.24,0.722 0.685,0.514 c 0.295,0.152 0.664,0.294 1.105,0.422 0.44,0.128 0.947,0.273 1.525,0.432 0.817,0.225 1.554,0.468 2.21,0.733 a 6.075,6.075 0 0 1 1.68,0.984 c 0.464,0.393 0.822,0.87 1.069,1.43 0.247,0.56 0.373,1.234 0.373,2.017 0,0.96 -0.181,1.772 -0.54,2.436 a 4.568,4.568 0 0 1 -1.429,1.611 6.073,6.073 0 0 1 -2.054,0.89 10.502,10.502 0 0 1 -2.39,0.275 13.622,13.622 0 0 1 -3.82,-0.565 15.906,15.906 0 0 1 -1.825,-0.66 10.142,10.142 0 0 1 -1.635,-0.889 l 1.732,-3.436 0.647,0.457 c 0.353,0.227 0.785,0.45 1.297,0.673 0.512,0.225 1.088,0.426 1.728,0.6 a 7.311,7.311 0 0 0 1.947,0.265 c 1.394,0 2.09,-0.426 2.09,-1.273 l -0.312,-0.792 -0.865,-0.563 a 9.249,9.249 0 0 0 -1.297,-0.47 l -1.631,-0.481 a 14.214,14.214 0 0 1 -2.044,-0.781 5.457,5.457 0 0 1 -1.44,-0.974 3.443,3.443 0 0 1 -0.853,-1.27 4.656,4.656 0 0 1 -0.275,-1.682 c 0,-0.898 0.167,-1.688 0.503,-2.377 a 5.154,5.154 0 0 1 1.368,-1.743 5.958,5.958 0 0 1 2.006,-1.07 8.038,8.038 0 0 1 2.414,-0.358 c 0.61,0 1.203,0.055 1.779,0.166 0.576,0.114 1.125,0.258 1.644,0.432 a 13.781,13.781 0 0 1 2.725,1.273 z"
     clip-path="url(#clipPath1878-6)"
     style="fill-opacity:1;fill-rule:nonzero;stroke:none;fill:#093c6b"
     transform="translate(20.074349)" />
  <path
     id="path668"
     fill="#7c7b7b"
     d="m 117.624,20.88 c 0,-1.024 0.18,-2.046 0.551,-3.063 a 8.47,8.47 0 0 1 1.609,-2.725 8.134,8.134 0 0 1 2.584,-1.947 c 1.015,-0.496 2.172,-0.743 3.47,-0.743 1.52,0 2.842,0.344 3.963,1.032 a 6.494,6.494 0 0 1 2.498,2.69 l -3.026,2.112 A 3.661,3.661 0 0 0 128.6,17.12 l -0.89,-0.72 -0.995,-0.384 -0.975,-0.108 a 3.509,3.509 0 0 0 -1.825,0.457 4.085,4.085 0 0 0 -1.273,1.176 5.298,5.298 0 0 0 -0.755,1.633 6.845,6.845 0 0 0 -0.254,1.85 c 0,0.672 0.102,1.321 0.303,1.946 a 5.5,5.5 0 0 0 0.838,1.657 c 0.362,0.479 0.797,0.86 1.309,1.141 a 3.5,3.5 0 0 0 1.706,0.42 l 0.997,-0.131 0.995,-0.41 0.868,-0.72 c 0.253,-0.296 0.463,-0.662 0.624,-1.092 l 3.242,1.898 a 5.168,5.168 0 0 1 -1.119,1.681 6.852,6.852 0 0 1 -1.668,1.247 8.569,8.569 0 0 1 -4.036,1.033 c -1.183,0 -2.269,-0.252 -3.253,-0.755 a 8.27,8.27 0 0 1 -2.547,-2.006 9.478,9.478 0 0 1 -1.668,-2.833 8.993,8.993 0 0 1 -0.6,-3.22"
     clip-path="url(#clipPath1886-9)"
     style="fill-opacity:1;fill-rule:nonzero;stroke:none;fill:#093c6b"
     transform="translate(20.074349)" />
  <path
     id="path672"
     fill="#7c7b7b"
     d="m 141.499,29.694 c -1.216,0 -2.322,-0.247 -3.315,-0.744 a 8.3,8.3 0 0 1 -2.558,-1.957 8.878,8.878 0 0 1 -1.657,-2.776 9.026,9.026 0 0 1 -0.59,-3.216 c 0,-1.12 0.204,-2.202 0.614,-3.244 a 8.757,8.757 0 0 1 1.704,-2.751 8.34,8.34 0 0 1 2.595,-1.896 c 1,-0.472 2.094,-0.708 3.277,-0.708 1.216,0 2.324,0.247 3.315,0.743 a 8.24,8.24 0 0 1 2.56,1.97 8.91,8.91 0 0 1 1.644,2.786 9.104,9.104 0 0 1 0.576,3.171 8.791,8.791 0 0 1 -0.612,3.242 8.85,8.85 0 0 1 -1.692,2.752 8.313,8.313 0 0 1 -2.582,1.908 7.472,7.472 0 0 1 -3.28,0.72 M 137.39,21.05 c 0,0.655 0.094,1.29 0.278,1.907 0.183,0.617 0.448,1.165 0.792,1.646 a 3.884,3.884 0 0 0 1.297,1.154 3.641,3.641 0 0 0 1.79,0.43 c 0.689,0 1.289,-0.152 1.8,-0.457 a 4.11,4.11 0 0 0 1.287,-1.187 5.284,5.284 0 0 0 0.768,-1.657 7.26,7.26 0 0 0 0.252,-1.885 c 0,-0.657 -0.093,-1.295 -0.278,-1.91 a 5.131,5.131 0 0 0 -0.803,-1.634 4.01,4.01 0 0 0 -1.298,-1.13 c -0.512,-0.28 -1.097,-0.419 -1.754,-0.419 -0.687,0 -1.287,0.148 -1.799,0.444 a 4.094,4.094 0 0 0 -1.286,1.165 5.26,5.26 0 0 0 -0.78,1.644 6.76,6.76 0 0 0 -0.266,1.889"
     clip-path="url(#clipPath1892-2)"
     style="fill-opacity:1;fill-rule:nonzero;stroke:none;fill:#093c6b"
     transform="translate(20.074349)" />
  <path
     id="path676"
     fill="#7c7b7b"
     d="M 172.04435,29.55 V 12.497 h 7.686 c 0.8,0 1.54,0.17 2.222,0.505 a 5.892,5.892 0 0 1 1.765,1.322 c 0.497,0.545 0.883,1.16 1.165,1.849 a 5.539,5.539 0 0 1 0.42,2.09 6.16,6.16 0 0 1 -0.19,1.522 6.029,6.029 0 0 1 -0.554,1.384 5.274,5.274 0 0 1 -2.041,2.041 l 3.917,6.34 h -4.445 l -3.435,-5.499 h -2.571 v 5.5 z m 3.939,-8.937 h 3.603 c 0.464,0 0.865,-0.216 1.2,-0.658 0.338,-0.441 0.506,-1.004 0.506,-1.692 0,-0.706 -0.192,-1.265 -0.576,-1.684 -0.384,-0.415 -0.803,-0.622 -1.249,-0.622 h -3.487 z"
     style="fill-opacity:1;fill-rule:nonzero;stroke:none;fill:#093c6b" />
  <path
     id="path680"
     fill="#7c7b7b"
     d="m 200.36335,26.092 v 3.458 h -11.987 V 12.497 h 11.768 v 3.46 h -7.83 v 3.314 h 6.727 v 3.193 h -6.726 v 3.628 z"
     style="fill-opacity:1;fill-rule:nonzero;stroke:none;fill:#093c6b" />
  <path
     id="path682"
     fill="#87bd25"
     d="M 97.613,115.826 H 53.66 V 44.318 h 43.952 z"
     style="fill-opacity:1;fill-rule:nonzero;stroke:none;fill:#999999" />
  <path
     id="path684"
     fill="#ffcc00"
     d="M 141.562,115.826 H 97.612 V 44.318 h 43.95 z"
     style="fill-opacity:1;fill-rule:nonzero;stroke:none;fill:#cccccc" />
  <path
     id="path686"
     fill="#ef7d00"
     d="M 185.515,115.826 H 141.562 V 44.318 h 43.953 z"
     style="fill-opacity:1;fill-rule:nonzero;stroke:none;fill:#999999" />
  <path
     id="path700"
     fill="#74ab7e"
     d="m 27.522,85.165 4.854,-12.702 4.666,12.702 z m 7.163,-20.97 H 30.408 L 17.19,96.065 h 6.2 l 2.304,-6.097 h 13.124 l 2.262,6.097 h 6.775 z"
     style="fill-opacity:1;fill-rule:nonzero;stroke:none;fill:#ffffff" />
  <path
     id="path712"
     fill="#bdd684"
     d="m 70.609,91.26 v -9.006 h 3.027 c 5.625,0.045 7.452,1.708 7.452,4.341 0,3.28 -2.405,4.665 -7.068,4.665 z m 0,-13.441 v -8.823 h 1.827 c 4.855,0 6.825,1.432 6.825,4.297 0,2.632 -1.875,4.433 -5.817,4.48 z m 2.597,-13.627 h -8.752 v 31.872 h 9.855 c 9.28,0 13.078,-3.74 13.078,-9.469 0,-3.142 -1.733,-5.634 -5.339,-7.066 2.068,-1.618 3.51,-3.88 3.51,-6.792 0,-4.712 -3.318,-8.545 -12.352,-8.545"
     clip-path="url(#clipPath1898-0)"
     style="fill-opacity:1;fill-rule:nonzero;stroke:none;fill:#ffffff" />
  <path
     id="path716"
     fill="#ffdf7d"
     d="m 120.327,63.73 c -8.556,0 -15.14,6.376 -15.14,16.353 0,10.027 6.057,16.447 15.237,16.447 5.912,0 10.142,-2.31 12.784,-6.7 l -4.615,-3.372 c -1.873,3.05 -4.468,4.76 -7.929,4.76 -5.865,0 -9.135,-4.067 -9.135,-11.181 0,-6.652 3.365,-10.992 8.557,-10.992 3.414,0 5.912,1.708 7.115,4.618 l 5.863,-2.171 c -1.922,-4.48 -5.43,-7.761 -12.737,-7.761"
     clip-path="url(#clipPath1904-3)"
     style="fill-opacity:1;fill-rule:nonzero;stroke:none;fill:#ffffff" />
  <path
     id="path720"
     fill="#ffffff"
     d="m 206,129.998 c -16.566,0 -30.043,-12.466 -30.043,-27.788 V 57.936 c 0,-15.324 13.477,-27.79 30.043,-27.79 h 3.118 c 16.568,0 30.045,12.466 30.045,27.79 v 44.274 c 0,15.322 -13.477,27.788 -30.045,27.788 z"
     clip-path="url(#clipPath1910-0)"
     style="fill-opacity:1;fill-rule:nonzero;stroke:none" />
  <path
     id="path724"
     fill="#e63312"
     d="M 209.118,124.761 H 206 c -13.7,0 -24.806,-10.096 -24.806,-22.55 V 57.935 C 181.194,45.48 192.3,35.384 206,35.384 h 3.118 c 13.702,0 24.808,10.096 24.808,22.55 v 44.275 c 0,12.455 -11.106,22.551 -24.808,22.551"
     clip-path="url(#clipPath1916-2)"
     style="fill-opacity:1;fill-rule:nonzero;stroke:none" />
  <path
     id="path728"
     fill="#ffffff"
     d="M 194.496,100.849 V 58.353 h 27.653 v 8.684 h -16.875 v 7.45 h 11.64 v 8.747 h -11.64 v 8.93 h 17.243 v 8.685 z"
     style="fill-opacity:1;fill-rule:nonzero;stroke:none" />
  <path
     id="path740"
     fill="#f8b472"
     d="M 152.28,91.262 V 69.09 h 3.463 c 7.642,0 11.345,4.065 11.345,11.04 0,6.376 -3.992,11.133 -12.113,11.133 z m 3.512,-27.07 h -9.664 v 31.872 h 8.99 c 11.392,0 18.315,-6.788 18.315,-15.935 0,-9.976 -6.442,-15.937 -17.641,-15.937"
     clip-path="url(#clipPath2322)"
     style="fill-opacity:1;fill-rule:nonzero;stroke:none;fill:#ffffff" />
  <path
     id="path16330"
     clip-path="url(#clipPath1593)"
     style="fill:#e63312;fill-opacity:1;fill-rule:nonzero;stroke:none"
     d="M 0 33.997 L 0 27.407156 C 2.3684734e-15 12.296171 12.298124 -0.003 27.412109 -0.003 L 211.76953 -0.003 L 211.76953 -0.001046875 C 226.88152 -0.001046875 239.17773 12.295171 239.17773 27.407156 L 239.17773 33.997 L 0 33.997 z "
     transform="matrix(1,0,0,-1,0,161.997)" />
</svg>
