<?xml version="1.0" encoding="UTF-8" standalone="no"?>
<svg
   id="svg2032"
   width="240"
   height="162"
   version="1.1"
   viewBox="0 0 240 162"
   sodipodi:docname="nutriscore-c-new-en.svg"
   inkscape:version="1.4.2 (f4327f4, 2025-05-13)"
   xmlns:inkscape="http://www.inkscape.org/namespaces/inkscape"
   xmlns:sodipodi="http://sodipodi.sourceforge.net/DTD/sodipodi-0.dtd"
   xmlns="http://www.w3.org/2000/svg"
   xmlns:svg="http://www.w3.org/2000/svg">
  <sodipodi:namedview
     id="namedview1"
     pagecolor="#ffffff"
     bordercolor="#000000"
     borderopacity="0.25"
     inkscape:showpageshadow="2"
     inkscape:pageopacity="0.0"
     inkscape:pagecheckerboard="0"
     inkscape:deskcolor="#d1d1d1"
     inkscape:zoom="4.9814815"
     inkscape:cx="119.94424"
     inkscape:cy="81"
     inkscape:window-width="1920"
     inkscape:window-height="1009"
     inkscape:window-x="1912"
     inkscape:window-y="-8"
     inkscape:window-maximized="1"
     inkscape:current-layer="svg2032" />
  <rect
     style="fill:#ffffff;fill-opacity:1;stroke:none;stroke-width:2.65346;stroke-linecap:round;stroke-linejoin:round;paint-order:stroke fill markers"
     id="rect18499"
     width="239.17799"
     height="30"
     x="0"
     y="98" />
  <defs
     id="defs2029">
    <clipPath
       id="clipPath1836"
       clipPathUnits="userSpaceOnUse">
      <path
         id="path1838"
         stroke-width="1"
         d="M-576.406-131.683h841.89v595.276h-841.89z" />
    </clipPath>
    <clipPath
       id="clipPath1817"
       clipPathUnits="userSpaceOnUse">
      <path
         id="path1819"
         stroke-width="1"
         d="M-480.445-91.617h841.89V503.66h-841.89z" />
    </clipPath>
    <clipPath
       id="clipPath1872"
       clipPathUnits="userSpaceOnUse">
      <path
         id="path1874"
         stroke-width="1"
         d="M-488.313-132.237h841.89v595.276h-841.89z" />
    </clipPath>
    <clipPath
       id="clipPath1878"
       clipPathUnits="userSpaceOnUse">
      <path
         id="path1880"
         stroke-width="1"
         d="M-519.714-136.177h841.89V459.1h-841.89z" />
    </clipPath>
    <clipPath
       id="clipPath1886"
       clipPathUnits="userSpaceOnUse">
      <path
         id="path1888"
         stroke-width="1"
         d="M-521.325-134.642h841.89v595.276h-841.89z" />
    </clipPath>
    <clipPath
       id="clipPath1892"
       clipPathUnits="userSpaceOnUse">
      <path
         id="path1894"
         stroke-width="1"
         d="M-532.144-130.648h841.89v595.276h-841.89z" />
    </clipPath>
    <clipPath
       id="clipPath1898"
       clipPathUnits="userSpaceOnUse">
      <path
         id="path1900"
         stroke-width="1"
         d="M-500.02-102.749h841.89v595.276h-841.89z" />
    </clipPath>
    <clipPath
       id="clipPath1904"
       clipPathUnits="userSpaceOnUse">
      <path
         id="path1906"
         stroke-width="1"
         d="M-522.55-115.224h841.89v595.276h-841.89z" />
    </clipPath>
    <clipPath
       id="clipPath1910"
       clipPathUnits="userSpaceOnUse">
      <path
         id="path1912"
         stroke-width="1"
         d="M-561.373-85.195h841.89v595.276h-841.89z" />
    </clipPath>
    <clipPath
       id="clipPath1916"
       clipPathUnits="userSpaceOnUse">
      <path
         id="path1918"
         stroke-width="1"
         d="M-562.786-87.568h841.89v595.276h-841.89z" />
    </clipPath>
    <clipPath
       id="clipPath1593"
       clipPathUnits="userSpaceOnUse">
      <path
         id="path1595"
         stroke-width="1"
         d="M-503.056-291.81h841.89v595.277h-841.89z" />
    </clipPath>
    <clipPath
       id="clipPath1929"
       clipPathUnits="userSpaceOnUse">
      <path
         id="path1931"
         stroke-width="1"
         d="M-503.055-239.322h841.89v595.276h-841.89z" />
    </clipPath>
    <clipPath
       id="clipPath1605"
       clipPathUnits="userSpaceOnUse">
      <path
         id="path1607"
         stroke-width="1"
         d="M-427.382-279.942h841.89v595.276h-841.89z" />
    </clipPath>
    <clipPath
       id="clipPath1618"
       clipPathUnits="userSpaceOnUse">
      <path
         id="path1620"
         stroke-width="1"
         d="M-458.785-283.881h841.89v595.276h-841.89z" />
    </clipPath>
    <clipPath
       id="clipPath1611"
       clipPathUnits="userSpaceOnUse">
      <path
         id="path1613"
         stroke-width="1"
         d="M-460.394-282.347h841.89v595.276h-841.89z" />
    </clipPath>
    <clipPath
       id="clipPath1599"
       clipPathUnits="userSpaceOnUse">
      <path
         id="path1601"
         stroke-width="1"
         d="M-471.214-278.353h841.89v595.276h-841.89z" />
    </clipPath>
    <clipPath
       id="clipPath1624"
       clipPathUnits="userSpaceOnUse">
      <path
         id="path1626"
         stroke-width="1"
         d="M-441.091-250.452h841.89v595.276h-841.89z" />
    </clipPath>
    <clipPath
       id="clipPath1630"
       clipPathUnits="userSpaceOnUse">
      <path
         id="path1632"
         stroke-width="1"
         d="M-461.62-262.929h841.89v595.276h-841.89z" />
    </clipPath>
    <clipPath
       id="clipPath1636"
       clipPathUnits="userSpaceOnUse">
      <path
         id="path1638"
         stroke-width="1"
         d="M-478.601-250.452h841.89v595.276h-841.89z" />
    </clipPath>
    <clipPath
       id="clipPath1642"
       clipPathUnits="userSpaceOnUse">
      <path
         id="path1644"
         stroke-width="1"
         d="M-420.708-232.9h841.89v595.276h-841.89z" />
    </clipPath>
    <clipPath
       id="clipPath1922"
       clipPathUnits="userSpaceOnUse">
      <path
         id="path1924"
         stroke-width="1"
         d="M-422.121-235.273h841.89v595.276h-841.89z" />
    </clipPath>
    <clipPath
       id="clipPath1866"
       clipPathUnits="userSpaceOnUse">
      <path
         id="path1868"
         stroke-width="1"
         d="M-625.833-291.81h841.89v595.277h-841.89z" />
    </clipPath>
    <clipPath
       id="clipPath1717"
       clipPathUnits="userSpaceOnUse">
      <path
         id="path1719"
         stroke-width="1"
         d="M-625.833-239.322h841.89v595.276h-841.89z" />
    </clipPath>
    <clipPath
       id="clipPath1729"
       clipPathUnits="userSpaceOnUse">
      <path
         id="path1731"
         stroke-width="1"
         d="M-542.292-239.322h841.89v595.276h-841.89z" />
    </clipPath>
    <clipPath
       id="clipPath1735"
       clipPathUnits="userSpaceOnUse">
      <path
         id="path1737"
         stroke-width="1"
         d="M-586.47-262.929h841.89v595.276h-841.89z" />
    </clipPath>
    <clipPath
       id="clipPath1741"
       clipPathUnits="userSpaceOnUse">
      <path
         id="path1743"
         stroke-width="1"
         d="M-601.38-250.452h841.89v595.276h-841.89z" />
    </clipPath>
    <clipPath
       id="clipPath1747"
       clipPathUnits="userSpaceOnUse">
      <path
         id="path1749"
         stroke-width="1"
         d="M-550.16-279.942h841.89v595.276h-841.89z" />
    </clipPath>
    <clipPath
       id="clipPath1759"
       clipPathUnits="userSpaceOnUse">
      <path
         id="path1761"
         stroke-width="1"
         d="M-581.562-283.881h841.89v595.276h-841.89z" />
    </clipPath>
    <clipPath
       id="clipPath1765"
       clipPathUnits="userSpaceOnUse">
      <path
         id="path1767"
         stroke-width="1"
         d="M-583.172-282.347h841.89v595.276h-841.89z" />
    </clipPath>
    <clipPath
       id="clipPath1773"
       clipPathUnits="userSpaceOnUse">
      <path
         id="path1775"
         stroke-width="1"
         d="M-593.991-278.353h841.89v595.276h-841.89z" />
    </clipPath>
    <clipPath
       id="clipPath1779"
       clipPathUnits="userSpaceOnUse">
      <path
         id="path1781"
         stroke-width="1"
         d="M-563.464-232.9h841.89v595.276h-841.89z" />
    </clipPath>
    <clipPath
       id="clipPath1785"
       clipPathUnits="userSpaceOnUse">
      <path
         id="path1787"
         stroke-width="1"
         d="M-564.877-235.273h841.89v595.276h-841.89z" />
    </clipPath>
    <clipPath
       id="clipPath1792"
       clipPathUnits="userSpaceOnUse">
      <path
         id="path1794"
         stroke-width="1"
         d="M-503.055-216.392h841.89v595.276h-841.89z" />
    </clipPath>
    <clipPath
       id="clipPath1753"
       clipPathUnits="userSpaceOnUse">
      <path
         id="path1755"
         stroke-width="1"
         d="M-503.055-163.905h841.89v595.276h-841.89z" />
    </clipPath>
    <clipPath
       id="clipPath1723"
       clipPathUnits="userSpaceOnUse">
      <path
         id="path1725"
         stroke-width="1"
         d="M-419.514-163.905h841.89v595.276h-841.89z" />
    </clipPath>
    <clipPath
       id="clipPath1798"
       clipPathUnits="userSpaceOnUse">
      <path
         id="path1800"
         stroke-width="1"
         d="M-427.382-204.525h841.89v595.276h-841.89z" />
    </clipPath>
    <clipPath
       id="clipPath1804"
       clipPathUnits="userSpaceOnUse">
      <path
         id="path1806"
         stroke-width="1"
         d="M-458.784-208.465h841.89v595.276h-841.89z" />
    </clipPath>
    <clipPath
       id="clipPath1810"
       clipPathUnits="userSpaceOnUse">
      <path
         id="path1812"
         stroke-width="1"
         d="M-460.394-206.93h841.89v595.276h-841.89z" />
    </clipPath>
    <clipPath
       id="clipPath1823"
       clipPathUnits="userSpaceOnUse">
      <path
         id="path1825"
         stroke-width="1"
         d="M-471.213-202.936h841.89V392.34h-841.89z" />
    </clipPath>
    <clipPath
       id="clipPath1830"
       clipPathUnits="userSpaceOnUse">
      <path
         id="path1832"
         stroke-width="1"
         d="M-437.456-175.036h841.89V420.24h-841.89z" />
    </clipPath>
    <clipPath
       id="clipPath1848"
       clipPathUnits="userSpaceOnUse">
      <path
         id="path1850"
         stroke-width="1"
         d="M-480.209-175.036h841.89V420.24h-841.89z" />
    </clipPath>
    <clipPath
       id="clipPath1842"
       clipPathUnits="userSpaceOnUse">
      <path
         id="path1844"
         stroke-width="1"
         d="M-460.551-157.483h841.89v595.276h-841.89z" />
    </clipPath>
    <clipPath
       id="clipPath1854"
       clipPathUnits="userSpaceOnUse">
      <path
         id="path1856"
         stroke-width="1"
         d="M-461.964-159.856h841.89V435.42h-841.89z" />
    </clipPath>
    <clipPath
       id="clipPath1860"
       clipPathUnits="userSpaceOnUse">
      <path
         id="path1862"
         stroke-width="1"
         d="M-452.876-180.763h841.89v595.276h-841.89z" />
    </clipPath>
  </defs>
  <path
     id="path488"
     fill="#ffffff"
     d="M 211.766,0 H 27.411 C 12.297,0 0.001,12.298 0.001,27.41 v 70.768 c 0,15.117 12.296,27.413 27.41,27.413 h 74.384 A 31.623,31.623 0 0 0 117.97,130 h 3.118 c 5.958,0 11.502,-1.633 16.178,-4.41 h 74.5 c 15.116,0 27.41,-12.295 27.41,-27.412 V 27.41 C 239.176,12.298 226.882,0 211.766,0"
     clip-path="url(#clipPath1792)"
     style="fill-opacity:1;fill-rule:nonzero;stroke:none" />
  <path
     id="path492"
     fill="#e63312"
     d="M 211.766,115.826 H 185.515 V 44.318 h 26.251 a 17.647,17.647 0 0 1 17.65,17.647 v 36.211 a 17.65,17.65 0 0 1 -17.65,17.65"
     clip-path="url(#clipPath1753)"
     style="fill-opacity:1;fill-rule:nonzero;stroke:none;fill:#666666" />
  <path
     id="path496"
     fill="#00803d"
     d="M 27.411,115.826 H 53.663 V 44.318 H 27.41 A 17.647,17.647 0 0 0 9.764,61.965 v 36.211 a 17.647,17.647 0 0 0 17.647,17.65"
     clip-path="url(#clipPath1723)"
     style="fill-opacity:1;fill-rule:nonzero;stroke:none;fill:#666666" />
  <path
     id="path500"
     fill="#f28f66"
     d="m 217.581,64.194 h -20.236 v 31.87 h 20.428 v -4.802 h -14.278 v -9.378 h 10.001 V 77.08 h -10 v -8.084 h 14.085 z"
     style="fill-opacity:1;fill-rule:nonzero;stroke:none;fill:#ffffff" />
  <path
     id="path504"
     fill="#7c7b7b"
     d="m 45.264784,19.799 v 9.751 h -3.939 V 12.496 h 3.074 l 7.949,10.017 V 12.496 h 3.941 V 29.55 h -3.171 z"
     style="fill-opacity:1;fill-rule:nonzero;stroke:none;fill:#093c6b" />
  <path
     id="path516"
     fill="#7c7b7b"
     d="m 44.774,26.187 c 0.673,0 1.242,-0.139 1.706,-0.419 0.465,-0.28 0.84,-0.653 1.13,-1.117 0.287,-0.465 0.492,-0.997 0.611,-1.597 0.121,-0.6 0.18,-1.214 0.18,-1.839 v -8.718 h 3.94 v 8.718 c 0,1.188 -0.148,2.291 -0.446,3.315 a 7.631,7.631 0 0 1 -1.368,2.692 6.422,6.422 0 0 1 -2.355,1.814 c -0.953,0.437 -2.085,0.658 -3.398,0.658 -1.362,0 -2.522,-0.23 -3.482,-0.695 -0.962,-0.464 -1.744,-1.084 -2.342,-1.863 -0.602,-0.777 -1.041,-1.677 -1.321,-2.7 a 12.15,12.15 0 0 1 -0.422,-3.22 v -8.72 h 3.94 v 8.72 c 0,0.655 0.063,1.282 0.193,1.875 a 4.965,4.965 0 0 0 0.625,1.585 c 0.287,0.463 0.66,0.832 1.116,1.103 0.457,0.274 1.02,0.408 1.693,0.408"
     clip-path="url(#clipPath1798)"
     style="fill-opacity:1;fill-rule:nonzero;stroke:none;fill:#093c6b"
     transform="translate(22.081784)" />
  <path
     id="path520"
     fill="#7c7b7b"
     d="m 90.443784,15.959 h -5.19 v 13.594 h -3.94 V 15.959 h -5.212 v -3.463 h 14.344 z"
     style="fill-opacity:1;fill-rule:nonzero;stroke:none;fill:#093c6b" />
  <path
     id="path532"
     fill="#7c7b7b"
     d="M 92.387784,29.55 V 12.496 h 7.685996 c 0.801,0 1.545,0.17 2.225,0.506 a 5.92,5.92 0 0 1 1.765,1.322 c 0.495,0.545 0.883,1.16 1.163,1.849 a 5.495,5.495 0 0 1 0.422,2.09 6.06,6.06 0 0 1 -0.192,1.522 6.029,6.029 0 0 1 -0.552,1.384 5.274,5.274 0 0 1 -2.043,2.041 l 3.914,6.34 h -4.442 l -3.435996,-5.499 h -2.57 v 5.5 z m 3.94,-8.937 h 3.603 c 0.465996,0 0.862996,-0.216 1.202996,-0.658 0.335,-0.441 0.503,-1.004 0.503,-1.692 0,-0.706 -0.192,-1.265 -0.578,-1.684 -0.384,-0.415 -0.801,-0.622 -1.246996,-0.622 h -3.485 z"
     style="fill-opacity:1;fill-rule:nonzero;stroke:none;fill:#093c6b" />
  <path
     id="path534"
     fill="#7c7b7b"
     d="m 108.72178,12.496 h 3.94 V 29.55 h -3.94 z"
     style="fill-opacity:1;fill-rule:nonzero;stroke:none;fill:#093c6b" />
  <path
     id="path536"
     fill="#7c7b7b"
     d="m 115.59178,21.215 h 7.397 v 3.46 h -7.397 z"
     style="fill-opacity:1;fill-rule:nonzero;stroke:none;fill:#093c6b" />
  <path
     id="path548"
     fill="#7c7b7b"
     d="m 114.07,17.493 -0.527,-0.362 a 10.725,10.725 0 0 0 -2.498,-1.057 5.685,5.685 0 0 0 -1.538,-0.214 c -0.673,0 -1.19,0.119 -1.551,0.36 a 1.19,1.19 0 0 0 -0.536,1.056 l 0.238,0.722 0.686,0.514 c 0.294,0.152 0.662,0.294 1.104,0.422 0.439,0.128 0.946,0.273 1.524,0.432 0.817,0.225 1.554,0.468 2.21,0.733 a 6.089,6.089 0 0 1 1.683,0.984 c 0.461,0.393 0.819,0.87 1.068,1.43 0.247,0.56 0.371,1.234 0.371,2.017 0,0.96 -0.179,1.772 -0.54,2.436 a 4.524,4.524 0 0 1 -1.428,1.611 6.06,6.06 0 0 1 -2.053,0.89 10.272,10.272 0 0 1 -2.39,0.275 13.653,13.653 0 0 1 -3.822,-0.565 15.723,15.723 0 0 1 -1.823,-0.66 9.96,9.96 0 0 1 -1.635,-0.889 l 1.73,-3.436 0.647,0.457 c 0.353,0.227 0.786,0.45 1.3,0.673 0.51,0.225 1.085,0.426 1.728,0.6 a 7.282,7.282 0 0 0 1.944,0.265 c 1.397,0 2.09,-0.426 2.09,-1.273 l -0.31,-0.792 -0.864,-0.563 a 9.388,9.388 0 0 0 -1.3,-0.47 l -1.631,-0.481 a 14.18,14.18 0 0 1 -2.041,-0.781 5.52,5.52 0 0 1 -1.444,-0.971 3.47,3.47 0 0 1 -0.851,-1.274 4.654,4.654 0 0 1 -0.278,-1.681 c 0,-0.898 0.17,-1.688 0.505,-2.377 a 5.187,5.187 0 0 1 1.37,-1.743 5.917,5.917 0 0 1 2.006,-1.068 7.944,7.944 0 0 1 2.412,-0.36 c 0.612,0 1.203,0.055 1.779,0.166 a 13.49,13.49 0 0 1 1.646,0.432 13.931,13.931 0 0 1 2.726,1.273 z"
     clip-path="url(#clipPath1804)"
     style="fill-opacity:1;fill-rule:nonzero;stroke:none;fill:#093c6b"
     transform="translate(22.081784)" />
  <path
     id="path552"
     fill="#7c7b7b"
     d="m 117.624,20.88 a 8.94,8.94 0 0 1 0.551,-3.063 8.436,8.436 0 0 1 1.611,-2.725 8.125,8.125 0 0 1 2.582,-1.947 c 1.017,-0.496 2.174,-0.743 3.47,-0.743 1.522,0 2.842,0.344 3.963,1.032 a 6.501,6.501 0 0 1 2.5,2.69 l -3.028,2.112 A 3.661,3.661 0 0 0 128.6,17.12 l -0.887,-0.72 -1,-0.384 -0.97,-0.108 c -0.705,0 -1.316,0.152 -1.826,0.457 a 4.038,4.038 0 0 0 -1.273,1.176 5.252,5.252 0 0 0 -0.757,1.633 6.931,6.931 0 0 0 -0.251,1.85 c 0,0.672 0.099,1.321 0.3,1.946 a 5.605,5.605 0 0 0 0.838,1.657 c 0.362,0.479 0.8,0.86 1.309,1.141 a 3.509,3.509 0 0 0 1.706,0.42 l 0.997,-0.13 0.998,-0.411 0.865,-0.72 c 0.253,-0.296 0.463,-0.662 0.624,-1.092 l 3.242,1.895 a 5.148,5.148 0 0 1 -1.117,1.684 6.907,6.907 0 0 1 -1.67,1.247 8.551,8.551 0 0 1 -4.034,1.033 c -1.185,0 -2.269,-0.252 -3.255,-0.755 a 8.324,8.324 0 0 1 -2.547,-2.006 9.57,9.57 0 0 1 -1.668,-2.833 9.041,9.041 0 0 1 -0.6,-3.22"
     clip-path="url(#clipPath1810)"
     style="fill-opacity:1;fill-rule:nonzero;stroke:none;fill:#093c6b"
     transform="translate(22.081784)" />
  <path
     id="path556"
     fill="#7c7b7b"
     d="m 141.499,29.694 c -1.216,0 -2.322,-0.247 -3.315,-0.744 a 8.291,8.291 0 0 1 -2.555,-1.957 8.794,8.794 0 0 1 -1.658,-2.776 8.968,8.968 0 0 1 1.728,-9.211 8.33,8.33 0 0 1 2.593,-1.896 c 1,-0.472 2.094,-0.708 3.28,-0.708 1.215,0 2.32,0.247 3.314,0.743 a 8.231,8.231 0 0 1 2.558,1.97 8.874,8.874 0 0 1 1.646,2.786 9.104,9.104 0 0 1 0.576,3.171 8.837,8.837 0 0 1 -0.611,3.242 8.898,8.898 0 0 1 -1.695,2.752 8.313,8.313 0 0 1 -2.582,1.908 7.465,7.465 0 0 1 -3.28,0.72 m -4.106,-8.644 c 0,0.655 0.09,1.29 0.278,1.907 a 5.51,5.51 0 0 0 0.79,1.648 c 0.344,0.479 0.777,0.863 1.297,1.152 0.521,0.287 1.117,0.43 1.79,0.43 0.689,0 1.291,-0.152 1.8,-0.457 0.513,-0.302 0.943,-0.7 1.287,-1.187 0.345,-0.488 0.6,-1.041 0.768,-1.657 a 7.17,7.17 0 0 0 0.254,-1.885 c 0,-0.657 -0.095,-1.295 -0.278,-1.91 a 5.178,5.178 0 0 0 -0.803,-1.634 4.019,4.019 0 0 0 -1.3,-1.13 3.575,3.575 0 0 0 -1.75,-0.419 c -0.69,0 -1.29,0.148 -1.803,0.444 a 4.109,4.109 0 0 0 -1.284,1.165 5.29,5.29 0 0 0 -0.781,1.644 6.841,6.841 0 0 0 -0.265,1.889"
     clip-path="url(#clipPath1823)"
     style="fill-opacity:1;fill-rule:nonzero;stroke:none;fill:#093c6b"
     transform="translate(22.081784)" />
  <path
     id="path560"
     fill="#7c7b7b"
     d="M 174.05578,29.55 V 12.496 h 7.684 c 0.801,0 1.54,0.17 2.222,0.506 a 5.92,5.92 0 0 1 1.766,1.322 c 0.494,0.545 0.882,1.16 1.163,1.849 a 5.495,5.495 0 0 1 0.421,2.09 5.991,5.991 0 0 1 -0.744,2.906 5.283,5.283 0 0 1 -2.043,2.041 l 3.915,6.34 h -4.443 l -3.435,-5.499 h -2.57 v 5.5 z m 3.937,-8.937 h 3.601 c 0.464,0 0.865,-0.216 1.2,-0.658 0.34,-0.441 0.508,-1.004 0.508,-1.692 0,-0.706 -0.194,-1.265 -0.578,-1.684 -0.384,-0.415 -0.8,-0.622 -1.249,-0.622 h -3.482 z"
     style="fill-opacity:1;fill-rule:nonzero;stroke:none;fill:#093c6b" />
  <path
     id="path564"
     fill="#7c7b7b"
     d="m 202.37278,26.092 v 3.458 h -11.985 V 12.496 h 11.767 v 3.46 h -7.828 v 3.315 h 6.724 v 3.193 h -6.724 v 3.628 z"
     style="fill-opacity:1;fill-rule:nonzero;stroke:none;fill:#093c6b" />
  <path
     id="path566"
     fill="#87bd25"
     d="M 97.613,115.826 H 53.663 V 44.318 h 43.95 z"
     style="fill-opacity:1;fill-rule:nonzero;stroke:none;fill:#999999" />
  <path
     id="path568"
     fill="#ef7d00"
     d="m 185.515,115.826 h -43.95 V 44.318 h 43.95 z"
     style="fill-opacity:1;fill-rule:nonzero;stroke:none;fill:#999999" />
  <path
     id="path580"
     fill="#bdd684"
     d="m 67.005,91.262 v -9.008 h 3.03 c 5.623,0.045 7.45,1.708 7.45,4.343 0,3.277 -2.403,4.665 -7.066,4.665 z m 0,-13.443 v -8.823 h 1.827 c 4.857,0 6.826,1.432 6.826,4.297 0,2.632 -1.874,4.433 -5.815,4.48 z m 2.597,-13.627 h -8.75 v 31.872 h 9.856 c 9.277,0 13.075,-3.74 13.075,-9.467 0,-3.144 -1.732,-5.636 -5.338,-7.068 2.07,-1.618 3.51,-3.88 3.51,-6.79 0,-4.714 -3.316,-8.547 -12.353,-8.547"
     clip-path="url(#clipPath1830)"
     style="fill-opacity:1;fill-rule:nonzero;stroke:none;fill:#ffffff" />
  <path
     id="path584"
     fill="#f8b472"
     d="M 161.35,91.262 V 69.09 h 3.463 c 7.642,0 11.345,4.065 11.345,11.04 0,6.376 -3.992,11.133 -12.113,11.133 z m 3.512,-27.07 h -9.664 v 31.872 h 8.99 c 11.392,0 18.314,-6.788 18.314,-15.935 0,-9.976 -6.441,-15.937 -17.64,-15.937"
     clip-path="url(#clipPath1848)"
     style="fill-opacity:1;fill-rule:nonzero;stroke:none;fill:#ffffff" />
  <path
     id="path588"
     fill="#74ab7e"
     d="m 27.526,85.163 4.855,-12.7 4.663,12.702 z m 7.163,-20.969 h -4.28 l -13.22,31.873 h 6.202 l 2.31,-6.098 h 13.121 l 2.26,6.098 h 6.775 z"
     style="fill-opacity:1;fill-rule:nonzero;stroke:none;fill:#ffffff" />
  <path
     id="path600"
     fill="#ffffff"
     d="m 117.97,129.998 c -16.566,0 -30.043,-12.466 -30.043,-27.788 V 57.936 c 0,-15.324 13.477,-27.79 30.043,-27.79 h 3.118 c 16.566,0 30.043,12.466 30.043,27.79 v 44.274 c 0,15.322 -13.477,27.788 -30.043,27.788 z"
     clip-path="url(#clipPath1842)"
     style="fill-opacity:1;fill-rule:nonzero;stroke:none" />
  <path
     id="path604"
     fill="#ffcc00"
     d="m 121.088,124.761 h -3.118 c -13.702,0 -24.806,-10.096 -24.806,-22.55 V 57.935 c 0,-12.455 11.104,-22.551 24.806,-22.551 h 3.118 c 13.7,0 24.806,10.096 24.806,22.55 v 44.275 c 0,12.455 -11.106,22.551 -24.806,22.551"
     clip-path="url(#clipPath1854)"
     style="fill-opacity:1;fill-rule:nonzero;stroke:none" />
  <path
     id="path608"
     fill="#ffffff"
     d="m 101.033,78.624 c 0,-13.547 8.439,-21.924 19.832,-21.924 9.915,0 14.102,5.237 16.505,10.778 l -10.286,3.88 c -1.231,-2.894 -3.14,-4.988 -6.713,-4.988 -5.358,0 -8.191,4.804 -8.191,12.192 0,8.192 2.957,12.197 8.992,12.197 3.573,0 6.345,-2.094 8.375,-5.113 l 7.946,5.974 c -3.51,5.42 -9.116,8.807 -16.628,8.807 -12.07,0 -19.832,-8.436 -19.832,-21.803"
     clip-path="url(#clipPath1860)"
     style="fill-opacity:1;fill-rule:nonzero;stroke:none" />
  <path
     id="path16330"
     clip-path="url(#clipPath1593)"
     style="fill:#ffcc00;fill-opacity:1;fill-rule:nonzero;stroke:none"
     d="M 0 33.997 L 0 27.407156 C 2.3684734e-15 12.296171 12.298124 -0.003 27.412109 -0.003 L 211.76953 -0.003 L 211.76953 -0.001046875 C 226.88152 -0.001046875 239.17773 12.295171 239.17773 27.407156 L 239.17773 33.997 L 0 33.997 z "
     transform="matrix(1,0,0,-1,0,161.997)" />
</svg>
