<?xml version="1.0" encoding="UTF-8"?>
<!DOCTYPE svg PUBLIC "-//W3C//DTD SVG 1.1//EN" "http://www.w3.org/Graphics/SVG/1.1/DTD/svg11.dtd">
<!-- Creator: CorelDRAW -->
<svg xmlns="http://www.w3.org/2000/svg" xml:space="preserve" width="32mm" height="46mm" version="1.1" style="shape-rendering:geometricPrecision; text-rendering:geometricPrecision; image-rendering:optimizeQuality; fill-rule:evenodd; clip-rule:evenodd"
viewBox="0 0 3200 4600"
 xmlns:xlink="http://www.w3.org/1999/xlink"
 xmlns:xodm="http://www.corel.com/coreldraw/odm/2003">
 <defs>
  <style type="text/css">
   <![CDATA[
    .str0 {stroke:#CB8A2A;stroke-width:23.28;stroke-miterlimit:22.9256}
    .fil17 {fill:none}
    .fil5 {fill:none;fill-rule:nonzero}
    .fil10 {fill:#008E48;fill-rule:nonzero}
    .fil0 {fill:#6BC6B6;fill-rule:nonzero}
    .fil7 {fill:#971B1F;fill-rule:nonzero}
    .fil3 {fill:#B6D437;fill-rule:nonzero}
    .fil12 {fill:#B93726;fill-rule:nonzero}
    .fil14 {fill:#C75128;fill-rule:nonzero}
    .fil9 {fill:#D2272A;fill-rule:nonzero}
    .fil8 {fill:#DE6A26;fill-rule:nonzero}
    .fil13 {fill:#E98C2F;fill-rule:nonzero}
    .fil6 {fill:#EB2228;fill-rule:nonzero}
    .fil11 {fill:#ED9F23;fill-rule:nonzero}
    .fil4 {fill:#F295BE;fill-rule:nonzero}
    .fil16 {fill:#F7D099;fill-rule:nonzero}
    .fil15 {fill:#F7D2A7;fill-rule:nonzero}
    .fil2 {fill:#FEEE0B;fill-rule:nonzero}
    .fil1 {fill:white;fill-rule:nonzero}
   ]]>
  </style>
   <clipPath id="id0">
    <path d="M3240.75 1528.39l0 1471.45 0 0 0 21.07 -0.33 0c-0.16,12.64 -0.65,25.12 -1.13,37.27 -0.16,2.76 -0.33,5.35 -0.49,8.11 -0.65,10.69 -1.29,21.23 -2.1,31.6 -0.33,5.03 -0.81,9.73 -1.3,14.59 -0.81,7.78 -1.46,15.72 -2.43,23.34 -0.49,5.35 -1.3,10.54 -1.95,15.72 -0.98,6.97 -1.79,14.26 -3.08,21.07 -0.81,5.35 -1.63,10.54 -2.44,15.72 -1.13,6.81 -2.26,13.62 -3.73,20.1 -0.97,5.19 -1.94,10.22 -3.08,15.41 -1.46,6.48 -2.91,12.96 -4.37,19.45 -1.14,4.86 -2.27,9.88 -3.57,14.58 -1.62,6.48 -3.4,12.97 -5.02,19.45 -1.3,4.54 -2.43,9.08 -3.89,13.62 -1.95,6.81 -4.05,13.62 -6.16,20.26 -1.13,3.89 -2.26,7.62 -3.73,11.35 -3.24,9.88 -6.65,19.45 -10.21,29.01 -0.49,1.3 -0.98,2.92 -1.62,4.22 -3.41,9.23 -6.98,17.99 -10.7,26.9 -1.46,3.41 -3.08,6.65 -4.54,10.05 -2.76,6.16 -5.35,12.32 -8.26,18.48 -1.79,3.89 -3.74,7.45 -5.52,11.18 -2.76,5.52 -5.35,11.02 -8.26,16.54 -1.95,3.73 -4.05,7.29 -6,11.02 -2.92,5.19 -5.67,10.37 -8.75,15.56 -1.95,3.73 -4.05,7.13 -6.16,10.69 -3.08,5.19 -6.16,10.22 -9.24,15.24 -2.11,3.41 -4.21,6.65 -6.32,10.05 -3.41,5.02 -6.65,10.21 -10.21,15.07 -1.95,3.08 -4.05,6.16 -6.16,9.08 -3.89,5.52 -7.78,10.86 -11.83,16.21 -1.62,2.27 -3.41,4.7 -5.02,6.97 -11.67,15.24 -23.83,29.83 -36.31,43.77 -1.63,1.78 -3.41,3.73 -5.03,5.51 -4.54,5.03 -9.24,10.05 -14.1,15.08 -2.11,2.27 -4.37,4.54 -6.48,6.65 -4.38,4.37 -8.59,8.75 -12.97,12.97 -2.27,2.26 -4.7,4.54 -7.13,6.8 -4.22,4.05 -8.59,8.11 -12.81,12 -2.43,2.1 -5.02,4.37 -7.45,6.64 -4.38,3.89 -8.91,7.62 -13.45,11.51 -2.44,1.95 -4.87,4.22 -7.13,6 -4.87,4.05 -9.73,7.78 -14.59,11.67 -2.11,1.79 -4.38,3.57 -6.48,5.19 -5.52,4.38 -11.19,8.59 -16.86,12.65 -1.46,1.13 -3.08,2.1 -4.38,3.4 -14.75,10.7 -29.82,20.75 -44.9,30.47 -0.8,0.49 -1.62,0.98 -2.43,1.46 -6.64,4.22 -13.29,8.27 -19.93,12.16 -1.78,1.13 -3.57,2.1 -5.35,3.24 -5.84,3.4 -11.51,6.64 -17.34,10.04 -1.95,1.14 -4.22,2.27 -6.16,3.41 -5.51,3.24 -11.19,6.16 -16.69,9.08l-6.49 3.56c-5.67,2.92 -11.18,5.68 -16.85,8.59 -1.95,0.98 -4.05,1.95 -6,3.08 -6.16,2.92 -12.16,5.68 -18.15,8.59 -1.63,0.81 -3.24,1.46 -4.87,2.27 -6.97,3.24 -14.1,6.16 -21.07,9.4 -0.65,0.16 -1.14,0.49 -1.79,0.65 -23.82,10.22 -47.33,19.45 -70.99,27.72 -0.81,0.32 -1.62,0.48 -2.43,0.81 -6.81,2.43 -13.78,4.86 -20.43,6.97 -1.3,0.48 -2.76,0.81 -3.89,1.3 -6.48,1.95 -12.8,4.05 -19.12,6 -1.46,0.48 -2.92,0.8 -4.38,1.29 -6.16,1.79 -12.48,3.89 -18.8,5.68 -1.3,0.32 -2.43,0.65 -3.89,0.97 -6.65,1.95 -13.29,3.89 -19.93,5.51 -0.65,0.16 -1.46,0.49 -2.11,0.65 -37.6,10.05 -73.91,18 -107.95,24.48 -0.49,0 -0.98,0.16 -1.46,0.16 -6.16,1.13 -12.32,2.26 -18.48,3.4 -0.65,0.16 -1.29,0.16 -1.94,0.33 -6,0.97 -11.83,1.95 -17.67,2.91 -0.49,0.16 -0.98,0.16 -1.63,0.33 -5.99,0.81 -11.99,1.78 -17.99,2.76l-0.34 -0.02c-31.12,4.54 -59.16,7.46 -83.47,9.57l-0.16 0c-4.7,0.48 -9.24,0.8 -13.62,1.13l-0.97 0c-4.21,0.32 -8.1,0.65 -11.83,0.81l-1.29 0c-3.74,0.32 -7.3,0.48 -10.87,0.65 -0.32,0 -0.65,0.16 -0.81,0.16 -3.73,0.16 -7.13,0.32 -10.53,0.48l-0.33 0.01c-3.56,0.16 -6.97,0.32 -10.21,0.32l0 0.49 -23.18 0c-1.3,0 -2.76,0 -3.73,0.15 -0.81,0 -1.62,0 -2.27,-0.15l-1233.81 0c-0.81,0.15 -1.46,0.15 -2.43,0.15 -0.98,-0.15 -2.11,-0.15 -3.57,-0.15l-19.13 0 0 -0.33 -1.46 0c-1.62,-0.16 -3.41,-0.16 -5.19,-0.16 -1.46,-0.16 -3.24,-0.16 -4.86,-0.16 -1.3,-0.16 -2.76,-0.16 -4.22,-0.32 -2.75,0 -5.51,-0.16 -8.43,-0.33 -0.65,0 -1.13,0 -1.62,-0.16 -104.88,-5.51 -342.49,-31.93 -557.26,-153.33 -214.61,-121.25 -406.36,-337.47 -419.33,-722.59l-0.48 -25.29 -0.16 0 0 -1484.42 0.17 0 0.48 -25.28c25.94,-770.24 766.68,-864.74 976.59,-875.93 0.49,0 0.98,0 1.62,-0.16 2.92,-0.16 5.68,-0.16 8.43,-0.32 1.46,-0.16 2.92,-0.16 4.22,-0.16 1.62,-0.16 3.41,-0.16 4.86,-0.16 1.79,-0.16 3.57,-0.16 5.19,-0.16 0.49,-0.16 1.14,-0.16 1.46,-0.16l0 -0.32 1287.46 -0.01 0 0.48c3.41,0.16 6.81,0.32 10.37,0.32 0.16,0.16 0.33,0.16 0.33,0.16 3.4,0 6.8,0.16 10.53,0.49l0.81 0c3.57,0.16 7.13,0.33 10.87,0.65l1.29 0c3.89,0.33 7.62,0.49 11.83,0.81 0.33,0 0.65,0 0.98,0.16 4.37,0.33 8.91,0.65 13.62,0.97l0.16 0c24.31,1.95 52.35,5.03 83.47,9.57l0.33 0c5.99,0.81 11.99,1.78 17.99,2.91 0.65,0 1.13,0.16 1.62,0.16 5.84,0.98 11.67,1.79 17.67,2.92 0.65,0.16 1.3,0.32 1.95,0.32 6,1.14 12.15,2.11 18.47,3.41 0.49,0.16 0.98,0.16 1.46,0.32 33.88,6.16 70.18,14.27 107.95,24.32 0.65,0.32 1.46,0.48 2.11,0.65 6.65,1.78 13.29,3.73 19.93,5.51 1.3,0.33 2.44,0.81 3.89,1.14 6.16,1.78 12.48,3.73 18.81,5.51 1.45,0.48 2.91,0.97 4.37,1.3 6.16,1.95 12.48,4.05 19.13,6.15 1.13,0.33 2.43,0.81 3.89,1.14 6.64,2.26 13.61,4.7 20.42,6.97 0.81,0.32 1.62,0.48 2.43,0.81 23.5,8.43 47.17,17.51 71,27.71 0.65,0.16 1.13,0.49 1.78,0.81 6.97,3.08 14.1,6 21.08,9.41 1.62,0.64 3.24,1.45 4.86,2.1 6,2.92 11.99,5.68 18.15,8.76 1.95,0.81 4.05,1.78 6,2.91 5.67,2.92 11.19,5.68 16.86,8.76 2.11,0.97 4.37,2.11 6.48,3.4 5.51,2.92 11.19,5.84 16.69,9.08 1.95,1.14 4.22,2.27 6.16,3.57 5.84,3.24 11.51,6.48 17.34,9.89 1.79,1.13 3.57,2.1 5.35,3.24 6.65,4.05 13.3,8.1 19.94,12.15 0.81,0.49 1.62,0.98 2.43,1.62 15.08,9.57 30.15,19.78 44.9,30.32 1.3,1.13 2.91,2.26 4.37,3.4 5.67,4.22 11.35,8.43 16.86,12.65 2.11,1.62 4.37,3.56 6.48,5.19 4.87,3.89 9.73,7.62 14.59,11.67 2.27,1.94 4.7,4.05 7.13,5.99 4.54,3.89 9.08,7.63 13.45,11.67 2.43,2.11 5.03,4.38 7.46,6.49 4.37,4.05 8.75,8.1 12.8,11.99 2.43,2.27 4.87,4.7 7.13,6.81 4.54,4.37 8.76,8.75 12.97,12.97 2.11,2.26 4.38,4.54 6.48,6.64 4.87,5.03 9.57,10.05 14.11,15.24 1.62,1.62 3.4,3.56 5.02,5.35 12.48,14.1 24.64,28.53 36.31,43.76 1.62,2.27 3.41,4.7 5.02,6.97 4.05,5.35 8.11,10.7 11.83,16.21 2.11,3.09 4.22,6 6.16,9.08 3.56,5.03 6.81,10.05 10.21,15.08 2.11,3.41 4.22,6.65 6.32,10.21 3.09,4.87 6.16,10.05 9.24,15.08 2.11,3.56 4.22,7.13 6.16,10.7 3.08,5.18 5.84,10.37 8.75,15.56 1.95,3.73 4.05,7.29 6,11.18 2.92,5.35 5.51,10.86 8.27,16.37 1.78,3.73 3.73,7.3 5.51,11.19 2.91,6 5.51,12.15 8.26,18.32 1.46,3.4 3.08,6.64 4.54,10.21 3.73,8.75 7.3,17.67 10.7,26.74 0.65,1.46 1.13,2.92 1.62,4.22 3.57,9.56 6.97,19.13 10.21,29.01 1.3,3.73 2.44,7.46 3.74,11.35 2.1,6.65 4.21,13.45 6.15,20.26 1.3,4.54 2.43,9.08 3.89,13.62 1.63,6.48 3.41,12.8 5.03,19.45 1.13,4.86 2.26,9.73 3.56,14.58 1.46,6.48 2.92,12.81 4.38,19.61 0.97,5.03 1.94,10.05 3.08,15.24 1.3,6.65 2.43,13.45 3.73,20.1 0.81,5.19 1.62,10.37 2.43,15.72 1.13,6.97 1.95,14.1 3.08,21.07 0.65,5.19 1.46,10.37 1.95,15.72 0.97,7.62 1.62,15.56 2.43,23.34 0.49,4.87 0.98,9.73 1.3,14.59 0.81,10.37 1.46,21.07 2.11,31.61 0.16,2.75 0.32,5.34 0.48,8.1 0.49,12.15 0.98,24.8 1.14,37.28l0.33 -0.02 0.49 0.16z"/>
   </clipPath>
 </defs>
 <g id="Capa_x0020_1">
  <metadata id="CorelCorpID_0Corel-Layer"/>
  <g>
  </g>
  <g style="clip-path:url(#id0)">
   <g id="_1893881340016">
    <rect class="fil0" x="-72.03" y="618.75" width="1670.49" height="1670.49"/>
    <g>
     <path class="fil1" d="M1036.02 1545.25c0,0 3.4,-4.22 2.91,-8.43l-2.91 8.43zm0 0l0 0 0 0z"/>
    </g>
    <rect class="fil1" transform="matrix(0.478106 -0.383035 0.383035 0.478106 1069.82 1933.98)" width="605.37" height="280.46"/>
    <rect class="fil1" transform="matrix(0.478106 -0.383035 0.383035 0.478106 1203.01 2100.27)" width="605.37" height="635"/>
    <path class="fil1" d="M576.66 1021.87c-231.95,185.92 -269.4,524.68 -83.48,756.63 185.92,231.95 524.68,269.4 756.63,83.48 231.95,-185.92 269.4,-524.69 83.48,-756.64 -185.92,-231.94 -524.68,-269.39 -756.63,-83.47zm588.37 734.26c-173.43,139.07 -426.94,111.03 -565.85,-62.4 -138.91,-173.43 -111.03,-426.94 62.4,-565.85 173.44,-139.07 426.94,-111.03 565.86,62.4 139.07,173.43 111.03,426.94 -62.41,565.85z"/>
    <path class="fil1" d="M711.67 1603.6c-77.15,-96.28 -118.16,-206.02 -121.57,-304.56 -51.38,116.7 -37.76,257.39 47.49,363.89 85.26,106.49 219.63,150.41 344.77,125.61 -95.31,-24.96 -193.53,-88.82 -270.69,-185.1l0 0.16z"/>
    <path class="fil1" d="M1115.6 1253.81c34.2,32.91 55.27,72.62 61.59,110.06 13.78,-47.17 1.63,-100.01 -36.31,-136.31 -37.76,-36.31 -91.25,-46.36 -137.77,-30.8 37.6,4.7 78.28,24.15 112.49,57.05l0 0z"/>
    <rect class="fil2" x="-72.03" y="2291.18" width="1670.49" height="1670.49"/>
    <rect class="fil3" x="1598.46" y="618.75" width="1670.49" height="1670.49"/>
    <rect class="fil4" x="1598.46" y="2291.18" width="1670.49" height="1670.49"/>
    <path class="fil5" d="M1076.54 1303.74c0,0 21.55,30.47 54.94,25.45"/>
    <polygon class="fil6" points="1124.19,3534.24 253.94,3454.33 253.94,2548.09 1127.6,2597.05 "/>
    <polygon class="fil7" points="1345.6,3382.53 1124.19,3534.24 1127.6,2597.05 1357.27,2513.89 "/>
    <polygon class="fil7" points="1127.6,2597.05 253.94,2548.09 535.48,2471.42 1357.27,2513.89 "/>
    <polygon class="fil8" points="1127.6,2597.05 1264.39,2870.81 1357.27,2513.89 "/>
    <path class="fil9" d="M2229.64 1263.54c0,0 -352.87,-66.94 -377.19,360 0,0 -2.91,419.81 459.69,476.7 0,0 461.14,35.5 550.77,-408.46 0,0 45.55,-300.35 -187.86,-414.14 0,0 -202.12,-86.88 -445.42,-14.26l0.01 0.16z"/>
    <path class="fil10" d="M2307.92 1100.48c0,0 -50.57,-6.48 -41.98,28.53 0,0 58.35,36.31 62.57,194.18l3.56 16.37 66.14 4.22 27.71 -10.7 -34.2 -28.53c0,0 -25.61,-140.85 -83.96,-204.23l0.16 0.16z"/>
    <g>
     <path class="fil10" d="M2275.83 1125.11c0,0 18.15,-3.89 25.93,-16.37l-25.93 16.37zm0 0l0 0 0 0z"/>
    </g>
    <path class="fil10" d="M2374.06 1331.13c0,0 191.42,-14.91 118.16,177.16 0,0 -20.59,-123.83 -151.56,-155.76l33.39 -21.4 0.01 0z"/>
    <path class="fil10" d="M2369.84 1341.99l-59 -19.45c0,0 -211.37,22.04 -228.38,214.12 0,0 101.79,-146.69 287.38,-194.67z"/>
    <path class="fil10" d="M2332.07 1302.6c0,0 -124.48,-114.44 -263.23,28.21 0,0 107.47,-65.16 268.26,4.54l-5.02 -32.75 -0.01 0z"/>
    <path class="fil10" d="M2340.67 1259.17c0,0 -80.4,-68.24 -167.28,-53.33 0,0 74.72,0 149.45,102.44l32.1 -14.26 -14.27 -34.85 0 0z"/>
    <path class="fil10" d="M2366.28 1302.6c0,0 68.24,-127.4 232.59,-119.62 0,0 -69.69,5.67 -177.81,135.18l-54.78 -15.72 0 0.16z"/>
    <path class="fil10" d="M2421.71 1343.94c0,0 72.62,-61.92 296.78,-96.77 0,0 -125.29,-56.9 -321.58,71.15l24.97 25.61 -0.17 0.01z"/>
    <path class="fil11" d="M2683.16 3492.59c-89.47,27.07 -168.73,56.24 -375.08,56.24 -248.81,0 -293.06,-28.69 -383.82,-56.24l0 -892.63 758.9 0 0 892.63z"/>
    <path class="fil12" d="M2699.37 2578.73l-795.05 0 0 40.52c126.11,7.3 259.18,11.52 398.75,11.35 138.58,0 270.85,-4.21 396.3,-11.35l0 -40.52 0 0z"/>
    <ellipse class="fil13" cx="2301.12" cy="2579.54" rx="392.09" ry="11.35"/>
    <path class="fil14" d="M1924.42 3450.12l-15.23 12.48 0 31.28c0,0 50.25,61.27 394.68,61.27 344.44,0 389.99,-63.7 389.99,-63.7l0 -24.97 -10.7 -16.21c0,0 40.69,86.23 -379.45,86.23 -420.13,0 -379.44,-86.23 -379.44,-86.23l0.15 -0.15z"/>
    <circle class="fil15" cx="2301.12" cy="3049.76" r="267.6"/>
    <circle class="fil9" cx="2301.12" cy="3049.76" r="187.38"/>
    <path class="fil5 str0" d="M1924.42 2694.3c0,0 143.46,27.72 379.45,27.72 236,0 379.45,-17.67 379.45,-17.67"/>
    <path class="fil5 str0" d="M1924.42 2750.38c0,0 143.46,27.71 379.45,27.71 236,0 379.45,-17.66 379.45,-17.66"/>
    <path class="fil5 str0" d="M1924.42 2810.68c0,0 143.46,27.71 379.45,27.71 236,0 379.45,-17.66 379.45,-17.66"/>
    <path class="fil5 str0" d="M1924.42 2866.6c0,0 143.46,27.71 379.45,27.71 236,0 379.45,-17.66 379.45,-17.66"/>
    <path class="fil5 str0" d="M1924.42 2922.68c0,0 143.46,27.71 379.45,27.71 236,0 379.45,-17.66 379.45,-17.66"/>
    <path class="fil5 str0" d="M1924.42 2978.6c0,0 143.46,27.72 379.45,27.72 236,0 379.45,-17.67 379.45,-17.67"/>
    <path class="fil5 str0" d="M1924.42 3038.9c0,0 143.46,27.71 379.45,27.71 236,0 379.45,-17.66 379.45,-17.66"/>
    <path class="fil5 str0" d="M1924.42 3094.98c0,0 143.46,37.45 379.45,37.45 236,0 379.45,-27.39 379.45,-27.39"/>
    <path class="fil5 str0" d="M1924.42 3150.9c0,0 143.46,41.99 379.45,41.99 236,0 379.45,-31.93 379.45,-31.93"/>
    <path class="fil5 str0" d="M1924.42 3206.98c0,0 143.46,39.88 379.45,39.88 236,0 379.45,-29.82 379.45,-29.82"/>
    <path class="fil5 str0" d="M1924.42 3267.28c0,0 143.46,41.99 379.45,41.99 236,0 379.45,-31.93 379.45,-31.93"/>
    <path class="fil5 str0" d="M1924.42 3323.36c0,0 143.46,41.98 379.45,41.98 236,0 379.45,-31.93 379.45,-31.93"/>
    <path class="fil5 str0" d="M1924.42 3379.29c0,0 143.46,41.98 379.45,41.98 236,0 379.45,-31.93 379.45,-31.93"/>
    <path class="fil5 str0" d="M1924.42 3435.37c0,0 143.46,41.98 379.45,41.98 236,0 379.45,-31.93 379.45,-31.93"/>
    <circle class="fil16" cx="690.76" cy="3023.99" r="280.41"/>
    <circle class="fil6" cx="690.76" cy="3023.99" r="158.52"/>
   </g>
  </g>
  <path class="fil17" d="M3240.75 1528.39l0 1471.45 0 0 0 21.07 -0.33 0c-0.16,12.64 -0.65,25.12 -1.13,37.27 -0.16,2.76 -0.33,5.35 -0.49,8.11 -0.65,10.69 -1.29,21.23 -2.1,31.6 -0.33,5.03 -0.81,9.73 -1.3,14.59 -0.81,7.78 -1.46,15.72 -2.43,23.34 -0.49,5.35 -1.3,10.54 -1.95,15.72 -0.98,6.97 -1.79,14.26 -3.08,21.07 -0.81,5.35 -1.63,10.54 -2.44,15.72 -1.13,6.81 -2.26,13.62 -3.73,20.1 -0.97,5.19 -1.94,10.22 -3.08,15.41 -1.46,6.48 -2.91,12.96 -4.37,19.45 -1.14,4.86 -2.27,9.88 -3.57,14.58 -1.62,6.48 -3.4,12.97 -5.02,19.45 -1.3,4.54 -2.43,9.08 -3.89,13.62 -1.95,6.81 -4.05,13.62 -6.16,20.26 -1.13,3.89 -2.26,7.62 -3.73,11.35 -3.24,9.88 -6.65,19.45 -10.21,29.01 -0.49,1.3 -0.98,2.92 -1.62,4.22 -3.41,9.23 -6.98,17.99 -10.7,26.9 -1.46,3.41 -3.08,6.65 -4.54,10.05 -2.76,6.16 -5.35,12.32 -8.26,18.48 -1.79,3.89 -3.74,7.45 -5.52,11.18 -2.76,5.52 -5.35,11.02 -8.26,16.54 -1.95,3.73 -4.05,7.29 -6,11.02 -2.92,5.19 -5.67,10.37 -8.75,15.56 -1.95,3.73 -4.05,7.13 -6.16,10.69 -3.08,5.19 -6.16,10.22 -9.24,15.24 -2.11,3.41 -4.21,6.65 -6.32,10.05 -3.41,5.02 -6.65,10.21 -10.21,15.07 -1.95,3.08 -4.05,6.16 -6.16,9.08 -3.89,5.52 -7.78,10.86 -11.83,16.21 -1.62,2.27 -3.41,4.7 -5.02,6.97 -11.67,15.24 -23.83,29.83 -36.31,43.77 -1.63,1.78 -3.41,3.73 -5.03,5.51 -4.54,5.03 -9.24,10.05 -14.1,15.08 -2.11,2.27 -4.37,4.54 -6.48,6.65 -4.38,4.37 -8.59,8.75 -12.97,12.97 -2.27,2.26 -4.7,4.54 -7.13,6.8 -4.22,4.05 -8.59,8.11 -12.81,12 -2.43,2.1 -5.02,4.37 -7.45,6.64 -4.38,3.89 -8.91,7.62 -13.45,11.51 -2.44,1.95 -4.87,4.22 -7.13,6 -4.87,4.05 -9.73,7.78 -14.59,11.67 -2.11,1.79 -4.38,3.57 -6.48,5.19 -5.52,4.38 -11.19,8.59 -16.86,12.65 -1.46,1.13 -3.08,2.1 -4.38,3.4 -14.75,10.7 -29.82,20.75 -44.9,30.47 -0.8,0.49 -1.62,0.98 -2.43,1.46 -6.64,4.22 -13.29,8.27 -19.93,12.16 -1.78,1.13 -3.57,2.1 -5.35,3.24 -5.84,3.4 -11.51,6.64 -17.34,10.04 -1.95,1.14 -4.22,2.27 -6.16,3.41 -5.51,3.24 -11.19,6.16 -16.69,9.08l-6.49 3.56c-5.67,2.92 -11.18,5.68 -16.85,8.59 -1.95,0.98 -4.05,1.95 -6,3.08 -6.16,2.92 -12.16,5.68 -18.15,8.59 -1.63,0.81 -3.24,1.46 -4.87,2.27 -6.97,3.24 -14.1,6.16 -21.07,9.4 -0.65,0.16 -1.14,0.49 -1.79,0.65 -23.82,10.22 -47.33,19.45 -70.99,27.72 -0.81,0.32 -1.62,0.48 -2.43,0.81 -6.81,2.43 -13.78,4.86 -20.43,6.97 -1.3,0.48 -2.76,0.81 -3.89,1.3 -6.48,1.95 -12.8,4.05 -19.12,6 -1.46,0.48 -2.92,0.8 -4.38,1.29 -6.16,1.79 -12.48,3.89 -18.8,5.68 -1.3,0.32 -2.43,0.65 -3.89,0.97 -6.65,1.95 -13.29,3.89 -19.93,5.51 -0.65,0.16 -1.46,0.49 -2.11,0.65 -37.6,10.05 -73.91,18 -107.95,24.48 -0.49,0 -0.98,0.16 -1.46,0.16 -6.16,1.13 -12.32,2.26 -18.48,3.4 -0.65,0.16 -1.29,0.16 -1.94,0.33 -6,0.97 -11.83,1.95 -17.67,2.91 -0.49,0.16 -0.98,0.16 -1.63,0.33 -5.99,0.81 -11.99,1.78 -17.99,2.76l-0.34 -0.02c-31.12,4.54 -59.16,7.46 -83.47,9.57l-0.16 0c-4.7,0.48 -9.24,0.8 -13.62,1.13l-0.97 0c-4.21,0.32 -8.1,0.65 -11.83,0.81l-1.29 0c-3.74,0.32 -7.3,0.48 -10.87,0.65 -0.32,0 -0.65,0.16 -0.81,0.16 -3.73,0.16 -7.13,0.32 -10.53,0.48l-0.33 0.01c-3.56,0.16 -6.97,0.32 -10.21,0.32l0 0.49 -23.18 0c-1.3,0 -2.76,0 -3.73,0.15 -0.81,0 -1.62,0 -2.27,-0.15l-1233.81 0c-0.81,0.15 -1.46,0.15 -2.43,0.15 -0.98,-0.15 -2.11,-0.15 -3.57,-0.15l-19.13 0 0 -0.33 -1.46 0c-1.62,-0.16 -3.41,-0.16 -5.19,-0.16 -1.46,-0.16 -3.24,-0.16 -4.86,-0.16 -1.3,-0.16 -2.76,-0.16 -4.22,-0.32 -2.75,0 -5.51,-0.16 -8.43,-0.33 -0.65,0 -1.13,0 -1.62,-0.16 -104.88,-5.51 -342.49,-31.93 -557.26,-153.33 -214.61,-121.25 -406.36,-337.47 -419.33,-722.59l-0.48 -25.29 -0.16 0 0 -1484.42 0.17 0 0.48 -25.28c25.94,-770.24 766.68,-864.74 976.59,-875.93 0.49,0 0.98,0 1.62,-0.16 2.92,-0.16 5.68,-0.16 8.43,-0.32 1.46,-0.16 2.92,-0.16 4.22,-0.16 1.62,-0.16 3.41,-0.16 4.86,-0.16 1.79,-0.16 3.57,-0.16 5.19,-0.16 0.49,-0.16 1.14,-0.16 1.46,-0.16l0 -0.32 1287.46 -0.01 0 0.48c3.41,0.16 6.81,0.32 10.37,0.32 0.16,0.16 0.33,0.16 0.33,0.16 3.4,0 6.8,0.16 10.53,0.49l0.81 0c3.57,0.16 7.13,0.33 10.87,0.65l1.29 0c3.89,0.33 7.62,0.49 11.83,0.81 0.33,0 0.65,0 0.98,0.16 4.37,0.33 8.91,0.65 13.62,0.97l0.16 0c24.31,1.95 52.35,5.03 83.47,9.57l0.33 0c5.99,0.81 11.99,1.78 17.99,2.91 0.65,0 1.13,0.16 1.62,0.16 5.84,0.98 11.67,1.79 17.67,2.92 0.65,0.16 1.3,0.32 1.95,0.32 6,1.14 12.15,2.11 18.47,3.41 0.49,0.16 0.98,0.16 1.46,0.32 33.88,6.16 70.18,14.27 107.95,24.32 0.65,0.32 1.46,0.48 2.11,0.65 6.65,1.78 13.29,3.73 19.93,5.51 1.3,0.33 2.44,0.81 3.89,1.14 6.16,1.78 12.48,3.73 18.81,5.51 1.45,0.48 2.91,0.97 4.37,1.3 6.16,1.95 12.48,4.05 19.13,6.15 1.13,0.33 2.43,0.81 3.89,1.14 6.64,2.26 13.61,4.7 20.42,6.97 0.81,0.32 1.62,0.48 2.43,0.81 23.5,8.43 47.17,17.51 71,27.71 0.65,0.16 1.13,0.49 1.78,0.81 6.97,3.08 14.1,6 21.08,9.41 1.62,0.64 3.24,1.45 4.86,2.1 6,2.92 11.99,5.68 18.15,8.76 1.95,0.81 4.05,1.78 6,2.91 5.67,2.92 11.19,5.68 16.86,8.76 2.11,0.97 4.37,2.11 6.48,3.4 5.51,2.92 11.19,5.84 16.69,9.08 1.95,1.14 4.22,2.27 6.16,3.57 5.84,3.24 11.51,6.48 17.34,9.89 1.79,1.13 3.57,2.1 5.35,3.24 6.65,4.05 13.3,8.1 19.94,12.15 0.81,0.49 1.62,0.98 2.43,1.62 15.08,9.57 30.15,19.78 44.9,30.32 1.3,1.13 2.91,2.26 4.37,3.4 5.67,4.22 11.35,8.43 16.86,12.65 2.11,1.62 4.37,3.56 6.48,5.19 4.87,3.89 9.73,7.62 14.59,11.67 2.27,1.94 4.7,4.05 7.13,5.99 4.54,3.89 9.08,7.63 13.45,11.67 2.43,2.11 5.03,4.38 7.46,6.49 4.37,4.05 8.75,8.1 12.8,11.99 2.43,2.27 4.87,4.7 7.13,6.81 4.54,4.37 8.76,8.75 12.97,12.97 2.11,2.26 4.38,4.54 6.48,6.64 4.87,5.03 9.57,10.05 14.11,15.24 1.62,1.62 3.4,3.56 5.02,5.35 12.48,14.1 24.64,28.53 36.31,43.76 1.62,2.27 3.41,4.7 5.02,6.97 4.05,5.35 8.11,10.7 11.83,16.21 2.11,3.09 4.22,6 6.16,9.08 3.56,5.03 6.81,10.05 10.21,15.08 2.11,3.41 4.22,6.65 6.32,10.21 3.09,4.87 6.16,10.05 9.24,15.08 2.11,3.56 4.22,7.13 6.16,10.7 3.08,5.18 5.84,10.37 8.75,15.56 1.95,3.73 4.05,7.29 6,11.18 2.92,5.35 5.51,10.86 8.27,16.37 1.78,3.73 3.73,7.3 5.51,11.19 2.91,6 5.51,12.15 8.26,18.32 1.46,3.4 3.08,6.64 4.54,10.21 3.73,8.75 7.3,17.67 10.7,26.74 0.65,1.46 1.13,2.92 1.62,4.22 3.57,9.56 6.97,19.13 10.21,29.01 1.3,3.73 2.44,7.46 3.74,11.35 2.1,6.65 4.21,13.45 6.15,20.26 1.3,4.54 2.43,9.08 3.89,13.62 1.63,6.48 3.41,12.8 5.03,19.45 1.13,4.86 2.26,9.73 3.56,14.58 1.46,6.48 2.92,12.81 4.38,19.61 0.97,5.03 1.94,10.05 3.08,15.24 1.3,6.65 2.43,13.45 3.73,20.1 0.81,5.19 1.62,10.37 2.43,15.72 1.13,6.97 1.95,14.1 3.08,21.07 0.65,5.19 1.46,10.37 1.95,15.72 0.97,7.62 1.62,15.56 2.43,23.34 0.49,4.87 0.98,9.73 1.3,14.59 0.81,10.37 1.46,21.07 2.11,31.61 0.16,2.75 0.32,5.34 0.48,8.1 0.49,12.15 0.98,24.8 1.14,37.28l0.33 -0.02 0.49 0.16z"/>
 </g>
</svg>
