<?xml version="1.0" encoding="UTF-8"?>
<!DOCTYPE svg PUBLIC "-//W3C//DTD SVG 1.1//EN" "http://www.w3.org/Graphics/SVG/1.1/DTD/svg11.dtd">
<!-- Creator: CorelDRAW -->
<svg xmlns="http://www.w3.org/2000/svg" xml:space="preserve" width="83mm" height="14.5mm" version="1.1" style="shape-rendering:geometricPrecision; text-rendering:geometricPrecision; image-rendering:optimizeQuality; fill-rule:evenodd; clip-rule:evenodd"
viewBox="0 0 8300 1450"
 xmlns:xlink="http://www.w3.org/1999/xlink"
 xmlns:xodm="http://www.corel.com/coreldraw/odm/2003">
 <defs>
  <style type="text/css">
   <![CDATA[
    .fil2 {fill:#0B8231}
    .fil9 {fill:#288A22}
    .fil6 {fill:#45BEB2}
    .fil4 {fill:#96C73E}
    .fil10 {fill:#A6E2DB}
    .fil0 {fill:#A8EC6B}
    .fil14 {fill:#D4FEFD}
    .fil8 {fill:#E52326}
    .fil13 {fill:#EAA668}
    .fil5 {fill:#F086B4}
    .fil11 {fill:#F08E94}
    .fil3 {fill:#F3E918}
    .fil12 {fill:#F6B766}
    .fil1 {fill:#FAF406}
    .fil7 {fill:#FCFFFD}
   ]]>
  </style>
 </defs>
 <g id="Capa_x0020_1">
  <metadata id="CorelCorpID_0Corel-Layer"/>
  <g id="_1893886175152">
   <g>
    <path class="fil0" d="M1749.5 780.17c80.31,52.27 606.12,43.13 710.37,15.2 -23.97,-23.52 2.6,-17.27 -45.42,-21.74 -0.56,-0.05 -42.49,4.21 -46.69,4.59 -188.75,17.17 -600.99,-10.81 -618.26,1.95z"/>
    <path class="fil0" d="M1748.15 826.81c40.74,52.19 298.72,45.33 359.94,45.22 72.18,-0.14 306.1,2.95 356.67,-27.6 -62.41,-21.22 -285.5,3.36 -371.91,2.5 -120.17,-1.21 -227.63,-14.49 -344.7,-20.12z"/>
   </g>
   <g>
    <path class="fil1" d="M3283.95 643.24c-54.37,108.08 -112.91,219.15 -165.09,326.7 -42.6,87.82 -153.61,220.47 -166.24,306.27 60.89,14.72 63.86,3.78 116.19,-26.56 -25.32,1.46 -38.18,8.29 -37.23,-33.67l131.69 -238.23c22.04,-58.8 45.42,-129.36 93.29,-168.86l2.5 -17.15 70.51 -134.99c31.49,55.61 6.56,52.8 58.21,113.39l123.07 -3.24c50.21,-52.78 82.19,-136.08 7.27,-172.92 -102.73,1.34 -67.27,-24.38 -164.15,29.5l-20.73 -45.03 7.27 13.79c-47.17,65.83 3.11,20.42 -56.56,51z"/>
    <path class="fil1" d="M3279.88 831.34c-61.67,89.68 -80.94,89.57 -37.2,209.94l27.07 27.77c118.66,8.53 99.86,-2.22 189.89,-45.21 31.54,-144.39 -33.44,-218.81 -179.76,-192.5z"/>
    <path class="fil1" d="M3594.42 846.24c-14.02,88.78 26.44,129 110.31,81.58l1.39 -93.4c-47.94,-15.4 -79.31,-17.2 -111.7,11.82z"/>
   </g>
   <g>
    <path class="fil2" d="M1698.93 339.3l55.53 35.66c186.29,-12.16 609.6,15.48 757.43,-17.92l-4.39 -62.03c-212.78,-15.21 -604.45,-25.55 -807.37,1.78l-1.2 42.51z"/>
    <path class="fil2" d="M2459.88 1190.62c-110.33,60.16 -647.47,92.82 -708.28,-21.59l-45.33 5.76 -0.95 51c141.89,93.07 648.61,91.75 797.1,5.39l-1.26 -55.76 -41.28 15.2z"/>
   </g>
   <g>
    <path class="fil3" d="M2511.89 357.04c-26.22,79.81 -16.41,695.18 -10.73,818.38l1.26 55.76c-148.49,86.36 -655.21,87.68 -797.1,-5.39l0.95 -51c16.92,-108.93 19.08,-746.38 -7.34,-835.49l1.2 -42.51c202.92,-27.33 594.59,-16.99 807.37,-1.78l4.39 62.03zm-1117.55 1061.73l1416.63 0 2.02 -456.85 208.4 -212.17c-38.52,-76.37 -151.46,-153.91 -210.06,-228.23l-0.27 -455.99 -1415.93 0 0.31 426.04c18.39,65.76 178.19,197.48 232.28,264.18 -46.14,17.99 -195.86,176.57 -233.33,222.26l-0.05 440.76z"/>
    <path class="fil3" d="M1751.6 1169.03c60.81,114.41 597.95,81.75 708.28,21.59l-1.2 -297.91c-121.99,1.53 -241.81,11.21 -365.83,11.44 -85.91,0.15 -274.27,-23.07 -343.37,-11.21l2.12 276.09z"/>
    <path class="fil3" d="M1749.08 666.79c138.64,46.29 556.17,39.38 705.12,15.1l8.67 -307.59 -712.56 4.12 -1.23 288.37z"/>
    <path class="fil3" d="M4034.97 923.88c-60.34,-0.26 -283.5,-349.76 -419.87,-491.37 -116.72,-121.18 -134.97,-119.92 -102.68,-169.66 83.41,-36.71 553.86,523.15 522.55,661.03zm-751.02 -280.64c59.67,-30.58 9.39,14.83 56.56,-51l-7.27 -13.79 20.73 45.03c96.88,-53.88 61.42,-28.16 164.15,-29.5 -38.06,-58.19 -88.61,-36.63 -150.94,-26.45l83.5 -187.24c74.51,17.31 206.28,219.6 254.23,281.63 66.53,86.03 192.57,215.58 237.04,305.61l-414.36 82.04c-48.32,34.27 -68.48,35.47 -124.73,47.1 -52.02,10.76 -94.17,31.53 -149.07,48.33 -87.23,9.87 -154.26,64.37 -222.21,70.98 -0.95,41.96 11.91,35.13 37.23,33.67l519.98 -161.8c165.2,-43.33 475.28,-65.92 506.43,-164.24 37.28,-117.71 -296.59,-490.59 -395.52,-590.54 -127.18,-128.45 -133.19,-129.98 -229.41,-121.76l-186.34 431.93z"/>
   </g>
   <g>
    <path class="fil4" d="M620.81 392.27c0.32,-80.27 -41.29,-78.13 -47.76,-139.39 99.47,-23.39 93.64,92.98 133.97,163.36 56.02,-35.27 78.32,-65.93 148.37,-71.82 -2.16,42.22 -10.11,56.4 -49.97,77.89 76.52,-1.68 59.03,-40.29 164.87,-21.92l-37.23 58.72c239.09,55.24 299.75,368.24 194.66,561.31 -104.91,192.8 -334.34,303.28 -559.15,247.6 -242.98,-60.16 -387.63,-229.21 -373.39,-488.09 6.67,-121.7 48.82,-219.04 152.2,-281.21 254.87,-153.25 87.7,-35.22 222.93,-99.48 9.45,-4.5 -11.12,-36.75 50.5,-6.97zm-632.24 1026.5l1405.77 0 0.05 -440.76c37.47,-45.69 187.19,-204.27 233.33,-222.26 -54.09,-66.7 -213.89,-198.42 -232.28,-264.18l-0.31 -426.04 -1406.56 0 0 1353.24z"/>
    <path class="fil4" d="M835.35 651.48c-54.37,-7 -32.27,-23.92 -72.43,-65.67 -26.1,-27.11 -52.98,-37.21 -86.62,-71.26 -164.87,39.23 -217.06,155.09 -290.46,157.95 -0.72,-53.11 48.64,-124.22 97.39,-141.16 -348.12,6.01 -284.58,742.73 251.15,670.94 504.28,-67.59 455.85,-738.2 56.09,-689.38 54.22,24.6 55.93,81.01 44.88,138.58z"/>
   </g>
   <g>
    <path class="fil5" d="M3068.81 1249.65c-52.33,30.34 -55.3,41.28 -116.19,26.56 12.63,-85.8 123.64,-218.45 166.24,-306.27 52.18,-107.55 110.72,-218.62 165.09,-326.7l186.34 -431.93c96.22,-8.22 102.23,-6.69 229.41,121.76 98.93,99.95 432.8,472.83 395.52,590.54 -31.15,98.32 -341.23,120.91 -506.43,164.24l-519.98 161.8zm-257.84 169.12l1432.13 0 0.17 -455.5 214.45 -211.12c-41.7,-80.79 -162,-157.05 -212.71,-232.72l-2.45 -453.9 -1431.5 0 0.27 455.99c58.6,74.32 171.54,151.86 210.06,228.23l-208.4 212.17 -2.02 456.85z"/>
    <path class="fil5" d="M3594.42 846.24c32.39,-29.02 63.76,-27.22 111.7,-11.82l-1.39 93.4c-83.87,47.42 -124.33,7.2 -110.31,-81.58zm-76.3 -252.26c74.92,36.84 42.94,120.14 -7.27,172.92l-25.21 44.43c-109.21,-3.76 -47.38,-16.16 -111.93,-39.35 -46.66,-16.77 -80.15,-10.73 -114.65,19.76l-2.5 17.15 0.63 27.87 22.69 -5.42c146.32,-26.31 211.3,48.11 179.76,192.5l-6.14 46.2 74.09 -20.47 414.36 -82.04c-44.47,-90.03 -170.51,-219.58 -237.04,-305.61 -47.95,-62.03 -179.72,-264.32 -254.23,-281.63l-83.5 187.24c62.33,-10.18 112.88,-31.74 150.94,26.45z"/>
    <path class="fil5" d="M3512.42 262.85c-32.29,49.74 -14.04,48.48 102.68,169.66 136.37,141.61 359.53,491.11 419.87,491.37 31.31,-137.88 -439.14,-697.74 -522.55,-661.03z"/>
    <path class="fil5" d="M3031.58 1215.98c67.95,-6.61 134.98,-61.11 222.21,-70.98l56.9 -42.12 -40.94 -33.83 -27.07 -27.77 -29.17 -9.5 -13.94 -71.28 -36.3 17.25 -131.69 238.23z"/>
   </g>
   <g>
    <path class="fil6" d="M6146.26 1079.63c-22.76,38.99 -134.62,18.21 -181.18,23.01l-4.13 191.35 352.27 2.91 4 -1074.47c74.28,-25.33 382.06,-28.5 432.3,11.32 91.49,36.05 66.95,139.48 66.73,227.1 -0.25,101.37 -0.05,202.74 -0.05,304.11 0,399.91 -3.57,298.11 -267.87,331.6l-2.55 205.17 364.96 2.1c22.7,-247.27 4.36,-589.02 3.76,-842.98 -0.39,-175.65 -25.03,-241.76 179.56,-240.45 162.36,1.06 258.11,-46.59 316.92,108.39 145.87,-55.29 153.34,-149.85 384.33,-123.7 279.18,31.6 461.11,331.65 355.62,594.33 -71.31,177.6 -128.95,157.17 -247,254.38l-1.46 103.78 -315.21 4.03 -6.84 -107.66 -166.4 -108.43 -6.46 354.42 171.66 3.68 5.7 -126.8 317.66 -4.39 0.3 125.95 224.73 9.01c-56.85,37.9 -2904.15,15.14 -3503.87,19.62 -16,0.11 -47.36,1.84 -61.45,0.23 -73.1,-8.27 -18.9,-0.03 -39.5,-14.34l72.47 -9.32c-64.1,-180.98 -39.77,-279.92 -40.24,-523.41 -0.33,-173.64 -10.01,-383.38 2.71,-552.97l213.36 -7.21 5.09 757.98c-0.74,60.7 -7.48,68.53 15.64,109.36 40.94,-18.28 30.65,22.44 36.24,-62.25l-0.27 -300.79 217.48 -3.78c7.19,102.7 2.68,203.76 2.89,302.94 0.29,141.3 21.67,156.03 -44.86,276.58l187.08 3.84c-85.8,-139.74 -45.2,-362.38 -45.2,-523.7 0,-162.97 -13.91,-402.13 4.6,-555.72l214.47 -3.17 3.22 772.27c-0.86,80.28 -15.51,70.94 34.25,93.35 53.14,-95.88 -5.4,-694.14 20.53,-864.25l214.58 -0.27c13.24,175.15 1.51,396.28 1.51,572.99 0,137.18 42.51,427.07 -63.54,511.52l154.76 -0.23 4.25 -1086.22c475.13,4.37 495.32,-53.16 494.78,225.21 -0.21,116.55 0.25,233.16 0.24,349.72 0,105.02 33.48,253.61 -82.57,284.26zm-1903.16 339.14l4025.31 0 0 -1353.24 -4025.85 0 2.45 453.9c50.71,75.67 171.01,151.93 212.71,232.72l-214.45 211.12 -0.17 455.5z"/>
    <path class="fil6" d="M7934.39 537.01c84.33,37.07 84.78,115.78 24.75,181.61 -10.74,-49.32 12.76,-127.69 -24.75,-181.61zm-337.14 344.99c-199.35,-83.7 -181.29,-431.19 8.15,-489.44 -43.26,83.18 -69.6,129.28 -72.12,235.44 -2.97,126.09 37.88,157.51 63.97,254zm38.69 -542.49c-423.77,166.82 -169.68,736.21 216.11,603.57 396.09,-136.19 181.12,-759.93 -216.11,-603.57z"/>
    <path class="fil6" d="M5996.36 870.59c21.61,-45.08 20.93,-379.18 -0.07,-426.27 -55.18,9.68 -42.76,-3.75 -43.17,76.28l1.04 260.28c-0.16,80.97 -18.23,79.89 42.2,89.71z"/>
    <path class="fil6" d="M6560.59 872.57c52.6,-24.11 33.99,-0.14 34.06,-198.85 0.04,-71.3 15.88,-179.61 -18.8,-230.43 -51.81,27.64 -30.43,37.05 -30.4,200.02 0.02,70.06 -16.16,176.34 15.14,229.26z"/>
    <path class="fil6" d="M7170.53 944.57c-54.66,24.22 -33.51,-13.32 -33.73,185.3 -0.23,210.49 -14.07,145.64 34.57,175.67 25.57,-58.57 29.33,-310.26 -0.84,-360.97z"/>
    <path class="fil6" d="M7171.89 723.73c28.6,-56.81 28.96,-225.95 -0.02,-282.58 -36.4,18.66 -34.6,-41.26 -35.32,141.34 -0.68,173.33 -11.61,119.05 35.34,141.24z"/>
   </g>
   <g>
    <path class="fil7" d="M7170.53 944.57c30.17,50.71 26.41,302.4 0.84,360.97 -48.64,-30.03 -34.8,34.82 -34.57,-175.67 0.22,-198.62 -20.93,-161.08 33.73,-185.3zm-609.94 -72c-31.3,-52.92 -15.12,-159.2 -15.14,-229.26 -0.03,-162.97 -21.41,-172.38 30.4,-200.02 34.68,50.82 18.84,159.13 18.8,230.43 -0.07,198.71 18.54,174.74 -34.06,198.85zm-564.23 -1.98c-60.43,-9.82 -42.36,-8.74 -42.2,-89.71l-1.04 -260.28c0.41,-80.03 -12.01,-66.6 43.17,-76.28 21,47.09 21.68,381.19 0.07,426.27zm1175.53 -146.86c-46.95,-22.19 -36.02,32.09 -35.34,-141.24 0.72,-182.6 -1.08,-122.68 35.32,-141.34 28.98,56.63 28.62,225.77 0.02,282.58zm464.05 -384.22c397.23,-156.36 612.2,467.38 216.11,603.57 -385.79,132.64 -639.88,-436.75 -216.11,-603.57zm-886.42 -105.76l-413.64 -7.95 -2.5 1085.77c-79.54,16.47 -305.38,14.76 -382.26,-0.58 -17.02,-62.46 -20.98,-156.05 3.31,-216.95 62.5,-21.56 120.16,-8.31 191.83,-14.41 116.05,-30.65 82.57,-179.24 82.57,-284.26 0.01,-116.56 -0.45,-233.17 -0.24,-349.72 0.54,-278.37 -19.65,-220.84 -494.78,-225.21l-4.25 1086.22 -154.76 0.23c106.05,-84.45 63.54,-374.34 63.54,-511.52 0,-176.71 11.73,-397.84 -1.51,-572.99l-214.58 0.27c-25.93,170.11 32.61,768.37 -20.53,864.25 -49.76,-22.41 -35.11,-13.07 -34.25,-93.35l-3.22 -772.27 -214.47 3.17c-18.51,153.59 -4.6,392.75 -4.6,555.72 0,161.32 -40.6,383.96 45.2,523.7l-187.08 -3.84c66.53,-120.55 45.15,-135.28 44.86,-276.58 -0.21,-99.18 4.3,-200.24 -2.89,-302.94l-217.48 3.78 0.27 300.79c-5.59,84.69 4.7,43.97 -36.24,62.25 -23.12,-40.83 -16.38,-48.66 -15.64,-109.36l-5.09 -757.98 -213.36 7.21c-12.72,169.59 -3.04,379.33 -2.71,552.97 0.47,243.49 -23.86,342.43 40.24,523.41l-72.47 9.32c20.6,14.31 -33.6,6.07 39.5,14.34 14.09,1.61 45.45,-0.12 61.45,-0.23 599.72,-4.48 3447.02,18.28 3503.87,-19.62l-224.73 -9.01 -0.3 -125.95 -317.66 4.39 -5.7 126.8 -171.66 -3.68 6.46 -354.42 166.4 108.43 6.84 107.66 315.21 -4.03 1.46 -103.78c118.05,-97.21 175.69,-76.78 247,-254.38 105.49,-262.68 -76.44,-562.73 -355.62,-594.33 -230.99,-26.15 -238.46,68.41 -384.33,123.7 -58.81,-154.98 -154.56,-107.33 -316.92,-108.39 -204.59,-1.31 -179.95,64.8 -179.56,240.45 0.6,253.96 18.94,595.71 -3.76,842.98l-364.96 -2.1 2.55 -205.17c264.3,-33.49 267.87,68.31 267.87,-331.6 0,-101.37 -0.2,-202.74 0.05,-304.11 0.22,-87.62 24.76,-191.05 -66.73,-227.1z"/>
    <path class="fil7" d="M7597.25 882c-26.09,-96.49 -66.94,-127.91 -63.97,-254 2.52,-106.16 28.86,-152.26 72.12,-235.44 -189.44,58.25 -207.5,405.74 -8.15,489.44z"/>
   </g>
   <path class="fil8" d="M835.35 651.48c11.05,-57.57 9.34,-113.98 -44.88,-138.58 399.76,-48.82 448.19,621.79 -56.09,689.38 -535.73,71.79 -599.27,-664.93 -251.15,-670.94 -48.75,16.94 -98.11,88.05 -97.39,141.16 73.4,-2.86 125.59,-118.72 290.46,-157.95 33.64,34.05 60.52,44.15 86.62,71.26 40.16,41.75 18.06,58.67 72.43,65.67zm-214.54 -259.21c-61.62,-29.78 -41.05,2.47 -50.5,6.97 -135.23,64.26 31.94,-53.77 -222.93,99.48 -103.38,62.17 -145.53,159.51 -152.2,281.21 -14.24,258.88 130.41,427.93 373.39,488.09 224.81,55.68 454.24,-54.8 559.15,-247.6 105.09,-193.07 44.43,-506.07 -194.66,-561.31l37.23 -58.72c-105.84,-18.37 -88.35,20.24 -164.87,21.92 39.86,-21.49 47.81,-35.67 49.97,-77.89 -70.05,5.89 -92.35,36.55 -148.37,71.82 -40.33,-70.38 -34.5,-186.75 -133.97,-163.36 6.47,61.26 48.08,59.12 47.76,139.39z"/>
   <path class="fil9" d="M1748.15 826.81c117.07,5.63 224.53,18.91 344.7,20.12 86.41,0.86 309.5,-23.72 371.91,-2.5 -50.57,30.55 -284.49,27.46 -356.67,27.6 -61.22,0.11 -319.2,6.97 -359.94,-45.22zm1.35 -46.64c17.27,-12.76 429.51,15.22 618.26,-1.95 4.2,-0.38 46.13,-4.64 46.69,-4.59 48.02,4.47 21.45,-1.78 45.42,21.74 -104.25,27.93 -630.06,37.07 -710.37,-15.2zm0.81 -401.75l712.56 -4.12 -8.67 307.59c-148.95,24.28 -566.48,31.19 -705.12,-15.1l1.23 -288.37zm-44.04 796.37l45.33 -5.76 -2.12 -276.09c69.1,-11.86 257.46,11.36 343.37,11.21 124.02,-0.23 243.84,-9.91 365.83,-11.44l1.2 297.91 41.28 -15.2c-5.68,-123.2 -15.49,-738.57 10.73,-818.38 -147.83,33.4 -571.14,5.76 -757.43,17.92l-55.53 -35.66c26.42,89.11 24.26,726.56 7.34,835.49z"/>
   <path class="fil10" d="M6146.26 1079.63c-71.67,6.1 -129.33,-7.15 -191.83,14.41 -24.29,60.9 -20.33,154.49 -3.31,216.95 76.88,15.34 302.72,17.05 382.26,0.58l2.5 -1085.77 413.64 7.95c-50.24,-39.82 -358.02,-36.65 -432.3,-11.32l-4 1074.47 -352.27 -2.91 4.13 -191.35c46.56,-4.8 158.42,15.98 181.18,-23.01z"/>
   <path class="fil11" d="M3259.06 791.74c34.5,-30.49 67.99,-36.53 114.65,-19.76 64.55,23.19 2.72,35.59 111.93,39.35l25.21 -44.43 -123.07 3.24c-51.65,-60.59 -26.72,-57.78 -58.21,-113.39l-70.51 134.99z"/>
   <path class="fil12" d="M3269.75 1069.05l40.94 33.83 -56.9 42.12c54.9,-16.8 97.05,-37.57 149.07,-48.33 56.25,-11.63 76.41,-12.83 124.73,-47.1l-74.09 20.47 6.14 -46.2c-90.03,42.99 -71.23,53.74 -189.89,45.21z"/>
   <path class="fil13" d="M3163.27 977.75l36.3 -17.25 13.94 71.28 29.17 9.5c-43.74,-120.37 -24.47,-120.26 37.2,-209.94l-22.69 5.42 -0.63 -27.87c-47.87,39.5 -71.25,110.06 -93.29,168.86z"/>
   <path class="fil14" d="M7934.39 537.01c37.51,53.92 14.01,132.29 24.75,181.61 60.03,-65.83 59.58,-144.54 -24.75,-181.61z"/>
  </g>
 </g>
</svg>
