<?xml version="1.0" encoding="UTF-8"?>
<!DOCTYPE svg PUBLIC "-//W3C//DTD SVG 1.1//EN" "http://www.w3.org/Graphics/SVG/1.1/DTD/svg11.dtd">
<!-- Creator: CorelDRAW -->
<svg xmlns="http://www.w3.org/2000/svg" xml:space="preserve" width="45.155mm" height="45.155mm" version="1.1" style="shape-rendering:geometricPrecision; text-rendering:geometricPrecision; image-rendering:optimizeQuality; fill-rule:evenodd; clip-rule:evenodd"
viewBox="0 0 4515.5 4515.5"
 xmlns:xlink="http://www.w3.org/1999/xlink"
 xmlns:xodm="http://www.corel.com/coreldraw/odm/2003">
 <defs>
  <style type="text/css">
   <![CDATA[
    .str0 {stroke:#CB8A2A;stroke-width:23.28;stroke-miterlimit:22.9256}
    .fil17 {fill:none}
    .fil5 {fill:none;fill-rule:nonzero}
    .fil10 {fill:#008E48;fill-rule:nonzero}
    .fil0 {fill:#6BC6B6;fill-rule:nonzero}
    .fil7 {fill:#971B1F;fill-rule:nonzero}
    .fil3 {fill:#B6D437;fill-rule:nonzero}
    .fil12 {fill:#B93726;fill-rule:nonzero}
    .fil14 {fill:#C75128;fill-rule:nonzero}
    .fil9 {fill:#D2272A;fill-rule:nonzero}
    .fil8 {fill:#DE6A26;fill-rule:nonzero}
    .fil13 {fill:#E98C2F;fill-rule:nonzero}
    .fil6 {fill:#EB2228;fill-rule:nonzero}
    .fil11 {fill:#ED9F23;fill-rule:nonzero}
    .fil4 {fill:#F295BE;fill-rule:nonzero}
    .fil16 {fill:#F7D099;fill-rule:nonzero}
    .fil15 {fill:#F7D2A7;fill-rule:nonzero}
    .fil2 {fill:#FEEE0B;fill-rule:nonzero}
    .fil1 {fill:white;fill-rule:nonzero}
   ]]>
  </style>
   <clipPath id="id0">
    <path d="M4489.52 1217.95l0 2000.2 0 0 0 28.65 -0.44 -0.01c-0.22,17.19 -0.89,34.15 -1.54,50.67 -0.22,3.75 -0.45,7.27 -0.66,11.02 -0.88,14.54 -1.77,28.87 -2.87,42.96 -0.44,6.83 -1.1,13.23 -1.76,19.83 -1.1,10.58 -1.98,21.37 -3.31,31.73 -0.66,7.27 -1.76,14.32 -2.65,21.37 -1.32,9.48 -2.42,19.39 -4.18,28.65 -1.1,7.27 -2.21,14.32 -3.31,21.36 -1.54,9.26 -3.08,18.52 -5.07,27.33 -1.33,7.05 -2.65,13.88 -4.19,20.93 -1.98,8.81 -3.97,17.63 -5.95,26.44 -1.54,6.62 -3.08,13.44 -4.84,19.83 -2.21,8.81 -4.63,17.63 -6.83,26.44 -1.77,6.17 -3.31,12.34 -5.29,18.51 -2.65,9.26 -5.5,18.52 -8.37,27.54 -1.54,5.29 -3.08,10.36 -5.07,15.43 -4.41,13.44 -9.04,26.44 -13.88,39.44 -0.66,1.76 -1.33,3.96 -2.21,5.72 -4.63,12.56 -9.48,24.46 -14.54,36.58 -1.98,4.63 -4.19,9.04 -6.17,13.66 -3.75,8.37 -7.27,16.74 -11.23,25.11 -2.43,5.29 -5.08,10.14 -7.5,15.21 -3.75,7.49 -7.27,14.98 -11.23,22.48 -2.65,5.07 -5.51,9.91 -8.16,14.98 -3.96,7.05 -7.71,14.1 -11.9,21.15 -2.64,5.07 -5.5,9.69 -8.37,14.54 -4.18,7.05 -8.36,13.88 -12.55,20.71 -2.87,4.63 -5.73,9.04 -8.6,13.66 -4.63,6.83 -9.03,13.88 -13.88,20.49 -2.65,4.19 -5.5,8.37 -8.37,12.34 -5.29,7.5 -10.58,14.77 -16.08,22.04 -2.21,3.08 -4.63,6.38 -6.83,9.47 -15.86,20.72 -32.38,40.54 -49.36,59.5 -2.2,2.42 -4.63,5.07 -6.82,7.49 -6.18,6.83 -12.56,13.66 -19.18,20.5 -2.86,3.08 -5.94,6.17 -8.81,9.03 -5.94,5.95 -11.67,11.9 -17.63,17.63 -3.08,3.08 -6.38,6.17 -9.69,9.25 -5.73,5.51 -11.67,11.02 -17.4,16.31 -3.31,2.86 -6.83,5.94 -10.14,9.03 -5.94,5.29 -12.11,10.36 -18.29,15.65 -3.3,2.65 -6.61,5.73 -9.69,8.15 -6.61,5.51 -13.22,10.58 -19.83,15.87 -2.86,2.42 -5.94,4.85 -8.81,7.05 -7.49,5.95 -15.2,11.68 -22.91,17.19 -1.99,1.54 -4.19,2.86 -5.95,4.63 -20.05,14.54 -40.54,28.21 -61.03,41.42 -1.1,0.66 -2.21,1.33 -3.31,1.98 -9.04,5.73 -18.07,11.24 -27.1,16.53 -2.42,1.54 -4.84,2.86 -7.27,4.4 -7.93,4.63 -15.65,9.04 -23.57,13.66 -2.65,1.54 -5.73,3.08 -8.37,4.63 -7.5,4.4 -15.21,8.37 -22.7,12.34l-8.81 4.85c-7.71,3.96 -15.2,7.71 -22.91,11.67 -2.65,1.33 -5.51,2.65 -8.16,4.19 -8.37,3.96 -16.52,7.71 -24.67,11.68 -2.21,1.1 -4.41,1.98 -6.61,3.08 -9.48,4.4 -19.17,8.37 -28.65,12.78 -0.88,0.22 -1.54,0.66 -2.42,0.88 -32.39,13.88 -64.34,26.44 -96.51,37.68 -1.1,0.44 -2.21,0.65 -3.31,1.1 -9.25,3.3 -18.73,6.61 -27.76,9.47 -1.77,0.66 -3.75,1.1 -5.29,1.77 -8.81,2.65 -17.41,5.5 -26,8.15 -1.98,0.66 -3.96,1.1 -5.95,1.77 -8.36,2.42 -16.96,5.28 -25.55,7.71 -1.77,0.44 -3.31,0.88 -5.29,1.32 -9.04,2.65 -18.07,5.29 -27.1,7.5 -0.88,0.21 -1.98,0.65 -2.86,0.88 -51.12,13.66 -100.48,24.46 -146.74,33.27 -0.66,0 -1.33,0.21 -1.99,0.21 -8.37,1.55 -16.74,3.09 -25.11,4.64 -0.88,0.21 -1.77,0.21 -2.65,0.44 -8.15,1.32 -16.08,2.64 -24.02,3.96 -0.66,0.22 -1.32,0.22 -2.2,0.44 -8.16,1.1 -16.31,2.43 -24.46,3.75l-0.46 -0.02c-42.3,6.17 -80.42,10.14 -113.47,13l-0.22 0c-6.39,0.66 -12.56,1.1 -18.51,1.54l-1.32 0c-5.73,0.44 -11.01,0.89 -16.08,1.1l-1.76 0c-5.07,0.44 -9.92,0.66 -14.77,0.88 -0.44,0 -0.88,0.22 -1.1,0.22 -5.07,0.22 -9.69,0.44 -14.32,0.66l-0.44 0.01c-4.85,0.21 -9.48,0.44 -13.88,0.44l0 0.66 -31.52 0c-1.76,0 -3.74,0 -5.07,0.21 -1.1,0 -2.2,0 -3.08,-0.21l-1677.18 0c-1.1,0.21 -1.98,0.21 -3.3,0.21 -1.33,-0.21 -2.87,-0.21 -4.85,-0.21l-26 0 0 -0.44 -1.99 0c-2.21,-0.22 -4.63,-0.22 -7.05,-0.22 -1.99,-0.22 -4.41,-0.22 -6.62,-0.22 -1.76,-0.21 -3.74,-0.21 -5.73,-0.44 -3.74,0 -7.49,-0.22 -11.45,-0.44 -0.89,0 -1.55,0 -2.21,-0.22 -142.56,-7.49 -465.56,-43.4 -757.51,-208.44 -291.73,-164.81 -552.38,-458.73 -570.01,-982.25l-0.66 -34.37 -0.21 0 0 -2017.83 0.23 0 0.65 -34.38c35.26,-1047.02 1042.19,-1175.47 1327.53,-1190.68 0.65,0 1.32,0 2.2,-0.22 3.97,-0.21 7.71,-0.21 11.46,-0.44 1.98,-0.22 3.96,-0.22 5.73,-0.22 2.21,-0.21 4.63,-0.21 6.61,-0.21 2.43,-0.22 4.85,-0.22 7.06,-0.22 0.65,-0.21 1.54,-0.21 1.98,-0.21l0 -0.45 1750.1 -0.01 0 0.65c4.63,0.22 9.26,0.45 14.1,0.45 0.22,0.21 0.44,0.21 0.44,0.21 4.63,0 9.26,0.22 14.33,0.66l1.1 0.01c4.84,0.22 9.69,0.44 14.76,0.88l1.77 0c5.28,0.44 10.36,0.66 16.08,1.1 0.44,0 0.88,0 1.32,0.22 5.95,0.44 12.12,0.88 18.51,1.32l0.22 0c33.05,2.65 71.17,6.83 113.47,13l0.44 0c8.16,1.1 16.31,2.42 24.46,3.96 0.88,0 1.54,0.22 2.21,0.22 7.93,1.33 15.86,2.42 24.02,3.97 0.88,0.21 1.76,0.44 2.64,0.44 8.16,1.54 16.53,2.86 25.12,4.63 0.66,0.21 1.32,0.21 1.98,0.44 46.05,8.37 95.4,19.38 146.74,33.05 0.88,0.44 1.98,0.66 2.87,0.88 9.03,2.43 18.07,5.07 27.09,7.5 1.77,0.44 3.31,1.1 5.29,1.54 8.37,2.42 16.97,5.07 25.56,7.49 1.98,0.66 3.96,1.33 5.95,1.77 8.37,2.65 16.96,5.5 25.99,8.37 1.55,0.44 3.31,1.1 5.29,1.54 9.04,3.08 18.52,6.39 27.77,9.48 1.1,0.44 2.2,0.65 3.3,1.09 31.95,11.46 64.12,23.81 96.51,37.68 0.88,0.22 1.54,0.66 2.43,1.1 9.47,4.19 19.17,8.15 28.64,12.78 2.21,0.88 4.41,1.98 6.61,2.87 8.16,3.96 16.31,7.71 24.68,11.9 2.65,1.1 5.5,2.42 8.15,3.96 7.71,3.96 15.21,7.71 22.92,11.9 2.86,1.32 5.95,2.86 8.81,4.63 7.49,3.96 15.21,7.94 22.69,12.34 2.65,1.54 5.73,3.08 8.37,4.85 7.94,4.4 15.65,8.81 23.58,13.44 2.42,1.54 4.84,2.86 7.27,4.4 9.03,5.51 18.07,11.02 27.1,16.53 1.09,0.65 2.2,1.32 3.3,2.2 20.5,13 40.98,26.88 61.03,41.21 1.77,1.54 3.97,3.08 5.95,4.63 7.71,5.73 15.42,11.46 22.92,17.19 2.86,2.2 5.94,4.84 8.81,7.05 6.61,5.29 13.22,10.36 19.83,15.86 3.08,2.65 6.38,5.51 9.69,8.16 6.17,5.28 12.34,10.36 18.29,15.86 3.3,2.87 6.83,5.95 10.13,8.81 5.95,5.51 11.9,11.02 17.41,16.31 3.3,3.08 6.61,6.38 9.69,9.25 6.17,5.94 11.9,11.9 17.63,17.63 2.86,3.08 5.95,6.17 8.81,9.03 6.61,6.83 13,13.66 19.17,20.71 2.21,2.21 4.63,4.85 6.83,7.27 16.96,19.17 33.49,38.79 49.36,59.5 2.2,3.08 4.63,6.38 6.83,9.47 5.5,7.27 11.01,14.54 16.08,22.04 2.86,4.19 5.73,8.15 8.37,12.34 4.84,6.83 9.25,13.66 13.88,20.49 2.86,4.63 5.73,9.04 8.59,13.89 4.19,6.61 8.37,13.65 12.56,20.49 2.86,4.85 5.73,9.69 8.37,14.54 4.19,7.05 7.94,14.1 11.9,21.15 2.65,5.07 5.5,9.92 8.15,15.21 3.97,7.27 7.5,14.76 11.24,22.25 2.42,5.07 5.07,9.92 7.49,15.21 3.96,8.15 7.5,16.52 11.23,24.9 1.99,4.63 4.19,9.03 6.18,13.88 5.07,11.9 9.91,24.02 14.54,36.36 0.88,1.98 1.54,3.96 2.2,5.73 4.85,13 9.48,26 13.88,39.44 1.77,5.07 3.31,10.13 5.08,15.42 2.86,9.03 5.73,18.29 8.37,27.54 1.76,6.17 3.3,12.34 5.28,18.51 2.21,8.81 4.63,17.41 6.83,26.44 1.54,6.61 3.08,13.22 4.85,19.83 1.98,8.81 3.96,17.4 5.94,26.66 1.33,6.82 2.65,13.65 4.19,20.71 1.77,9.03 3.31,18.28 5.07,27.32 1.1,7.05 2.21,14.1 3.31,21.37 1.54,9.47 2.65,19.17 4.19,28.64 0.88,7.06 1.98,14.1 2.65,21.37 1.32,10.36 2.2,21.16 3.3,31.73 0.66,6.61 1.33,13.23 1.77,19.83 1.1,14.1 1.98,28.65 2.86,42.96 0.22,3.75 0.45,7.27 0.66,11.02 0.66,16.52 1.33,33.71 1.54,50.67l0.45 -0.02 0.67 0.22z"/>
   </clipPath>
 </defs>
 <g id="Capa_x0020_1">
  <metadata id="CorelCorpID_0Corel-Layer"/>
  <g>
  </g>
  <g style="clip-path:url(#id0)">
   <g id="_1893882912384">
    <rect class="fil0" x="-13.69" y="-18.57" width="2270.77" height="2270.77"/>
    <g>
     <path class="fil1" d="M1492.53 1240.86c0,0 4.63,-5.73 3.96,-11.46l-3.96 11.46zm0 0l0 0 0 0z"/>
    </g>
    <rect class="fil1" transform="matrix(0.649912 -0.520678 0.520678 0.649912 1538.48 1769.28)" width="605.37" height="280.46"/>
    <rect class="fil1" transform="matrix(0.649912 -0.520678 0.520678 0.649912 1719.53 1995.33)" width="605.37" height="635"/>
    <path class="fil1" d="M868.1 529.41c-315.3,252.73 -366.2,713.23 -113.47,1028.53 252.72,315.3 713.22,366.19 1028.52,113.47 315.3,-252.73 366.2,-713.23 113.48,-1028.53 -252.73,-315.3 -713.23,-366.2 -1028.53,-113.47zm799.81 998.11c-235.76,189.05 -580.36,150.93 -769.19,-84.82 -188.83,-235.76 -150.93,-580.36 84.82,-769.19 235.76,-189.05 580.36,-150.93 769.19,84.82 189.05,235.76 150.93,580.36 -84.82,769.19z"/>
    <path class="fil1" d="M1051.63 1320.18c-104.88,-130.87 -160.62,-280.05 -165.25,-414.01 -69.85,158.65 -51.34,349.9 64.55,494.66 115.9,144.76 298.56,204.46 468.66,170.75 -129.56,-33.93 -263.08,-120.74 -367.96,-251.61l0 0.21z"/>
    <path class="fil1" d="M1600.71 844.7c46.5,44.73 75.13,98.71 83.73,149.61 18.73,-64.12 2.2,-135.95 -49.36,-185.3 -51.34,-49.36 -124.05,-63.02 -187.29,-41.86 51.12,6.38 106.42,32.82 152.91,77.55l0.01 0z"/>
    <rect class="fil2" x="-13.69" y="2254.85" width="2270.77" height="2270.77"/>
    <rect class="fil3" x="2257.09" y="-18.57" width="2270.77" height="2270.77"/>
    <rect class="fil4" x="2257.09" y="2254.85" width="2270.77" height="2270.77"/>
    <path class="fil5" d="M1547.61 912.57c0,0 29.3,41.42 74.69,34.59"/>
    <polygon class="fil6" points="1612.39,3944.59 429.41,3835.97 429.41,2604.07 1617.02,2670.62 "/>
    <polygon class="fil7" points="1913.36,3738.36 1612.39,3944.59 1617.02,2670.62 1929.23,2557.58 "/>
    <polygon class="fil7" points="1617.02,2670.62 429.41,2604.07 812.13,2499.85 1929.23,2557.58 "/>
    <polygon class="fil8" points="1617.02,2670.62 1802.97,3042.76 1929.23,2557.58 "/>
    <path class="fil9" d="M3115.07 857.92c0,0 -479.67,-90.99 -512.72,489.37 0,0 -3.97,570.66 624.87,648 0,0 626.85,48.25 748.69,-555.24 0,0 61.92,-408.28 -255.36,-562.96 0,0 -274.76,-118.1 -605.49,-19.38l0.01 0.21z"/>
    <path class="fil10" d="M3221.49 636.27c0,0 -68.74,-8.81 -57.07,38.78 0,0 79.32,49.36 85.05,263.96l4.85 22.25 89.89 5.73 37.68 -14.54 -46.5 -38.78c0,0 -34.8,-191.47 -114.13,-277.63l0.23 0.23z"/>
    <g>
     <path class="fil10" d="M3177.86 669.75c0,0 24.68,-5.28 35.25,-22.25l-35.25 22.25zm0 0l0 0 0 0z"/>
    </g>
    <path class="fil10" d="M3311.39 949.8c0,0 260.21,-20.27 160.62,240.83 0,0 -27.98,-168.33 -206.02,-211.74l45.39 -29.09 0.01 0z"/>
    <path class="fil10" d="M3305.66 964.57l-80.21 -26.44c0,0 -287.32,29.96 -310.45,291.06 0,0 138.37,-199.41 390.66,-264.62z"/>
    <path class="fil10" d="M3254.32 911.02c0,0 -169.22,-155.56 -357.82,38.34 0,0 146.08,-88.57 364.65,6.17l-6.82 -44.51 -0.01 0z"/>
    <path class="fil10" d="M3266 851.98c0,0 -109.28,-92.76 -227.38,-72.49 0,0 101.57,0 203.15,139.25l43.63 -19.39 -19.39 -47.37 -0.01 0z"/>
    <path class="fil10" d="M3300.81 911.02c0,0 92.76,-173.18 316.18,-162.6 0,0 -94.74,7.71 -241.71,183.75l-74.47 -21.36 0 0.21z"/>
    <path class="fil10" d="M3376.17 967.21c0,0 98.7,-84.17 403.43,-131.54 0,0 -170.32,-77.34 -437.14,96.72l33.93 34.81 -0.22 0.01z"/>
    <path class="fil11" d="M3731.56 3887.97c-121.62,36.8 -229.36,76.45 -509.85,76.45 -338.22,0 -398.37,-39 -521.75,-76.45l0 -1213.39 1031.6 0 0 1213.39z"/>
    <path class="fil12" d="M3753.6 2645.72l-1080.74 0 0 55.09c171.42,9.92 352.31,15.65 542.03,15.42 188.38,0 368.18,-5.73 538.72,-15.42l0 -55.09 -0.01 0z"/>
    <ellipse class="fil13" cx="3212.24" cy="2646.82" rx="532.98" ry="15.42"/>
    <path class="fil14" d="M2700.18 3830.24l-20.71 16.96 0 42.52c0,0 68.3,83.29 536.52,83.29 468.21,0 530.12,-86.59 530.12,-86.59l0 -33.94 -14.54 -22.03c0,0 55.31,117.22 -515.8,117.22 -571.11,0 -515.81,-117.22 -515.81,-117.22l0.22 -0.21z"/>
    <circle class="fil15" cx="3212.24" cy="3286.01" r="363.77"/>
    <circle class="fil9" cx="3212.24" cy="3286.01" r="254.71"/>
    <path class="fil5 str0" d="M2700.18 2802.82c0,0 195,37.68 515.81,37.68 320.8,0 515.8,-24.02 515.8,-24.02"/>
    <path class="fil5 str0" d="M2700.18 2879.05c0,0 195,37.68 515.81,37.68 320.8,0 515.8,-24.02 515.8,-24.02"/>
    <path class="fil5 str0" d="M2700.18 2961.02c0,0 195,37.67 515.81,37.67 320.8,0 515.8,-24.01 515.8,-24.01"/>
    <path class="fil5 str0" d="M2700.18 3037.04c0,0 195,37.67 515.81,37.67 320.8,0 515.8,-24.02 515.8,-24.02"/>
    <path class="fil5 str0" d="M2700.18 3113.27c0,0 195,37.67 515.81,37.67 320.8,0 515.8,-24.02 515.8,-24.02"/>
    <path class="fil5 str0" d="M2700.18 3189.29c0,0 195,37.67 515.81,37.67 320.8,0 515.8,-24.01 515.8,-24.01"/>
    <path class="fil5 str0" d="M2700.18 3271.25c0,0 195,37.67 515.81,37.67 320.8,0 515.8,-24.01 515.8,-24.01"/>
    <path class="fil5 str0" d="M2700.18 3347.49c0,0 195,50.9 515.81,50.9 320.8,0 515.8,-37.24 515.8,-37.24"/>
    <path class="fil5 str0" d="M2700.18 3423.5c0,0 195,57.07 515.81,57.07 320.8,0 515.8,-43.4 515.8,-43.4"/>
    <path class="fil5 str0" d="M2700.18 3499.73c0,0 195,54.21 515.81,54.21 320.8,0 515.8,-40.54 515.8,-40.54"/>
    <path class="fil5 str0" d="M2700.18 3581.7c0,0 195,57.07 515.81,57.07 320.8,0 515.8,-43.4 515.8,-43.4"/>
    <path class="fil5 str0" d="M2700.18 3657.93c0,0 195,57.07 515.81,57.07 320.8,0 515.8,-43.4 515.8,-43.4"/>
    <path class="fil5 str0" d="M2700.18 3733.96c0,0 195,57.07 515.81,57.07 320.8,0 515.8,-43.41 515.8,-43.41"/>
    <path class="fil5 str0" d="M2700.18 3810.19c0,0 195,57.07 515.81,57.07 320.8,0 515.8,-43.41 515.8,-43.41"/>
    <circle class="fil16" cx="1023.21" cy="3250.98" r="381.18"/>
    <circle class="fil6" cx="1023.21" cy="3250.98" r="215.49"/>
   </g>
  </g>
  <path class="fil17" d="M4489.52 1217.95l0 2000.2 0 0 0 28.65 -0.44 -0.01c-0.22,17.19 -0.89,34.15 -1.54,50.67 -0.22,3.75 -0.45,7.27 -0.66,11.02 -0.88,14.54 -1.77,28.87 -2.87,42.96 -0.44,6.83 -1.1,13.23 -1.76,19.83 -1.1,10.58 -1.98,21.37 -3.31,31.73 -0.66,7.27 -1.76,14.32 -2.65,21.37 -1.32,9.48 -2.42,19.39 -4.18,28.65 -1.1,7.27 -2.21,14.32 -3.31,21.36 -1.54,9.26 -3.08,18.52 -5.07,27.33 -1.33,7.05 -2.65,13.88 -4.19,20.93 -1.98,8.81 -3.97,17.63 -5.95,26.44 -1.54,6.62 -3.08,13.44 -4.84,19.83 -2.21,8.81 -4.63,17.63 -6.83,26.44 -1.77,6.17 -3.31,12.34 -5.29,18.51 -2.65,9.26 -5.5,18.52 -8.37,27.54 -1.54,5.29 -3.08,10.36 -5.07,15.43 -4.41,13.44 -9.04,26.44 -13.88,39.44 -0.66,1.76 -1.33,3.96 -2.21,5.72 -4.63,12.56 -9.48,24.46 -14.54,36.58 -1.98,4.63 -4.19,9.04 -6.17,13.66 -3.75,8.37 -7.27,16.74 -11.23,25.11 -2.43,5.29 -5.08,10.14 -7.5,15.21 -3.75,7.49 -7.27,14.98 -11.23,22.48 -2.65,5.07 -5.51,9.91 -8.16,14.98 -3.96,7.05 -7.71,14.1 -11.9,21.15 -2.64,5.07 -5.5,9.69 -8.37,14.54 -4.18,7.05 -8.36,13.88 -12.55,20.71 -2.87,4.63 -5.73,9.04 -8.6,13.66 -4.63,6.83 -9.03,13.88 -13.88,20.49 -2.65,4.19 -5.5,8.37 -8.37,12.34 -5.29,7.5 -10.58,14.77 -16.08,22.04 -2.21,3.08 -4.63,6.38 -6.83,9.47 -15.86,20.72 -32.38,40.54 -49.36,59.5 -2.2,2.42 -4.63,5.07 -6.82,7.49 -6.18,6.83 -12.56,13.66 -19.18,20.5 -2.86,3.08 -5.94,6.17 -8.81,9.03 -5.94,5.95 -11.67,11.9 -17.63,17.63 -3.08,3.08 -6.38,6.17 -9.69,9.25 -5.73,5.51 -11.67,11.02 -17.4,16.31 -3.31,2.86 -6.83,5.94 -10.14,9.03 -5.94,5.29 -12.11,10.36 -18.29,15.65 -3.3,2.65 -6.61,5.73 -9.69,8.15 -6.61,5.51 -13.22,10.58 -19.83,15.87 -2.86,2.42 -5.94,4.85 -8.81,7.05 -7.49,5.95 -15.2,11.68 -22.91,17.19 -1.99,1.54 -4.19,2.86 -5.95,4.63 -20.05,14.54 -40.54,28.21 -61.03,41.42 -1.1,0.66 -2.21,1.33 -3.31,1.98 -9.04,5.73 -18.07,11.24 -27.1,16.53 -2.42,1.54 -4.84,2.86 -7.27,4.4 -7.93,4.63 -15.65,9.04 -23.57,13.66 -2.65,1.54 -5.73,3.08 -8.37,4.63 -7.5,4.4 -15.21,8.37 -22.7,12.34l-8.81 4.85c-7.71,3.96 -15.2,7.71 -22.91,11.67 -2.65,1.33 -5.51,2.65 -8.16,4.19 -8.37,3.96 -16.52,7.71 -24.67,11.68 -2.21,1.1 -4.41,1.98 -6.61,3.08 -9.48,4.4 -19.17,8.37 -28.65,12.78 -0.88,0.22 -1.54,0.66 -2.42,0.88 -32.39,13.88 -64.34,26.44 -96.51,37.68 -1.1,0.44 -2.21,0.65 -3.31,1.1 -9.25,3.3 -18.73,6.61 -27.76,9.47 -1.77,0.66 -3.75,1.1 -5.29,1.77 -8.81,2.65 -17.41,5.5 -26,8.15 -1.98,0.66 -3.96,1.1 -5.95,1.77 -8.36,2.42 -16.96,5.28 -25.55,7.71 -1.77,0.44 -3.31,0.88 -5.29,1.32 -9.04,2.65 -18.07,5.29 -27.1,7.5 -0.88,0.21 -1.98,0.65 -2.86,0.88 -51.12,13.66 -100.48,24.46 -146.74,33.27 -0.66,0 -1.33,0.21 -1.99,0.21 -8.37,1.55 -16.74,3.09 -25.11,4.64 -0.88,0.21 -1.77,0.21 -2.65,0.44 -8.15,1.32 -16.08,2.64 -24.02,3.96 -0.66,0.22 -1.32,0.22 -2.2,0.44 -8.16,1.1 -16.31,2.43 -24.46,3.75l-0.46 -0.02c-42.3,6.17 -80.42,10.14 -113.47,13l-0.22 0c-6.39,0.66 -12.56,1.1 -18.51,1.54l-1.32 0c-5.73,0.44 -11.01,0.89 -16.08,1.1l-1.76 0c-5.07,0.44 -9.92,0.66 -14.77,0.88 -0.44,0 -0.88,0.22 -1.1,0.22 -5.07,0.22 -9.69,0.44 -14.32,0.66l-0.44 0.01c-4.85,0.21 -9.48,0.44 -13.88,0.44l0 0.66 -31.52 0c-1.76,0 -3.74,0 -5.07,0.21 -1.1,0 -2.2,0 -3.08,-0.21l-1677.18 0c-1.1,0.21 -1.98,0.21 -3.3,0.21 -1.33,-0.21 -2.87,-0.21 -4.85,-0.21l-26 0 0 -0.44 -1.99 0c-2.21,-0.22 -4.63,-0.22 -7.05,-0.22 -1.99,-0.22 -4.41,-0.22 -6.62,-0.22 -1.76,-0.21 -3.74,-0.21 -5.73,-0.44 -3.74,0 -7.49,-0.22 -11.45,-0.44 -0.89,0 -1.55,0 -2.21,-0.22 -142.56,-7.49 -465.56,-43.4 -757.51,-208.44 -291.73,-164.81 -552.38,-458.73 -570.01,-982.25l-0.66 -34.37 -0.21 0 0 -2017.83 0.23 0 0.65 -34.38c35.26,-1047.02 1042.19,-1175.47 1327.53,-1190.68 0.65,0 1.32,0 2.2,-0.22 3.97,-0.21 7.71,-0.21 11.46,-0.44 1.98,-0.22 3.96,-0.22 5.73,-0.22 2.21,-0.21 4.63,-0.21 6.61,-0.21 2.43,-0.22 4.85,-0.22 7.06,-0.22 0.65,-0.21 1.54,-0.21 1.98,-0.21l0 -0.45 1750.1 -0.01 0 0.65c4.63,0.22 9.26,0.45 14.1,0.45 0.22,0.21 0.44,0.21 0.44,0.21 4.63,0 9.26,0.22 14.33,0.66l1.1 0.01c4.84,0.22 9.69,0.44 14.76,0.88l1.77 0c5.28,0.44 10.36,0.66 16.08,1.1 0.44,0 0.88,0 1.32,0.22 5.95,0.44 12.12,0.88 18.51,1.32l0.22 0c33.05,2.65 71.17,6.83 113.47,13l0.44 0c8.16,1.1 16.31,2.42 24.46,3.96 0.88,0 1.54,0.22 2.21,0.22 7.93,1.33 15.86,2.42 24.02,3.97 0.88,0.21 1.76,0.44 2.64,0.44 8.16,1.54 16.53,2.86 25.12,4.63 0.66,0.21 1.32,0.21 1.98,0.44 46.05,8.37 95.4,19.38 146.74,33.05 0.88,0.44 1.98,0.66 2.87,0.88 9.03,2.43 18.07,5.07 27.09,7.5 1.77,0.44 3.31,1.1 5.29,1.54 8.37,2.42 16.97,5.07 25.56,7.49 1.98,0.66 3.96,1.33 5.95,1.77 8.37,2.65 16.96,5.5 25.99,8.37 1.55,0.44 3.31,1.1 5.29,1.54 9.04,3.08 18.52,6.39 27.77,9.48 1.1,0.44 2.2,0.65 3.3,1.09 31.95,11.46 64.12,23.81 96.51,37.68 0.88,0.22 1.54,0.66 2.43,1.1 9.47,4.19 19.17,8.15 28.64,12.78 2.21,0.88 4.41,1.98 6.61,2.87 8.16,3.96 16.31,7.71 24.68,11.9 2.65,1.1 5.5,2.42 8.15,3.96 7.71,3.96 15.21,7.71 22.92,11.9 2.86,1.32 5.95,2.86 8.81,4.63 7.49,3.96 15.21,7.94 22.69,12.34 2.65,1.54 5.73,3.08 8.37,4.85 7.94,4.4 15.65,8.81 23.58,13.44 2.42,1.54 4.84,2.86 7.27,4.4 9.03,5.51 18.07,11.02 27.1,16.53 1.09,0.65 2.2,1.32 3.3,2.2 20.5,13 40.98,26.88 61.03,41.21 1.77,1.54 3.97,3.08 5.95,4.63 7.71,5.73 15.42,11.46 22.92,17.19 2.86,2.2 5.94,4.84 8.81,7.05 6.61,5.29 13.22,10.36 19.83,15.86 3.08,2.65 6.38,5.51 9.69,8.16 6.17,5.28 12.34,10.36 18.29,15.86 3.3,2.87 6.83,5.95 10.13,8.81 5.95,5.51 11.9,11.02 17.41,16.31 3.3,3.08 6.61,6.38 9.69,9.25 6.17,5.94 11.9,11.9 17.63,17.63 2.86,3.08 5.95,6.17 8.81,9.03 6.61,6.83 13,13.66 19.17,20.71 2.21,2.21 4.63,4.85 6.83,7.27 16.96,19.17 33.49,38.79 49.36,59.5 2.2,3.08 4.63,6.38 6.83,9.47 5.5,7.27 11.01,14.54 16.08,22.04 2.86,4.19 5.73,8.15 8.37,12.34 4.84,6.83 9.25,13.66 13.88,20.49 2.86,4.63 5.73,9.04 8.59,13.89 4.19,6.61 8.37,13.65 12.56,20.49 2.86,4.85 5.73,9.69 8.37,14.54 4.19,7.05 7.94,14.1 11.9,21.15 2.65,5.07 5.5,9.92 8.15,15.21 3.97,7.27 7.5,14.76 11.24,22.25 2.42,5.07 5.07,9.92 7.49,15.21 3.96,8.15 7.5,16.52 11.23,24.9 1.99,4.63 4.19,9.03 6.18,13.88 5.07,11.9 9.91,24.02 14.54,36.36 0.88,1.98 1.54,3.96 2.2,5.73 4.85,13 9.48,26 13.88,39.44 1.77,5.07 3.31,10.13 5.08,15.42 2.86,9.03 5.73,18.29 8.37,27.54 1.76,6.17 3.3,12.34 5.28,18.51 2.21,8.81 4.63,17.41 6.83,26.44 1.54,6.61 3.08,13.22 4.85,19.83 1.98,8.81 3.96,17.4 5.94,26.66 1.33,6.82 2.65,13.65 4.19,20.71 1.77,9.03 3.31,18.28 5.07,27.32 1.1,7.05 2.21,14.1 3.31,21.37 1.54,9.47 2.65,19.17 4.19,28.64 0.88,7.06 1.98,14.1 2.65,21.37 1.32,10.36 2.2,21.16 3.3,31.73 0.66,6.61 1.33,13.23 1.77,19.83 1.1,14.1 1.98,28.65 2.86,42.96 0.22,3.75 0.45,7.27 0.66,11.02 0.66,16.52 1.33,33.71 1.54,50.67l0.45 -0.02 0.67 0.22z"/>
 </g>
</svg>
