<?xml version="1.0" encoding="UTF-8"?>
<!DOCTYPE svg PUBLIC "-//W3C//DTD SVG 1.1//EN" "http://www.w3.org/Graphics/SVG/1.1/DTD/svg11.dtd">
<!-- Creator: CorelDRAW -->
<svg xmlns="http://www.w3.org/2000/svg" xml:space="preserve" width="25.13mm" height="25.13mm" version="1.1" style="shape-rendering:geometricPrecision; text-rendering:geometricPrecision; image-rendering:optimizeQuality; fill-rule:evenodd; clip-rule:evenodd"
viewBox="0 0 2513 2513"
 xmlns:xlink="http://www.w3.org/1999/xlink"
 xmlns:xodm="http://www.corel.com/coreldraw/odm/2003">
 <defs>
  <style type="text/css">
   <![CDATA[
    .str0 {stroke:#CB8A2A;stroke-width:23.28;stroke-miterlimit:22.9256}
    .fil17 {fill:none}
    .fil5 {fill:none;fill-rule:nonzero}
    .fil10 {fill:#008E48;fill-rule:nonzero}
    .fil0 {fill:#6BC6B6;fill-rule:nonzero}
    .fil7 {fill:#971B1F;fill-rule:nonzero}
    .fil3 {fill:#B6D437;fill-rule:nonzero}
    .fil12 {fill:#B93726;fill-rule:nonzero}
    .fil14 {fill:#C75128;fill-rule:nonzero}
    .fil9 {fill:#D2272A;fill-rule:nonzero}
    .fil8 {fill:#DE6A26;fill-rule:nonzero}
    .fil13 {fill:#E98C2F;fill-rule:nonzero}
    .fil6 {fill:#EB2228;fill-rule:nonzero}
    .fil11 {fill:#ED9F23;fill-rule:nonzero}
    .fil4 {fill:#F295BE;fill-rule:nonzero}
    .fil16 {fill:#F7D099;fill-rule:nonzero}
    .fil15 {fill:#F7D2A7;fill-rule:nonzero}
    .fil2 {fill:#FEEE0B;fill-rule:nonzero}
    .fil1 {fill:white;fill-rule:nonzero}
   ]]>
  </style>
   <clipPath id="id0">
    <path d="M2398.15 711.37l0 1024.93 0 0 0 14.68 -0.23 0c-0.11,8.8 -0.45,17.5 -0.79,25.96 -0.11,1.92 -0.22,3.73 -0.33,5.65 -0.46,7.45 -0.91,14.79 -1.47,22.01 -0.23,3.5 -0.56,6.78 -0.91,10.16 -0.56,5.42 -1.01,10.95 -1.69,16.26 -0.34,3.72 -0.9,7.34 -1.36,10.95 -0.67,4.85 -1.24,9.93 -2.14,14.68 -0.57,3.72 -1.13,7.34 -1.7,10.95 -0.79,4.74 -1.58,9.48 -2.6,14 -0.67,3.61 -1.35,7.11 -2.14,10.73 -1.02,4.51 -2.03,9.03 -3.05,13.54 -0.79,3.39 -1.58,6.89 -2.48,10.16 -1.13,4.52 -2.37,9.04 -3.5,13.55 -0.91,3.16 -1.7,6.33 -2.71,9.49 -1.36,4.74 -2.82,9.48 -4.29,14.11 -0.79,2.71 -1.58,5.31 -2.6,7.9 -2.26,6.89 -4.63,13.55 -7.11,20.21 -0.34,0.91 -0.68,2.03 -1.13,2.94 -2.37,6.43 -4.86,12.53 -7.45,18.74 -1.02,2.37 -2.15,4.63 -3.16,7 -1.92,4.29 -3.73,8.58 -5.76,12.87 -1.24,2.71 -2.6,5.19 -3.84,7.79 -1.92,3.84 -3.73,7.68 -5.76,11.52 -1.35,2.59 -2.82,5.08 -4.18,7.67 -2.03,3.62 -3.95,7.23 -6.09,10.84 -1.36,2.6 -2.82,4.97 -4.29,7.45 -2.15,3.62 -4.29,7.12 -6.44,10.61 -1.46,2.38 -2.93,4.63 -4.4,7 -2.37,3.5 -4.63,7.12 -7.11,10.5 -1.36,2.15 -2.82,4.29 -4.29,6.33 -2.71,3.84 -5.42,7.56 -8.24,11.29 -1.13,1.58 -2.37,3.27 -3.5,4.85 -8.13,10.62 -16.6,20.78 -25.29,30.49 -1.13,1.24 -2.38,2.6 -3.5,3.84 -3.16,3.5 -6.44,7 -9.82,10.5 -1.47,1.58 -3.05,3.16 -4.52,4.63 -3.05,3.05 -5.98,6.1 -9.03,9.03 -1.58,1.58 -3.28,3.17 -4.97,4.75 -2.94,2.82 -5.98,5.64 -8.92,8.35 -1.69,1.47 -3.5,3.05 -5.19,4.63 -3.05,2.71 -6.21,5.31 -9.37,8.02 -1.7,1.36 -3.39,2.93 -4.97,4.18 -3.39,2.82 -6.78,5.42 -10.16,8.13 -1.47,1.24 -3.05,2.48 -4.51,3.61 -3.84,3.05 -7.8,5.98 -11.75,8.81 -1.01,0.79 -2.14,1.46 -3.04,2.37 -10.28,7.45 -20.78,14.45 -31.28,21.22 -0.56,0.34 -1.13,0.68 -1.69,1.02 -4.63,2.94 -9.26,5.76 -13.89,8.47 -1.24,0.79 -2.48,1.46 -3.72,2.25 -4.07,2.38 -8.02,4.63 -12.08,7 -1.36,0.79 -2.94,1.58 -4.29,2.37 -3.84,2.26 -7.79,4.29 -11.63,6.33l-4.51 2.48c-3.96,2.03 -7.8,3.95 -11.75,5.98 -1.35,0.68 -2.82,1.36 -4.18,2.15 -4.28,2.03 -8.46,3.95 -12.64,5.98 -1.13,0.57 -2.26,1.02 -3.39,1.58 -4.85,2.26 -9.82,4.29 -14.68,6.55 -0.45,0.11 -0.79,0.34 -1.24,0.45 -16.59,7.12 -32.97,13.55 -49.45,19.31 -0.56,0.23 -1.13,0.34 -1.69,0.56 -4.75,1.7 -9.6,3.39 -14.23,4.86 -0.91,0.34 -1.92,0.56 -2.71,0.9 -4.52,1.36 -8.92,2.82 -13.32,4.18 -1.02,0.34 -2.03,0.56 -3.05,0.91 -4.29,1.24 -8.69,2.7 -13.1,3.95 -0.9,0.22 -1.69,0.45 -2.71,0.68 -4.62,1.35 -9.25,2.7 -13.88,3.84 -0.45,0.11 -1.02,0.33 -1.47,0.45 -26.19,7 -51.48,12.53 -75.19,17.05 -0.34,0 -0.68,0.11 -1.02,0.11 -4.28,0.79 -8.58,1.57 -12.87,2.37 -0.45,0.11 -0.9,0.11 -1.35,0.22 -4.18,0.68 -8.24,1.36 -12.31,2.04 -0.34,0.11 -0.68,0.11 -1.13,0.22 -4.18,0.57 -8.35,1.24 -12.53,1.92l-0.24 -0.01c-21.67,3.17 -41.21,5.2 -58.14,6.66l-0.11 0c-3.28,0.34 -6.44,0.57 -9.49,0.79l-0.67 0c-2.94,0.23 -5.65,0.46 -8.24,0.57l-0.91 0c-2.6,0.22 -5.08,0.33 -7.56,0.45 -0.23,0 -0.46,0.11 -0.57,0.11 -2.59,0.11 -4.96,0.23 -7.34,0.34l-0.22 0c-2.49,0.11 -4.86,0.23 -7.12,0.23l0 0.34 -16.14 0c-0.91,0 -1.92,0 -2.6,0.11 -0.56,0 -1.13,0 -1.58,-0.11l-859.41 0c-0.56,0.11 -1.01,0.11 -1.69,0.11 -0.68,-0.11 -1.47,-0.11 -2.49,-0.11l-13.32 0 0 -0.23 -1.02 0c-1.13,-0.11 -2.37,-0.11 -3.61,-0.11 -1.02,-0.11 -2.26,-0.11 -3.39,-0.11 -0.9,-0.11 -1.92,-0.11 -2.94,-0.23 -1.92,0 -3.84,-0.11 -5.87,-0.22 -0.45,0 -0.79,0 -1.13,-0.12 -73.05,-3.84 -238.56,-22.24 -388.16,-106.8 -149.48,-84.45 -283.04,-235.06 -292.08,-503.32l-0.33 -17.61 -0.11 0 0 -1033.97 0.12 0 0.33 -17.61c18.07,-536.51 534.03,-602.33 680.24,-610.12 0.34,0 0.68,0 1.13,-0.11 2.03,-0.11 3.95,-0.11 5.87,-0.23 1.02,-0.11 2.03,-0.11 2.94,-0.11 1.13,-0.11 2.37,-0.11 3.39,-0.11 1.24,-0.11 2.48,-0.11 3.61,-0.11 0.34,-0.11 0.79,-0.11 1.02,-0.11l0 -0.23 896.77 -0.01 0 0.34c2.37,0.11 4.74,0.23 7.23,0.23 0.11,0.11 0.22,0.11 0.22,0.11 2.38,0 4.74,0.11 7.34,0.33l0.57 0.01c2.48,0.11 4.96,0.23 7.56,0.45l0.91 0c2.71,0.23 5.3,0.34 8.24,0.56 0.22,0 0.45,0 0.67,0.12 3.05,0.22 6.21,0.45 9.49,0.67l0.11 0c16.94,1.36 36.47,3.5 58.15,6.67l0.22 0c4.18,0.56 8.36,1.24 12.53,2.03 0.46,0 0.79,0.11 1.14,0.11 4.06,0.68 8.12,1.24 12.3,2.03 0.45,0.11 0.91,0.22 1.36,0.22 4.18,0.79 8.46,1.47 12.87,2.38 0.34,0.11 0.68,0.11 1.01,0.22 23.6,4.29 48.89,9.94 75.2,16.94 0.45,0.23 1.01,0.34 1.46,0.45 4.63,1.24 9.26,2.6 13.89,3.84 0.9,0.23 1.69,0.57 2.71,0.79 4.29,1.24 8.69,2.6 13.09,3.84 1.02,0.34 2.04,0.68 3.05,0.91 4.29,1.35 8.69,2.82 13.32,4.29 0.79,0.22 1.7,0.56 2.71,0.79 4.63,1.57 9.49,3.27 14.23,4.85 0.56,0.23 1.13,0.34 1.69,0.56 16.37,5.88 32.86,12.2 49.46,19.31 0.45,0.11 0.79,0.34 1.24,0.56 4.85,2.15 9.82,4.18 14.68,6.55 1.13,0.45 2.25,1.02 3.39,1.47 4.17,2.03 8.35,3.95 12.64,6.1 1.36,0.56 2.82,1.24 4.18,2.03 3.95,2.03 7.79,3.95 11.74,6.1 1.47,0.68 3.05,1.46 4.51,2.37 3.84,2.03 7.8,4.07 11.63,6.32 1.36,0.79 2.94,1.58 4.29,2.49 4.07,2.25 8.02,4.51 12.08,6.88 1.24,0.79 2.48,1.47 3.73,2.26 4.63,2.82 9.26,5.65 13.88,8.47 0.57,0.33 1.13,0.68 1.7,1.13 10.5,6.66 20.99,13.77 31.27,21.11 0.9,0.79 2.03,1.58 3.05,2.37 3.95,2.94 7.9,5.88 11.74,8.81 1.47,1.13 3.05,2.49 4.51,3.62 3.39,2.71 6.78,5.31 10.17,8.13 1.57,1.35 3.27,2.82 4.96,4.17 3.16,2.71 6.33,5.31 9.37,8.13 1.7,1.47 3.5,3.05 5.2,4.52 3.04,2.82 6.09,5.64 8.91,8.35 1.7,1.58 3.39,3.27 4.97,4.74 3.16,3.05 6.1,6.1 9.03,9.04 1.47,1.58 3.05,3.16 4.52,4.63 3.39,3.5 6.66,6.99 9.82,10.61 1.13,1.13 2.38,2.48 3.5,3.72 8.69,9.83 17.16,19.88 25.29,30.49 1.13,1.58 2.38,3.27 3.5,4.85 2.82,3.73 5.65,7.46 8.24,11.3 1.47,2.14 2.94,4.17 4.29,6.32 2.48,3.5 4.74,7 7.11,10.5 1.47,2.37 2.94,4.63 4.41,7.11 2.14,3.39 4.29,7 6.43,10.51 1.47,2.48 2.94,4.96 4.29,7.45 2.15,3.61 4.07,7.22 6.1,10.83 1.36,2.6 2.82,5.09 4.18,7.8 2.03,3.72 3.84,7.56 5.75,11.4 1.24,2.6 2.6,5.08 3.84,7.79 2.03,4.18 3.84,8.47 5.76,12.76 1.02,2.37 2.15,4.63 3.16,7.11 2.6,6.1 5.08,12.31 7.45,18.63 0.45,1.02 0.79,2.03 1.13,2.94 2.49,6.66 4.86,13.32 7.12,20.21 0.9,2.6 1.69,5.19 2.6,7.9 1.46,4.63 2.93,9.37 4.28,14.11 0.91,3.16 1.7,6.33 2.71,9.49 1.13,4.51 2.38,8.92 3.5,13.55 0.79,3.39 1.58,6.77 2.49,10.16 1.01,4.51 2.03,8.92 3.04,13.66 0.68,3.5 1.36,6.99 2.15,10.61 0.9,4.63 1.69,9.37 2.6,14 0.56,3.61 1.13,7.22 1.69,10.95 0.79,4.85 1.36,9.82 2.15,14.68 0.45,3.61 1.01,7.22 1.36,10.95 0.67,5.31 1.13,10.84 1.69,16.26 0.34,3.38 0.68,6.77 0.9,10.16 0.57,7.22 1.02,14.67 1.47,22.01 0.11,1.92 0.23,3.73 0.34,5.65 0.34,8.46 0.68,17.27 0.79,25.96l0.23 -0.01 0.34 0.11z"/>
   </clipPath>
 </defs>
 <g id="Capa_x0020_1">
  <metadata id="CorelCorpID_0Corel-Layer"/>
  <g>
  </g>
  <g style="clip-path:url(#id0)">
   <g id="_1893882946320">
    <rect class="fil0" x="90.65" y="77.76" width="1163.57" height="1163.57"/>
    <g>
     <path class="fil1" d="M862.46 723.11c0,0 2.37,-2.93 2.03,-5.87l-2.03 5.87zm0 0l0 0 0 0z"/>
    </g>
    <rect class="fil1" transform="matrix(0.333023 -0.266802 0.266802 0.333023 886.001 993.882)" width="605.37" height="280.46"/>
    <rect class="fil1" transform="matrix(0.333023 -0.266802 0.266802 0.333023 978.776 1109.71)" width="605.37" height="635"/>
    <path class="fil1" d="M542.49 358.56c-161.56,129.5 -187.64,365.46 -58.14,527.02 129.5,161.57 365.46,187.65 527.03,58.15 161.56,-129.5 187.64,-365.47 58.14,-527.03 -129.5,-161.56 -365.47,-187.64 -527.03,-58.14zm409.83 511.44c-120.8,96.87 -297.38,77.34 -394.14,-43.46 -96.76,-120.81 -77.34,-297.39 43.47,-394.15 120.8,-96.86 297.38,-77.33 394.14,43.47 96.87,120.8 77.34,297.38 -43.47,394.14z"/>
    <path class="fil1" d="M636.53 763.76c-53.74,-67.07 -82.3,-143.5 -84.67,-212.15 -35.79,81.29 -26.31,179.29 33.08,253.47 59.38,74.18 152.98,104.77 240.14,87.5 -66.39,-17.39 -134.81,-61.87 -188.55,-128.93l0 0.11z"/>
    <path class="fil1" d="M917.89 520.11c23.82,22.92 38.5,50.58 42.9,76.66 9.6,-32.85 1.13,-69.66 -25.29,-94.94 -26.31,-25.3 -63.56,-32.29 -95.97,-21.46 26.19,3.28 54.53,16.83 78.36,39.74l0 0z"/>
    <rect class="fil2" x="90.65" y="1242.69" width="1163.57" height="1163.57"/>
    <rect class="fil3" x="1254.22" y="77.76" width="1163.57" height="1163.57"/>
    <rect class="fil4" x="1254.22" y="1242.69" width="1163.57" height="1163.57"/>
    <path class="fil5" d="M890.68 554.89c0,0 15.01,21.23 38.27,17.73"/>
    <polygon class="fil6" points="923.87,2108.54 317.7,2052.88 317.7,1421.64 926.25,1455.74 "/>
    <polygon class="fil7" points="1078.1,2002.86 923.87,2108.54 926.25,1455.74 1086.23,1397.82 "/>
    <polygon class="fil7" points="926.25,1455.74 317.7,1421.64 513.81,1368.24 1086.23,1397.82 "/>
    <polygon class="fil8" points="926.25,1455.74 1021.53,1646.43 1086.23,1397.82 "/>
    <path class="fil9" d="M1693.87 526.89c0,0 -245.79,-46.63 -262.73,250.76 0,0 -2.03,292.41 320.19,332.04 0,0 321.21,24.73 383.64,-284.51 0,0 31.73,-209.21 -130.85,-288.47 0,0 -140.79,-60.51 -310.26,-9.93l0.01 0.11z"/>
    <path class="fil10" d="M1748.4 413.31c0,0 -35.23,-4.51 -29.25,19.87 0,0 40.65,25.3 43.58,135.26l2.49 11.4 46.06 2.94 19.31 -7.45 -23.83 -19.87c0,0 -17.83,-98.12 -58.48,-142.26l0.12 0.11z"/>
    <g>
     <path class="fil10" d="M1726.04 430.47c0,0 12.64,-2.71 18.06,-11.4l-18.06 11.4zm0 0l0 0 0 0z"/>
    </g>
    <path class="fil10" d="M1794.46 573.97c0,0 133.34,-10.39 82.31,123.4 0,0 -14.34,-86.25 -105.57,-108.49l23.26 -14.91 0 0z"/>
    <path class="fil10" d="M1791.52 581.54l-41.09 -13.55c0,0 -147.23,15.35 -159.08,149.14 0,0 70.9,-102.18 200.17,-135.59z"/>
    <path class="fil10" d="M1765.22 554.1c0,0 -86.71,-79.71 -183.35,19.64 0,0 74.85,-45.38 186.85,3.17l-3.5 -22.81 0 0z"/>
    <path class="fil10" d="M1771.2 523.84c0,0 -55.99,-47.53 -116.51,-37.14 0,0 52.05,0 104.1,71.35l22.35 -9.93 -9.93 -24.28 -0.01 0z"/>
    <path class="fil10" d="M1789.04 554.1c0,0 47.53,-88.74 162.02,-83.32 0,0 -48.55,3.95 -123.86,94.16l-38.16 -10.95 0 0.11z"/>
    <path class="fil10" d="M1827.65 582.89c0,0 50.58,-43.13 206.73,-67.41 0,0 -87.27,-39.62 -224,49.57l17.39 17.83 -0.12 0.01z"/>
    <path class="fil11" d="M2009.76 2079.52c-62.32,18.86 -117.53,39.18 -261.25,39.18 -173.31,0 -204.13,-19.98 -267.35,-39.18l0 -621.75 528.6 0 0 621.75z"/>
    <path class="fil12" d="M2021.06 1442.98l-553.79 0 0 28.23c87.84,5.08 180.53,8.02 277.74,7.9 96.53,0 188.66,-2.94 276.05,-7.9l0 -28.23 0 0z"/>
    <ellipse class="fil13" cx="1743.66" cy="1443.54" rx="273.11" ry="7.9"/>
    <path class="fil14" d="M1481.27 2049.94l-10.61 8.69 0 21.79c0,0 35,42.68 274.92,42.68 239.91,0 271.64,-44.37 271.64,-44.37l0 -17.39 -7.45 -11.29c0,0 28.34,60.06 -264.31,60.06 -292.64,0 -264.3,-60.06 -264.3,-60.06l0.11 -0.11z"/>
    <circle class="fil15" cx="1743.66" cy="1771.07" r="186.4"/>
    <circle class="fil9" cx="1743.66" cy="1771.07" r="130.52"/>
    <path class="fil5 str0" d="M1481.27 1523.48c0,0 99.92,19.3 264.31,19.3 164.38,0 264.3,-12.3 264.3,-12.3"/>
    <path class="fil5 str0" d="M1481.27 1562.54c0,0 99.92,19.31 264.31,19.31 164.38,0 264.3,-12.31 264.3,-12.31"/>
    <path class="fil5 str0" d="M1481.27 1604.54c0,0 99.92,19.31 264.31,19.31 164.38,0 264.3,-12.31 264.3,-12.31"/>
    <path class="fil5 str0" d="M1481.27 1643.49c0,0 99.92,19.31 264.31,19.31 164.38,0 264.3,-12.31 264.3,-12.31"/>
    <path class="fil5 str0" d="M1481.27 1682.56c0,0 99.92,19.3 264.31,19.3 164.38,0 264.3,-12.31 264.3,-12.31"/>
    <path class="fil5 str0" d="M1481.27 1721.51c0,0 99.92,19.31 264.31,19.31 164.38,0 264.3,-12.31 264.3,-12.31"/>
    <path class="fil5 str0" d="M1481.27 1763.51c0,0 99.92,19.3 264.31,19.3 164.38,0 264.3,-12.3 264.3,-12.3"/>
    <path class="fil5 str0" d="M1481.27 1802.57c0,0 99.92,26.09 264.31,26.09 164.38,0 264.3,-19.08 264.3,-19.08"/>
    <path class="fil5 str0" d="M1481.27 1841.52c0,0 99.92,29.25 264.31,29.25 164.38,0 264.3,-22.24 264.3,-22.24"/>
    <path class="fil5 str0" d="M1481.27 1880.59c0,0 99.92,27.77 264.31,27.77 164.38,0 264.3,-20.77 264.3,-20.77"/>
    <path class="fil5 str0" d="M1481.27 1922.59c0,0 99.92,29.24 264.31,29.24 164.38,0 264.3,-22.24 264.3,-22.24"/>
    <path class="fil5 str0" d="M1481.27 1961.65c0,0 99.92,29.24 264.31,29.24 164.38,0 264.3,-22.24 264.3,-22.24"/>
    <path class="fil5 str0" d="M1481.27 2000.61c0,0 99.92,29.24 264.31,29.24 164.38,0 264.3,-22.24 264.3,-22.24"/>
    <path class="fil5 str0" d="M1481.27 2039.67c0,0 99.92,29.24 264.31,29.24 164.38,0 264.3,-22.24 264.3,-22.24"/>
    <circle class="fil16" cx="621.97" cy="1753.12" r="195.32"/>
    <circle class="fil6" cx="621.97" cy="1753.12" r="110.42"/>
   </g>
  </g>
  <path class="fil17" d="M2398.15 711.37l0 1024.93 0 0 0 14.68 -0.23 0c-0.11,8.8 -0.45,17.5 -0.79,25.96 -0.11,1.92 -0.22,3.73 -0.33,5.65 -0.46,7.45 -0.91,14.79 -1.47,22.01 -0.23,3.5 -0.56,6.78 -0.91,10.16 -0.56,5.42 -1.01,10.95 -1.69,16.26 -0.34,3.72 -0.9,7.34 -1.36,10.95 -0.67,4.85 -1.24,9.93 -2.14,14.68 -0.57,3.72 -1.13,7.34 -1.7,10.95 -0.79,4.74 -1.58,9.48 -2.6,14 -0.67,3.61 -1.35,7.11 -2.14,10.73 -1.02,4.51 -2.03,9.03 -3.05,13.54 -0.79,3.39 -1.58,6.89 -2.48,10.16 -1.13,4.52 -2.37,9.04 -3.5,13.55 -0.91,3.16 -1.7,6.33 -2.71,9.49 -1.36,4.74 -2.82,9.48 -4.29,14.11 -0.79,2.71 -1.58,5.31 -2.6,7.9 -2.26,6.89 -4.63,13.55 -7.11,20.21 -0.34,0.91 -0.68,2.03 -1.13,2.94 -2.37,6.43 -4.86,12.53 -7.45,18.74 -1.02,2.37 -2.15,4.63 -3.16,7 -1.92,4.29 -3.73,8.58 -5.76,12.87 -1.24,2.71 -2.6,5.19 -3.84,7.79 -1.92,3.84 -3.73,7.68 -5.76,11.52 -1.35,2.59 -2.82,5.08 -4.18,7.67 -2.03,3.62 -3.95,7.23 -6.09,10.84 -1.36,2.6 -2.82,4.97 -4.29,7.45 -2.15,3.62 -4.29,7.12 -6.44,10.61 -1.46,2.38 -2.93,4.63 -4.4,7 -2.37,3.5 -4.63,7.12 -7.11,10.5 -1.36,2.15 -2.82,4.29 -4.29,6.33 -2.71,3.84 -5.42,7.56 -8.24,11.29 -1.13,1.58 -2.37,3.27 -3.5,4.85 -8.13,10.62 -16.6,20.78 -25.29,30.49 -1.13,1.24 -2.38,2.6 -3.5,3.84 -3.16,3.5 -6.44,7 -9.82,10.5 -1.47,1.58 -3.05,3.16 -4.52,4.63 -3.05,3.05 -5.98,6.1 -9.03,9.03 -1.58,1.58 -3.28,3.17 -4.97,4.75 -2.94,2.82 -5.98,5.64 -8.92,8.35 -1.69,1.47 -3.5,3.05 -5.19,4.63 -3.05,2.71 -6.21,5.31 -9.37,8.02 -1.7,1.36 -3.39,2.93 -4.97,4.18 -3.39,2.82 -6.78,5.42 -10.16,8.13 -1.47,1.24 -3.05,2.48 -4.51,3.61 -3.84,3.05 -7.8,5.98 -11.75,8.81 -1.01,0.79 -2.14,1.46 -3.04,2.37 -10.28,7.45 -20.78,14.45 -31.28,21.22 -0.56,0.34 -1.13,0.68 -1.69,1.02 -4.63,2.94 -9.26,5.76 -13.89,8.47 -1.24,0.79 -2.48,1.46 -3.72,2.25 -4.07,2.38 -8.02,4.63 -12.08,7 -1.36,0.79 -2.94,1.58 -4.29,2.37 -3.84,2.26 -7.79,4.29 -11.63,6.33l-4.51 2.48c-3.96,2.03 -7.8,3.95 -11.75,5.98 -1.35,0.68 -2.82,1.36 -4.18,2.15 -4.28,2.03 -8.46,3.95 -12.64,5.98 -1.13,0.57 -2.26,1.02 -3.39,1.58 -4.85,2.26 -9.82,4.29 -14.68,6.55 -0.45,0.11 -0.79,0.34 -1.24,0.45 -16.59,7.12 -32.97,13.55 -49.45,19.31 -0.56,0.23 -1.13,0.34 -1.69,0.56 -4.75,1.7 -9.6,3.39 -14.23,4.86 -0.91,0.34 -1.92,0.56 -2.71,0.9 -4.52,1.36 -8.92,2.82 -13.32,4.18 -1.02,0.34 -2.03,0.56 -3.05,0.91 -4.29,1.24 -8.69,2.7 -13.1,3.95 -0.9,0.22 -1.69,0.45 -2.71,0.68 -4.62,1.35 -9.25,2.7 -13.88,3.84 -0.45,0.11 -1.02,0.33 -1.47,0.45 -26.19,7 -51.48,12.53 -75.19,17.05 -0.34,0 -0.68,0.11 -1.02,0.11 -4.28,0.79 -8.58,1.57 -12.87,2.37 -0.45,0.11 -0.9,0.11 -1.35,0.22 -4.18,0.68 -8.24,1.36 -12.31,2.04 -0.34,0.11 -0.68,0.11 -1.13,0.22 -4.18,0.57 -8.35,1.24 -12.53,1.92l-0.24 -0.01c-21.67,3.17 -41.21,5.2 -58.14,6.66l-0.11 0c-3.28,0.34 -6.44,0.57 -9.49,0.79l-0.67 0c-2.94,0.23 -5.65,0.46 -8.24,0.57l-0.91 0c-2.6,0.22 -5.08,0.33 -7.56,0.45 -0.23,0 -0.46,0.11 -0.57,0.11 -2.59,0.11 -4.96,0.23 -7.34,0.34l-0.22 0c-2.49,0.11 -4.86,0.23 -7.12,0.23l0 0.34 -16.14 0c-0.91,0 -1.92,0 -2.6,0.11 -0.56,0 -1.13,0 -1.58,-0.11l-859.41 0c-0.56,0.11 -1.01,0.11 -1.69,0.11 -0.68,-0.11 -1.47,-0.11 -2.49,-0.11l-13.32 0 0 -0.23 -1.02 0c-1.13,-0.11 -2.37,-0.11 -3.61,-0.11 -1.02,-0.11 -2.26,-0.11 -3.39,-0.11 -0.9,-0.11 -1.92,-0.11 -2.94,-0.23 -1.92,0 -3.84,-0.11 -5.87,-0.22 -0.45,0 -0.79,0 -1.13,-0.12 -73.05,-3.84 -238.56,-22.24 -388.16,-106.8 -149.48,-84.45 -283.04,-235.06 -292.08,-503.32l-0.33 -17.61 -0.11 0 0 -1033.97 0.12 0 0.33 -17.61c18.07,-536.51 534.03,-602.33 680.24,-610.12 0.34,0 0.68,0 1.13,-0.11 2.03,-0.11 3.95,-0.11 5.87,-0.23 1.02,-0.11 2.03,-0.11 2.94,-0.11 1.13,-0.11 2.37,-0.11 3.39,-0.11 1.24,-0.11 2.48,-0.11 3.61,-0.11 0.34,-0.11 0.79,-0.11 1.02,-0.11l0 -0.23 896.77 -0.01 0 0.34c2.37,0.11 4.74,0.23 7.23,0.23 0.11,0.11 0.22,0.11 0.22,0.11 2.38,0 4.74,0.11 7.34,0.33l0.57 0.01c2.48,0.11 4.96,0.23 7.56,0.45l0.91 0c2.71,0.23 5.3,0.34 8.24,0.56 0.22,0 0.45,0 0.67,0.12 3.05,0.22 6.21,0.45 9.49,0.67l0.11 0c16.94,1.36 36.47,3.5 58.15,6.67l0.22 0c4.18,0.56 8.36,1.24 12.53,2.03 0.46,0 0.79,0.11 1.14,0.11 4.06,0.68 8.12,1.24 12.3,2.03 0.45,0.11 0.91,0.22 1.36,0.22 4.18,0.79 8.46,1.47 12.87,2.38 0.34,0.11 0.68,0.11 1.01,0.22 23.6,4.29 48.89,9.94 75.2,16.94 0.45,0.23 1.01,0.34 1.46,0.45 4.63,1.24 9.26,2.6 13.89,3.84 0.9,0.23 1.69,0.57 2.71,0.79 4.29,1.24 8.69,2.6 13.09,3.84 1.02,0.34 2.04,0.68 3.05,0.91 4.29,1.35 8.69,2.82 13.32,4.29 0.79,0.22 1.7,0.56 2.71,0.79 4.63,1.57 9.49,3.27 14.23,4.85 0.56,0.23 1.13,0.34 1.69,0.56 16.37,5.88 32.86,12.2 49.46,19.31 0.45,0.11 0.79,0.34 1.24,0.56 4.85,2.15 9.82,4.18 14.68,6.55 1.13,0.45 2.25,1.02 3.39,1.47 4.17,2.03 8.35,3.95 12.64,6.1 1.36,0.56 2.82,1.24 4.18,2.03 3.95,2.03 7.79,3.95 11.74,6.1 1.47,0.68 3.05,1.46 4.51,2.37 3.84,2.03 7.8,4.07 11.63,6.32 1.36,0.79 2.94,1.58 4.29,2.49 4.07,2.25 8.02,4.51 12.08,6.88 1.24,0.79 2.48,1.47 3.73,2.26 4.63,2.82 9.26,5.65 13.88,8.47 0.57,0.33 1.13,0.68 1.7,1.13 10.5,6.66 20.99,13.77 31.27,21.11 0.9,0.79 2.03,1.58 3.05,2.37 3.95,2.94 7.9,5.88 11.74,8.81 1.47,1.13 3.05,2.49 4.51,3.62 3.39,2.71 6.78,5.31 10.17,8.13 1.57,1.35 3.27,2.82 4.96,4.17 3.16,2.71 6.33,5.31 9.37,8.13 1.7,1.47 3.5,3.05 5.2,4.52 3.04,2.82 6.09,5.64 8.91,8.35 1.7,1.58 3.39,3.27 4.97,4.74 3.16,3.05 6.1,6.1 9.03,9.04 1.47,1.58 3.05,3.16 4.52,4.63 3.39,3.5 6.66,6.99 9.82,10.61 1.13,1.13 2.38,2.48 3.5,3.72 8.69,9.83 17.16,19.88 25.29,30.49 1.13,1.58 2.38,3.27 3.5,4.85 2.82,3.73 5.65,7.46 8.24,11.3 1.47,2.14 2.94,4.17 4.29,6.32 2.48,3.5 4.74,7 7.11,10.5 1.47,2.37 2.94,4.63 4.41,7.11 2.14,3.39 4.29,7 6.43,10.51 1.47,2.48 2.94,4.96 4.29,7.45 2.15,3.61 4.07,7.22 6.1,10.83 1.36,2.6 2.82,5.09 4.18,7.8 2.03,3.72 3.84,7.56 5.75,11.4 1.24,2.6 2.6,5.08 3.84,7.79 2.03,4.18 3.84,8.47 5.76,12.76 1.02,2.37 2.15,4.63 3.16,7.11 2.6,6.1 5.08,12.31 7.45,18.63 0.45,1.02 0.79,2.03 1.13,2.94 2.49,6.66 4.86,13.32 7.12,20.21 0.9,2.6 1.69,5.19 2.6,7.9 1.46,4.63 2.93,9.37 4.28,14.11 0.91,3.16 1.7,6.33 2.71,9.49 1.13,4.51 2.38,8.92 3.5,13.55 0.79,3.39 1.58,6.77 2.49,10.16 1.01,4.51 2.03,8.92 3.04,13.66 0.68,3.5 1.36,6.99 2.15,10.61 0.9,4.63 1.69,9.37 2.6,14 0.56,3.61 1.13,7.22 1.69,10.95 0.79,4.85 1.36,9.82 2.15,14.68 0.45,3.61 1.01,7.22 1.36,10.95 0.67,5.31 1.13,10.84 1.69,16.26 0.34,3.38 0.68,6.77 0.9,10.16 0.57,7.22 1.02,14.67 1.47,22.01 0.11,1.92 0.23,3.73 0.34,5.65 0.34,8.46 0.68,17.27 0.79,25.96l0.23 -0.01 0.34 0.11z"/>
 </g>
</svg>
