<?xml version="1.0" encoding="UTF-8"?>
<!DOCTYPE svg PUBLIC "-//W3C//DTD SVG 1.1//EN" "http://www.w3.org/Graphics/SVG/1.1/DTD/svg11.dtd">
<!-- Creator: CorelDRAW -->
<svg xmlns="http://www.w3.org/2000/svg" xml:space="preserve" width="245.295mm" height="245.295mm" version="1.1" style="shape-rendering:geometricPrecision; text-rendering:geometricPrecision; image-rendering:optimizeQuality; fill-rule:evenodd; clip-rule:evenodd"
viewBox="0 0 24529.5 24529.5"
 xmlns:xlink="http://www.w3.org/1999/xlink"
 xmlns:xodm="http://www.corel.com/coreldraw/odm/2003">
 <defs>
  <style type="text/css">
   <![CDATA[
    .str0 {stroke:#CB8A2A;stroke-width:23.28;stroke-miterlimit:22.9256}
    .fil17 {fill:none}
    .fil5 {fill:none;fill-rule:nonzero}
    .fil10 {fill:#008E48;fill-rule:nonzero}
    .fil0 {fill:#6BC6B6;fill-rule:nonzero}
    .fil7 {fill:#971B1F;fill-rule:nonzero}
    .fil3 {fill:#B6D437;fill-rule:nonzero}
    .fil12 {fill:#B93726;fill-rule:nonzero}
    .fil14 {fill:#C75128;fill-rule:nonzero}
    .fil9 {fill:#D2272A;fill-rule:nonzero}
    .fil8 {fill:#DE6A26;fill-rule:nonzero}
    .fil13 {fill:#E98C2F;fill-rule:nonzero}
    .fil6 {fill:#EB2228;fill-rule:nonzero}
    .fil11 {fill:#ED9F23;fill-rule:nonzero}
    .fil4 {fill:#F295BE;fill-rule:nonzero}
    .fil16 {fill:#F7D099;fill-rule:nonzero}
    .fil15 {fill:#F7D2A7;fill-rule:nonzero}
    .fil2 {fill:#FEEE0B;fill-rule:nonzero}
    .fil1 {fill:white;fill-rule:nonzero}
   ]]>
  </style>
   <clipPath id="id0">
    <path d="M24102.88 6865.8l0 10594.52 0 0 0 151.74 -2.34 -0.05c-1.14,91.04 -4.67,180.89 -8.16,268.41 -1.14,19.85 -2.33,38.5 -3.48,58.35 -4.68,77.02 -9.35,152.89 -15.17,227.56 -2.34,36.17 -5.83,70.05 -9.35,105.03 -5.83,56.01 -10.5,113.18 -17.52,168.05 -3.48,38.51 -9.35,75.87 -14.02,113.19 -7.02,50.19 -12.84,102.68 -22.19,151.73 -5.82,38.51 -11.69,75.87 -17.51,113.18 -8.16,49.01 -16.32,98.06 -26.86,144.73 -7.02,37.36 -14.03,73.53 -22.19,110.89 -10.5,46.66 -21,93.38 -31.49,140.04 -8.16,35.03 -16.32,71.2 -25.68,105.03 -11.68,46.66 -24.52,93.38 -36.16,140.04 -9.36,32.69 -17.52,65.37 -28.01,98.06 -14.03,49 -29.16,98.05 -44.33,145.87 -8.16,28.01 -16.32,54.87 -26.87,81.69 -23.33,71.19 -47.85,140.04 -73.53,208.9 -3.48,9.35 -7.01,20.99 -11.69,30.34 -24.52,66.52 -50.19,129.55 -77.01,193.73 -10.5,24.53 -22.19,47.86 -32.68,72.34 -19.85,44.33 -38.51,88.7 -59.51,133.03 -12.83,28.01 -26.86,53.68 -39.7,80.55 -19.84,39.69 -38.5,79.35 -59.5,119.05 -14.03,26.86 -29.16,52.53 -43.18,79.35 -21,37.36 -40.85,74.68 -63.03,112.04 -14.03,26.86 -29.16,51.34 -44.33,77.01 -22.19,37.36 -44.33,73.53 -66.52,109.7 -15.17,24.53 -30.35,47.86 -45.52,72.34 -24.53,36.17 -47.86,73.53 -73.53,108.55 -14.03,22.19 -29.16,44.33 -44.33,65.37 -28.01,39.7 -56.02,78.21 -85.17,116.71 -11.69,16.32 -24.53,33.84 -36.17,50.2 -84.03,109.7 -171.54,214.72 -261.44,315.12 -11.69,12.83 -24.52,26.86 -36.17,39.69 -32.68,36.17 -66.51,72.34 -101.54,108.56 -15.17,16.32 -31.49,32.68 -46.66,47.85 -31.5,31.5 -61.85,63.04 -93.38,93.38 -16.32,16.32 -33.84,32.69 -51.35,49.01 -30.34,29.16 -61.84,58.36 -92.18,86.36 -17.52,15.18 -36.17,31.5 -53.69,47.86 -31.49,28.01 -64.17,54.87 -96.86,82.88 -17.51,14.03 -35.02,30.35 -51.34,43.19 -35.02,29.15 -70.05,56.02 -105.03,84.02 -15.17,12.84 -31.49,25.68 -46.66,37.37 -39.7,31.49 -80.55,61.84 -121.39,91.04 -10.5,8.16 -22.19,15.17 -31.5,24.52 -106.21,77.02 -214.72,149.4 -323.27,219.4 -5.82,3.48 -11.69,7.01 -17.51,10.5 -47.86,30.34 -95.72,59.5 -143.53,87.51 -12.84,8.16 -25.67,15.17 -38.51,23.33 -42.04,24.53 -82.88,47.86 -124.87,72.34 -14.03,8.16 -30.35,16.32 -44.33,24.53 -39.7,23.33 -80.55,44.33 -120.2,65.37l-46.67 25.67c-40.84,20.99 -80.54,40.84 -121.39,61.84 -14.02,7.01 -29.15,14.03 -43.18,22.19 -44.33,20.99 -87.51,40.84 -130.69,61.84 -11.69,5.82 -23.34,10.5 -35.03,16.32 -50.19,23.33 -101.54,44.33 -151.73,67.71 -4.68,1.14 -8.16,3.48 -12.84,4.67 -171.54,73.53 -340.78,140.05 -511.18,199.55 -5.82,2.34 -11.69,3.48 -17.51,5.82 -49,17.51 -99.2,35.03 -147.06,50.2 -9.35,3.48 -19.85,5.82 -28.01,9.35 -46.67,14.03 -92.19,29.16 -137.71,43.18 -10.5,3.49 -20.99,5.83 -31.49,9.35 -44.33,12.84 -89.85,28.01 -135.37,40.85 -9.35,2.34 -17.51,4.67 -28.01,7.01 -47.86,14.03 -95.72,28.01 -143.53,39.7 -4.68,1.15 -10.5,3.49 -15.18,4.68 -270.74,72.33 -532.17,129.54 -777.24,176.21 -3.49,0 -7.02,1.15 -10.5,1.15 -44.33,8.16 -88.7,16.32 -133.03,24.52 -4.68,1.15 -9.35,1.15 -14.03,2.34 -43.18,7.01 -85.17,14.03 -127.21,21 -3.49,1.14 -7.01,1.14 -11.69,2.33 -43.18,5.83 -86.37,12.84 -129.55,19.85l-2.42 -0.08c-224.08,32.68 -425.97,53.68 -601.03,68.85l-1.15 0c-33.83,3.48 -66.52,5.82 -98.06,8.16l-6.97 0c-30.34,2.34 -58.35,4.68 -85.17,5.82l-9.35 0c-26.86,2.34 -52.53,3.49 -78.21,4.68 -2.33,0 -4.67,1.15 -5.82,1.15 -26.86,1.14 -51.34,2.33 -75.87,3.48l-2.33 0.04c-25.68,1.15 -50.2,2.34 -73.53,2.34l0 3.49 -166.91 0c-9.35,0 -19.85,0 -26.87,1.14 -5.82,0 -11.68,0 -16.32,-1.14l-8883.57 0c-5.82,1.14 -10.5,1.14 -17.51,1.14 -7.01,-1.14 -15.17,-1.14 -25.67,-1.14l-137.71 0 0 -2.34 -10.54 0c-11.69,-1.15 -24.53,-1.15 -37.36,-1.15 -10.5,-1.15 -23.34,-1.15 -35.03,-1.15 -9.35,-1.14 -19.84,-1.14 -30.34,-2.33 -19.85,0 -39.7,-1.15 -60.7,-2.34 -4.67,0 -8.16,0 -11.69,-1.15 -755.1,-39.7 -2465.96,-229.89 -4012.34,-1104.05 -1545.18,-872.96 -2925.8,-2429.79 -3019.18,-5202.71l-3.48 -182.08 -1.1 0 0 -10687.9 1.19 0 3.48 -182.09c186.76,-5545.79 5520.17,-6226.17 7031.52,-6306.72 3.49,0 7.02,0 11.69,-1.14 21,-1.15 40.85,-1.15 60.7,-2.34 10.49,-1.15 20.99,-1.15 30.34,-1.15 11.69,-1.14 24.53,-1.14 35.03,-1.14 12.83,-1.15 25.67,-1.15 37.36,-1.15 3.48,-1.15 8.16,-1.15 10.49,-1.15l0 -2.33 9269.84 -0.09 0 3.48c24.53,1.15 49.01,2.34 74.68,2.34 1.14,1.15 2.33,1.15 2.33,1.15 24.53,0 49.01,1.14 75.87,3.48l5.82 0.04c25.68,1.15 51.35,2.34 78.21,4.68l9.35 0c28.01,2.34 54.87,3.49 85.18,5.82 2.33,0 4.67,0 7.01,1.15 31.49,2.34 64.18,4.68 98.05,7.01l1.15 0c175.07,14.03 376.96,36.17 601.03,68.86l2.34 0c43.18,5.82 86.36,12.83 129.55,20.99 4.67,0 8.16,1.15 11.69,1.15 42.03,7.01 84.02,12.84 127.21,21 4.67,1.14 9.35,2.33 14.02,2.33 43.19,8.16 87.52,15.18 133.04,24.53 3.48,1.15 7.01,1.15 10.49,2.34 243.93,44.33 505.32,102.68 777.25,175.07 4.68,2.33 10.5,3.48 15.17,4.67 47.86,12.84 95.72,26.86 143.54,39.7 9.35,2.34 17.51,5.82 28.01,8.16 44.32,12.84 89.85,26.86 135.37,39.7 10.49,3.48 20.99,7.01 31.49,9.35 44.33,14.03 89.85,29.15 137.71,44.33 8.16,2.34 17.51,5.82 28.01,8.16 47.86,16.32 98.05,33.83 147.06,50.19 5.82,2.34 11.69,3.49 17.51,5.83 169.2,60.69 339.59,126.06 511.18,199.55 4.67,1.14 8.16,3.48 12.84,5.82 50.19,22.19 101.53,43.18 151.73,67.71 11.69,4.67 23.33,10.49 35.02,15.17 43.19,21 86.37,40.85 130.7,63.03 14.02,5.82 29.15,12.84 43.18,21 40.85,20.99 80.54,40.84 121.39,63.03 15.17,7.01 31.49,15.17 46.67,24.52 39.69,21 80.54,42.04 120.19,65.37 14.03,8.16 30.35,16.32 44.33,25.68 42.04,23.33 82.88,46.66 124.88,71.19 12.83,8.16 25.67,15.17 38.5,23.33 47.86,29.16 95.72,58.36 143.53,87.51 5.83,3.49 11.69,7.02 17.52,11.69 108.55,68.86 217.06,142.39 323.27,218.25 9.35,8.16 21,16.32 31.5,24.53 40.84,30.35 81.69,60.69 121.38,91.04 15.18,11.69 31.5,25.67 46.67,37.36 35.02,28.01 70.05,54.87 105.03,84.03 16.32,14.03 33.83,29.15 51.34,43.18 32.68,28.01 65.37,54.87 96.86,84.03 17.51,15.17 36.17,31.49 53.68,46.67 31.5,29.15 63.03,58.35 92.19,86.36 17.51,16.32 35.02,33.83 51.34,49.01 32.69,31.49 63.04,63.03 93.38,93.38 15.18,16.32 31.5,32.68 46.67,47.85 35.02,36.17 68.85,72.34 101.54,109.7 11.69,11.69 24.52,25.68 36.17,38.51 89.85,101.54 177.41,205.42 261.43,315.12 11.69,16.32 24.53,33.83 36.17,50.19 29.16,38.51 58.36,77.02 85.18,116.72 15.17,22.18 30.34,43.18 44.33,65.37 25.67,36.16 49,72.33 73.53,108.55 15.17,24.52 30.34,47.86 45.52,73.53 22.18,35.02 44.33,72.34 66.51,108.55 15.18,25.67 30.35,51.34 44.33,77.01 22.19,37.37 42.04,74.68 63.04,112.04 14.02,26.86 29.15,52.54 43.18,80.55 20.99,38.5 39.7,78.2 59.5,117.85 12.84,26.87 26.86,52.54 39.7,80.55 21,43.18 39.7,87.51 59.5,131.88 10.5,24.53 22.19,47.86 32.69,73.53 26.86,63.04 52.53,127.21 77.01,192.58 4.68,10.5 8.16,21 11.69,30.35 25.67,68.86 50.2,137.71 73.53,208.9 9.35,26.86 17.51,53.68 26.86,81.69 15.18,47.86 30.35,96.87 44.33,145.87 9.35,32.69 17.51,65.37 28.01,98.06 11.69,46.66 24.53,92.18 36.17,140.04 8.16,35.02 16.32,70.05 25.67,105.03 10.5,46.66 21,92.18 31.5,141.19 7.01,36.17 14.02,72.34 22.18,109.7 9.36,47.86 17.52,96.86 26.87,144.72 5.82,37.36 11.69,74.68 17.51,113.18 8.16,50.2 14.02,101.54 22.18,151.74 4.68,37.36 10.5,74.68 14.03,113.18 7.01,54.88 11.69,112.04 17.51,168.06 3.49,35.02 7.02,70.04 9.35,105.02 5.83,74.68 10.5,151.74 15.18,227.56 1.14,19.85 2.34,38.51 3.48,58.36 3.49,87.51 7.02,178.55 8.16,268.4l2.38 -0.13 3.53 1.19z"/>
   </clipPath>
 </defs>
 <g id="Capa_x0020_1">
  <metadata id="CorelCorpID_0Corel-Layer"/>
  <g>
  </g>
  <g style="clip-path:url(#id0)">
   <g id="_1893882922512">
    <rect class="fil0" x="250.62" y="316.26" width="12027.67" height="12027.67"/>
    <g>
     <path class="fil1" d="M8228.63 6987.14c0,0 24.53,-30.34 21,-60.69l-21 60.69zm0 0l0 0 0 0z"/>
    </g>
    <rect class="fil1" transform="matrix(3.44241 -2.75789 2.75789 3.44241 8472.02 9786.05)" width="605.37" height="280.46"/>
    <rect class="fil1" transform="matrix(3.44241 -2.75789 2.75789 3.44241 9431.02 10983.3)" width="605.37" height="635"/>
    <path class="fil1" d="M4921.2 3218.77c-1670.06,1338.62 -1939.65,3777.77 -601.03,5447.83 1338.62,1670.06 3777.77,1939.65 5447.83,601.03 1670.06,-1338.62 1939.65,-3777.77 601.03,-5447.83 -1338.62,-1670.06 -3777.77,-1939.65 -5447.83,-601.03zm4236.37 5286.74c-1248.73,1001.32 -3074,799.44 -4074.18,-449.29 -1000.17,-1248.73 -799.43,-3074.01 449.3,-4074.18 1248.73,-1001.33 3074,-799.44 4074.18,449.29 1001.32,1248.73 799.43,3074.01 -449.3,4074.18z"/>
    <path class="fil1" d="M5893.32 7407.28c-555.51,-693.21 -850.77,-1483.34 -875.3,-2192.88 -369.94,840.28 -271.93,1853.29 341.94,2620.04 613.86,766.74 1581.35,1083.01 2482.32,904.45 -686.25,-179.74 -1393.45,-639.53 -1948.96,-1332.75l0 1.14z"/>
    <path class="fil1" d="M8801.66 4888.79c246.26,236.91 397.95,522.82 443.47,792.42 99.2,-339.6 11.69,-720.08 -261.44,-981.48 -271.93,-261.43 -657.04,-333.77 -992.01,-221.73 270.74,33.83 563.67,173.88 809.93,410.79l0.05 0z"/>
    <rect class="fil2" x="250.62" y="12357.96" width="12027.67" height="12027.67"/>
    <rect class="fil3" x="12278.29" y="316.26" width="12027.67" height="12027.67"/>
    <rect class="fil4" x="12278.29" y="12357.96" width="12027.67" height="12027.67"/>
    <path class="fil5" d="M8520.37 5248.28c0,0 155.22,219.39 395.62,183.22"/>
    <polygon class="fil6" points="8863.5,21308.09 2597.58,20732.73 2597.58,14207.72 8888.02,14560.19 "/>
    <polygon class="fil7" points="10457.69,20215.73 8863.5,21308.09 8888.02,14560.19 10541.72,13961.46 "/>
    <polygon class="fil7" points="8888.02,14560.19 2597.58,14207.72 4624.74,13655.69 10541.72,13961.46 "/>
    <polygon class="fil8" points="8888.02,14560.19 9872.98,16531.34 10541.72,13961.46 "/>
    <path class="fil9" d="M16822.81 4958.83c0,0 -2540.69,-481.98 -2715.76,2592.03 0,0 -20.99,3022.66 3309.78,3432.3 0,0 3320.26,255.57 3965.62,-2940.97 0,0 327.96,-2162.54 -1352.6,-2981.82 0,0 -1455.34,-625.55 -3207.09,-102.69l0.05 1.15z"/>
    <path class="fil10" d="M17386.48 3784.78c0,0 -364.12,-46.67 -302.28,205.42 0,0 420.14,261.43 450.48,1398.12l25.68 117.86 476.15 30.35 199.55 -77.02 -246.26 -205.41c0,0 -184.37,-1014.16 -604.51,-1470.51l1.19 1.19z"/>
    <g>
     <path class="fil10" d="M17155.39 3962.14c0,0 130.7,-28.01 186.71,-117.86l-186.71 117.86zm0 0l0 0 0 0z"/>
    </g>
    <path class="fil10" d="M17862.64 5445.49c0,0 1378.27,-107.36 850.77,1275.59 0,0 -148.2,-891.62 -1091.21,-1121.52l240.39 -154.07 0.05 0z"/>
    <path class="fil10" d="M17832.29 5523.69l-424.82 -140.04c0,0 -1521.85,158.7 -1644.38,1541.65 0,0 732.91,-1056.19 2069.2,-1401.61z"/>
    <path class="fil10" d="M17560.36 5240.07c0,0 -896.3,-823.96 -1895.28,203.08 0,0 773.76,-469.14 1931.49,32.68l-36.17 -235.76 -0.04 0z"/>
    <path class="fil10" d="M17622.24 4927.34c0,0 -578.84,-491.33 -1204.4,-383.97 0,0 538,0 1076.04,737.59l231.09 -102.69 -102.68 -250.93 -0.05 0z"/>
    <path class="fil10" d="M17806.62 5240.07c0,0 491.33,-917.29 1674.73,-861.27 0,0 -501.83,40.84 -1280.27,973.31l-394.46 -113.19 0 1.15z"/>
    <path class="fil10" d="M18205.76 5537.68c0,0 522.83,-445.82 2136.87,-696.75 0,0 -902.12,-409.64 -2315.42,512.33l179.74 184.37 -1.19 0.05z"/>
    <path class="fil11" d="M20088.2 21008.15c-644.21,194.92 -1214.89,404.96 -2700.58,404.96 -1791.44,0 -2110.04,-206.56 -2763.56,-404.96l0 -6426.96 5464.14 0 0 6426.96z"/>
    <path class="fil12" d="M20204.92 14428.31l-5724.39 0 0 291.78c907.98,52.53 1866.12,82.88 2870.97,81.69 997.84,0 1950.15,-30.35 2853.46,-81.69l0 -291.78 -0.04 0z"/>
    <ellipse class="fil13" cx="17337.47" cy="14434.13" rx="2823.07" ry="81.69"/>
    <path class="fil14" d="M14625.25 20702.38l-109.7 89.85 0 225.23c0,0 361.78,441.13 2841.77,441.13 2479.99,0 2807.94,-458.65 2807.94,-458.65l0 -179.74 -77.01 -116.71c0,0 292.93,620.88 -2732.07,620.88 -3025.01,0 -2732.08,-620.88 -2732.08,-620.88l1.15 -1.11z"/>
    <circle class="fil15" cx="17337.47" cy="17819.77" r="1926.77"/>
    <circle class="fil9" cx="17337.47" cy="17819.77" r="1349.12"/>
    <path class="fil5 str0" d="M14625.25 15260.42c0,0 1032.86,199.55 2732.07,199.55 1699.22,0 2732.08,-127.21 2732.08,-127.21"/>
    <path class="fil5 str0" d="M14625.25 15664.2c0,0 1032.86,199.55 2732.07,199.55 1699.22,0 2732.08,-127.21 2732.08,-127.21"/>
    <path class="fil5 str0" d="M14625.25 16098.36c0,0 1032.86,199.55 2732.07,199.55 1699.22,0 2732.08,-127.21 2732.08,-127.21"/>
    <path class="fil5 str0" d="M14625.25 16500.99c0,0 1032.86,199.55 2732.07,199.55 1699.22,0 2732.08,-127.21 2732.08,-127.21"/>
    <path class="fil5 str0" d="M14625.25 16904.77c0,0 1032.86,199.55 2732.07,199.55 1699.22,0 2732.08,-127.21 2732.08,-127.21"/>
    <path class="fil5 str0" d="M14625.25 17307.44c0,0 1032.86,199.55 2732.07,199.55 1699.22,0 2732.08,-127.21 2732.08,-127.21"/>
    <path class="fil5 str0" d="M14625.25 17741.56c0,0 1032.86,199.55 2732.07,199.55 1699.22,0 2732.08,-127.21 2732.08,-127.21"/>
    <path class="fil5 str0" d="M14625.25 18145.38c0,0 1032.86,269.59 2732.07,269.59 1699.22,0 2732.08,-197.21 2732.08,-197.21"/>
    <path class="fil5 str0" d="M14625.25 18548.01c0,0 1032.86,302.28 2732.07,302.28 1699.22,0 2732.08,-229.9 2732.08,-229.9"/>
    <path class="fil5 str0" d="M14625.25 18951.78c0,0 1032.86,287.11 2732.07,287.11 1699.22,0 2732.08,-214.72 2732.08,-214.72"/>
    <path class="fil5 str0" d="M14625.25 19385.95c0,0 1032.86,302.28 2732.07,302.28 1699.22,0 2732.08,-229.9 2732.08,-229.9"/>
    <path class="fil5 str0" d="M14625.25 19789.72c0,0 1032.86,302.28 2732.07,302.28 1699.22,0 2732.08,-229.89 2732.08,-229.89"/>
    <path class="fil5 str0" d="M14625.25 20192.4c0,0 1032.86,302.27 2732.07,302.27 1699.22,0 2732.08,-229.89 2732.08,-229.89"/>
    <path class="fil5 str0" d="M14625.25 20596.17c0,0 1032.86,302.28 2732.07,302.28 1699.22,0 2732.08,-229.9 2732.08,-229.9"/>
    <circle class="fil16" cx="5742.78" cy="17634.2" r="2019.01"/>
    <circle class="fil6" cx="5742.78" cy="17634.2" r="1141.37"/>
   </g>
  </g>
  <path class="fil17" d="M24102.88 6865.8l0 10594.52 0 0 0 151.74 -2.34 -0.05c-1.14,91.04 -4.67,180.89 -8.16,268.41 -1.14,19.85 -2.33,38.5 -3.48,58.35 -4.68,77.02 -9.35,152.89 -15.17,227.56 -2.34,36.17 -5.83,70.05 -9.35,105.03 -5.83,56.01 -10.5,113.18 -17.52,168.05 -3.48,38.51 -9.35,75.87 -14.02,113.19 -7.02,50.19 -12.84,102.68 -22.19,151.73 -5.82,38.51 -11.69,75.87 -17.51,113.18 -8.16,49.01 -16.32,98.06 -26.86,144.73 -7.02,37.36 -14.03,73.53 -22.19,110.89 -10.5,46.66 -21,93.38 -31.49,140.04 -8.16,35.03 -16.32,71.2 -25.68,105.03 -11.68,46.66 -24.52,93.38 -36.16,140.04 -9.36,32.69 -17.52,65.37 -28.01,98.06 -14.03,49 -29.16,98.05 -44.33,145.87 -8.16,28.01 -16.32,54.87 -26.87,81.69 -23.33,71.19 -47.85,140.04 -73.53,208.9 -3.48,9.35 -7.01,20.99 -11.69,30.34 -24.52,66.52 -50.19,129.55 -77.01,193.73 -10.5,24.53 -22.19,47.86 -32.68,72.34 -19.85,44.33 -38.51,88.7 -59.51,133.03 -12.83,28.01 -26.86,53.68 -39.7,80.55 -19.84,39.69 -38.5,79.35 -59.5,119.05 -14.03,26.86 -29.16,52.53 -43.18,79.35 -21,37.36 -40.85,74.68 -63.03,112.04 -14.03,26.86 -29.16,51.34 -44.33,77.01 -22.19,37.36 -44.33,73.53 -66.52,109.7 -15.17,24.53 -30.35,47.86 -45.52,72.34 -24.53,36.17 -47.86,73.53 -73.53,108.55 -14.03,22.19 -29.16,44.33 -44.33,65.37 -28.01,39.7 -56.02,78.21 -85.17,116.71 -11.69,16.32 -24.53,33.84 -36.17,50.2 -84.03,109.7 -171.54,214.72 -261.44,315.12 -11.69,12.83 -24.52,26.86 -36.17,39.69 -32.68,36.17 -66.51,72.34 -101.54,108.56 -15.17,16.32 -31.49,32.68 -46.66,47.85 -31.5,31.5 -61.85,63.04 -93.38,93.38 -16.32,16.32 -33.84,32.69 -51.35,49.01 -30.34,29.16 -61.84,58.36 -92.18,86.36 -17.52,15.18 -36.17,31.5 -53.69,47.86 -31.49,28.01 -64.17,54.87 -96.86,82.88 -17.51,14.03 -35.02,30.35 -51.34,43.19 -35.02,29.15 -70.05,56.02 -105.03,84.02 -15.17,12.84 -31.49,25.68 -46.66,37.37 -39.7,31.49 -80.55,61.84 -121.39,91.04 -10.5,8.16 -22.19,15.17 -31.5,24.52 -106.21,77.02 -214.72,149.4 -323.27,219.4 -5.82,3.48 -11.69,7.01 -17.51,10.5 -47.86,30.34 -95.72,59.5 -143.53,87.51 -12.84,8.16 -25.67,15.17 -38.51,23.33 -42.04,24.53 -82.88,47.86 -124.87,72.34 -14.03,8.16 -30.35,16.32 -44.33,24.53 -39.7,23.33 -80.55,44.33 -120.2,65.37l-46.67 25.67c-40.84,20.99 -80.54,40.84 -121.39,61.84 -14.02,7.01 -29.15,14.03 -43.18,22.19 -44.33,20.99 -87.51,40.84 -130.69,61.84 -11.69,5.82 -23.34,10.5 -35.03,16.32 -50.19,23.33 -101.54,44.33 -151.73,67.71 -4.68,1.14 -8.16,3.48 -12.84,4.67 -171.54,73.53 -340.78,140.05 -511.18,199.55 -5.82,2.34 -11.69,3.48 -17.51,5.82 -49,17.51 -99.2,35.03 -147.06,50.2 -9.35,3.48 -19.85,5.82 -28.01,9.35 -46.67,14.03 -92.19,29.16 -137.71,43.18 -10.5,3.49 -20.99,5.83 -31.49,9.35 -44.33,12.84 -89.85,28.01 -135.37,40.85 -9.35,2.34 -17.51,4.67 -28.01,7.01 -47.86,14.03 -95.72,28.01 -143.53,39.7 -4.68,1.15 -10.5,3.49 -15.18,4.68 -270.74,72.33 -532.17,129.54 -777.24,176.21 -3.49,0 -7.02,1.15 -10.5,1.15 -44.33,8.16 -88.7,16.32 -133.03,24.52 -4.68,1.15 -9.35,1.15 -14.03,2.34 -43.18,7.01 -85.17,14.03 -127.21,21 -3.49,1.14 -7.01,1.14 -11.69,2.33 -43.18,5.83 -86.37,12.84 -129.55,19.85l-2.42 -0.08c-224.08,32.68 -425.97,53.68 -601.03,68.85l-1.15 0c-33.83,3.48 -66.52,5.82 -98.06,8.16l-6.97 0c-30.34,2.34 -58.35,4.68 -85.17,5.82l-9.35 0c-26.86,2.34 -52.53,3.49 -78.21,4.68 -2.33,0 -4.67,1.15 -5.82,1.15 -26.86,1.14 -51.34,2.33 -75.87,3.48l-2.33 0.04c-25.68,1.15 -50.2,2.34 -73.53,2.34l0 3.49 -166.91 0c-9.35,0 -19.85,0 -26.87,1.14 -5.82,0 -11.68,0 -16.32,-1.14l-8883.57 0c-5.82,1.14 -10.5,1.14 -17.51,1.14 -7.01,-1.14 -15.17,-1.14 -25.67,-1.14l-137.71 0 0 -2.34 -10.54 0c-11.69,-1.15 -24.53,-1.15 -37.36,-1.15 -10.5,-1.15 -23.34,-1.15 -35.03,-1.15 -9.35,-1.14 -19.84,-1.14 -30.34,-2.33 -19.85,0 -39.7,-1.15 -60.7,-2.34 -4.67,0 -8.16,0 -11.69,-1.15 -755.1,-39.7 -2465.96,-229.89 -4012.34,-1104.05 -1545.18,-872.96 -2925.8,-2429.79 -3019.18,-5202.71l-3.48 -182.08 -1.1 0 0 -10687.9 1.19 0 3.48 -182.09c186.76,-5545.79 5520.17,-6226.17 7031.52,-6306.72 3.49,0 7.02,0 11.69,-1.14 21,-1.15 40.85,-1.15 60.7,-2.34 10.49,-1.15 20.99,-1.15 30.34,-1.15 11.69,-1.14 24.53,-1.14 35.03,-1.14 12.83,-1.15 25.67,-1.15 37.36,-1.15 3.48,-1.15 8.16,-1.15 10.49,-1.15l0 -2.33 9269.84 -0.09 0 3.48c24.53,1.15 49.01,2.34 74.68,2.34 1.14,1.15 2.33,1.15 2.33,1.15 24.53,0 49.01,1.14 75.87,3.48l5.82 0.04c25.68,1.15 51.35,2.34 78.21,4.68l9.35 0c28.01,2.34 54.87,3.49 85.18,5.82 2.33,0 4.67,0 7.01,1.15 31.49,2.34 64.18,4.68 98.05,7.01l1.15 0c175.07,14.03 376.96,36.17 601.03,68.86l2.34 0c43.18,5.82 86.36,12.83 129.55,20.99 4.67,0 8.16,1.15 11.69,1.15 42.03,7.01 84.02,12.84 127.21,21 4.67,1.14 9.35,2.33 14.02,2.33 43.19,8.16 87.52,15.18 133.04,24.53 3.48,1.15 7.01,1.15 10.49,2.34 243.93,44.33 505.32,102.68 777.25,175.07 4.68,2.33 10.5,3.48 15.17,4.67 47.86,12.84 95.72,26.86 143.54,39.7 9.35,2.34 17.51,5.82 28.01,8.16 44.32,12.84 89.85,26.86 135.37,39.7 10.49,3.48 20.99,7.01 31.49,9.35 44.33,14.03 89.85,29.15 137.71,44.33 8.16,2.34 17.51,5.82 28.01,8.16 47.86,16.32 98.05,33.83 147.06,50.19 5.82,2.34 11.69,3.49 17.51,5.83 169.2,60.69 339.59,126.06 511.18,199.55 4.67,1.14 8.16,3.48 12.84,5.82 50.19,22.19 101.53,43.18 151.73,67.71 11.69,4.67 23.33,10.49 35.02,15.17 43.19,21 86.37,40.85 130.7,63.03 14.02,5.82 29.15,12.84 43.18,21 40.85,20.99 80.54,40.84 121.39,63.03 15.17,7.01 31.49,15.17 46.67,24.52 39.69,21 80.54,42.04 120.19,65.37 14.03,8.16 30.35,16.32 44.33,25.68 42.04,23.33 82.88,46.66 124.88,71.19 12.83,8.16 25.67,15.17 38.5,23.33 47.86,29.16 95.72,58.36 143.53,87.51 5.83,3.49 11.69,7.02 17.52,11.69 108.55,68.86 217.06,142.39 323.27,218.25 9.35,8.16 21,16.32 31.5,24.53 40.84,30.35 81.69,60.69 121.38,91.04 15.18,11.69 31.5,25.67 46.67,37.36 35.02,28.01 70.05,54.87 105.03,84.03 16.32,14.03 33.83,29.15 51.34,43.18 32.68,28.01 65.37,54.87 96.86,84.03 17.51,15.17 36.17,31.49 53.68,46.67 31.5,29.15 63.03,58.35 92.19,86.36 17.51,16.32 35.02,33.83 51.34,49.01 32.69,31.49 63.04,63.03 93.38,93.38 15.18,16.32 31.5,32.68 46.67,47.85 35.02,36.17 68.85,72.34 101.54,109.7 11.69,11.69 24.52,25.68 36.17,38.51 89.85,101.54 177.41,205.42 261.43,315.12 11.69,16.32 24.53,33.83 36.17,50.19 29.16,38.51 58.36,77.02 85.18,116.72 15.17,22.18 30.34,43.18 44.33,65.37 25.67,36.16 49,72.33 73.53,108.55 15.17,24.52 30.34,47.86 45.52,73.53 22.18,35.02 44.33,72.34 66.51,108.55 15.18,25.67 30.35,51.34 44.33,77.01 22.19,37.37 42.04,74.68 63.04,112.04 14.02,26.86 29.15,52.54 43.18,80.55 20.99,38.5 39.7,78.2 59.5,117.85 12.84,26.87 26.86,52.54 39.7,80.55 21,43.18 39.7,87.51 59.5,131.88 10.5,24.53 22.19,47.86 32.69,73.53 26.86,63.04 52.53,127.21 77.01,192.58 4.68,10.5 8.16,21 11.69,30.35 25.67,68.86 50.2,137.71 73.53,208.9 9.35,26.86 17.51,53.68 26.86,81.69 15.18,47.86 30.35,96.87 44.33,145.87 9.35,32.69 17.51,65.37 28.01,98.06 11.69,46.66 24.53,92.18 36.17,140.04 8.16,35.02 16.32,70.05 25.67,105.03 10.5,46.66 21,92.18 31.5,141.19 7.01,36.17 14.02,72.34 22.18,109.7 9.36,47.86 17.52,96.86 26.87,144.72 5.82,37.36 11.69,74.68 17.51,113.18 8.16,50.2 14.02,101.54 22.18,151.74 4.68,37.36 10.5,74.68 14.03,113.18 7.01,54.88 11.69,112.04 17.51,168.06 3.49,35.02 7.02,70.04 9.35,105.02 5.83,74.68 10.5,151.74 15.18,227.56 1.14,19.85 2.34,38.51 3.48,58.36 3.49,87.51 7.02,178.55 8.16,268.4l2.38 -0.13 3.53 1.19z"/>
 </g>
</svg>
