<?xml version="1.0" encoding="UTF-8"?>
<!DOCTYPE svg PUBLIC "-//W3C//DTD SVG 1.1//EN" "http://www.w3.org/Graphics/SVG/1.1/DTD/svg11.dtd">
<!-- Creator: CorelDRAW -->
<svg xmlns="http://www.w3.org/2000/svg" xml:space="preserve" width="293.294mm" height="293.337mm" version="1.1" style="shape-rendering:geometricPrecision; text-rendering:geometricPrecision; image-rendering:optimizeQuality; fill-rule:evenodd; clip-rule:evenodd"
viewBox="0 0 29321.5 29325.76"
 xmlns:xlink="http://www.w3.org/1999/xlink"
 xmlns:xodm="http://www.corel.com/coreldraw/odm/2003">
 <defs>
  <style type="text/css">
   <![CDATA[
    .str0 {stroke:#CB8A2A;stroke-width:23.27;stroke-miterlimit:22.9256}
    .fil17 {fill:none}
    .fil5 {fill:none;fill-rule:nonzero}
    .fil10 {fill:#008E48;fill-rule:nonzero}
    .fil0 {fill:#6BC6B6;fill-rule:nonzero}
    .fil7 {fill:#971B1F;fill-rule:nonzero}
    .fil3 {fill:#B6D437;fill-rule:nonzero}
    .fil12 {fill:#B93726;fill-rule:nonzero}
    .fil14 {fill:#C75128;fill-rule:nonzero}
    .fil9 {fill:#D2272A;fill-rule:nonzero}
    .fil8 {fill:#DE6A26;fill-rule:nonzero}
    .fil13 {fill:#E98C2F;fill-rule:nonzero}
    .fil6 {fill:#EB2228;fill-rule:nonzero}
    .fil11 {fill:#ED9F23;fill-rule:nonzero}
    .fil4 {fill:#F295BE;fill-rule:nonzero}
    .fil16 {fill:#F7D099;fill-rule:nonzero}
    .fil15 {fill:#F7D2A7;fill-rule:nonzero}
    .fil2 {fill:#FEEE0B;fill-rule:nonzero}
    .fil1 {fill:white;fill-rule:nonzero}
   ]]>
  </style>
   <clipPath id="id0">
    <path d="M29321.5 8010.16l0 13116.22 0 0 0 187.86 -2.89 -0.06c-1.42,112.71 -5.79,223.95 -10.11,332.29 -1.42,24.57 -2.89,47.68 -4.31,72.25 -5.79,95.34 -11.58,189.27 -18.78,281.71 -2.9,44.79 -7.21,86.73 -11.58,130.02 -7.21,69.35 -13,140.12 -21.68,208.05 -4.31,47.68 -11.58,93.93 -17.37,140.13 -8.68,62.14 -15.89,127.13 -27.46,187.85 -7.21,47.67 -14.48,93.92 -21.68,140.12 -10.1,60.67 -20.2,121.4 -33.25,179.17 -8.69,46.25 -17.37,91.03 -27.47,137.28 -13,57.77 -25.99,115.6 -38.99,173.38 -10.1,43.36 -20.2,88.14 -31.78,130.01 -14.47,57.77 -30.36,115.61 -44.78,173.38 -11.58,40.46 -21.67,80.93 -34.67,121.4 -17.37,60.66 -36.1,121.39 -54.89,180.58 -10.11,34.68 -20.2,67.93 -33.26,101.13 -28.88,88.15 -59.24,173.38 -91.03,258.63 -4.32,11.58 -8.69,25.99 -14.48,37.57 -30.36,82.35 -62.14,160.38 -95.34,239.84 -13,30.36 -27.46,59.25 -40.46,89.56 -24.57,54.89 -47.68,109.82 -73.67,164.7 -15.9,34.68 -33.26,66.46 -49.15,99.72 -24.57,49.15 -47.68,98.23 -73.67,147.38 -17.37,33.26 -36.09,65.04 -53.46,98.24 -25.99,46.25 -50.57,92.44 -78.04,138.7 -17.37,33.26 -36.09,63.56 -54.88,95.34 -27.47,46.26 -54.89,91.04 -82.35,135.81 -18.78,30.36 -37.58,59.24 -56.36,89.56 -30.36,44.78 -59.24,91.04 -91.03,134.39 -17.37,27.46 -36.1,54.88 -54.89,80.93 -34.67,49.15 -69.35,96.81 -105.44,144.49 -14.48,20.2 -30.36,41.88 -44.78,62.14 -104.03,135.81 -212.37,265.83 -323.66,390.11 -14.48,15.9 -30.36,33.26 -44.78,49.15 -40.47,44.78 -82.35,89.57 -125.72,134.39 -18.78,20.2 -38.99,40.47 -57.77,59.25 -38.99,38.99 -76.56,78.03 -115.6,115.6 -20.2,20.2 -41.89,40.47 -63.56,60.67 -37.57,36.09 -76.56,72.24 -114.13,106.92 -21.68,18.78 -44.79,38.99 -66.46,59.25 -38.99,34.67 -79.46,67.93 -119.92,102.6 -21.68,17.37 -43.36,37.57 -63.56,53.47 -43.36,36.09 -86.72,69.35 -130.02,104.02 -18.78,15.9 -38.99,31.78 -57.77,46.26 -49.15,38.99 -99.71,76.56 -150.28,112.71 -13,10.11 -27.47,18.78 -38.99,30.36 -131.49,95.34 -265.84,184.96 -400.22,271.62 -7.21,4.32 -14.48,8.69 -21.68,13 -59.24,37.57 -118.5,73.67 -177.69,108.35 -15.9,10.1 -31.78,18.78 -47.68,28.88 -52.04,30.36 -102.6,59.25 -154.59,89.56 -17.37,10.11 -37.57,20.2 -54.89,30.36 -49.15,28.89 -99.71,54.89 -148.81,80.93l-57.77 31.78c-50.57,25.99 -99.71,50.57 -150.28,76.56 -17.37,8.69 -36.09,17.37 -53.46,27.47 -54.89,25.99 -108.34,50.57 -161.81,76.56 -14.48,7.21 -28.89,13 -43.36,20.2 -62.14,28.89 -125.71,54.89 -187.85,83.83 -5.79,1.42 -10.11,4.31 -15.9,5.79 -212.37,91.03 -421.9,173.37 -632.85,247.04 -7.21,2.9 -14.48,4.32 -21.68,7.21 -60.66,21.68 -122.81,43.36 -182.06,62.14 -11.58,4.32 -24.57,7.21 -34.67,11.58 -57.77,17.37 -114.14,36.1 -170.49,53.47 -13,4.31 -25.99,7.21 -38.99,11.58 -54.88,15.89 -111.23,34.67 -167.58,50.57 -11.58,2.89 -21.68,5.79 -34.68,8.68 -59.24,17.37 -118.5,34.68 -177.69,49.15 -5.79,1.42 -13,4.32 -18.78,5.79 -335.19,89.56 -658.84,160.39 -962.25,218.16 -4.31,0 -8.68,1.42 -13,1.42 -54.88,10.11 -109.81,20.2 -164.7,30.36 -5.79,1.42 -11.58,1.42 -17.37,2.9 -53.47,8.68 -105.45,17.37 -157.49,25.99 -4.32,1.42 -8.69,1.42 -14.48,2.89 -53.46,7.21 -106.92,15.9 -160.38,24.57l-3.01 -0.11c-277.4,40.47 -527.35,66.46 -744.09,85.25l-1.42 0c-41.88,4.31 -82.35,7.21 -121.39,10.1l-8.63 0c-37.58,2.9 -72.25,5.79 -105.45,7.21l-11.58 0c-33.26,2.9 -65.04,4.32 -96.82,5.79 -2.89,0 -5.79,1.42 -7.21,1.42 -33.25,1.42 -63.56,2.9 -93.92,4.32l-2.89 0.05c-31.78,1.42 -62.14,2.9 -91.04,2.9l0 4.31 -206.63 0c-11.58,0 -24.57,0 -33.26,1.42 -7.21,0 -14.47,0 -20.2,-1.42l-10998.03 0c-7.21,1.42 -13,1.42 -21.68,1.42 -8.68,-1.42 -18.78,-1.42 -31.78,-1.42l-170.48 0 0 -2.89 -13.05 0c-14.48,-1.42 -30.37,-1.42 -46.26,-1.42 -13,-1.42 -28.89,-1.42 -43.36,-1.42 -11.58,-1.42 -24.57,-1.42 -37.57,-2.9 -24.57,0 -49.15,-1.42 -75.14,-2.89 -5.79,0 -10.11,0 -14.48,-1.42 -934.83,-49.15 -3052.9,-284.62 -4967.36,-1366.84 -1912.97,-1080.75 -3622.2,-3008.13 -3737.8,-6441.06l-4.32 -225.42 -1.36 0 0 -13231.84 1.47 0 4.32 -225.42c231.21,-6865.8 6834.07,-7708.12 8705.15,-7807.84 4.32,0 8.69,0 14.48,-1.42 25.99,-1.42 50.57,-1.42 75.14,-2.9 13,-1.42 25.99,-1.42 37.57,-1.42 14.47,-1.42 30.36,-1.42 43.36,-1.42 15.89,-1.42 31.78,-1.42 46.25,-1.42 4.32,-1.42 10.11,-1.42 13,-1.42l0 -2.89 11476.24 -0.11 0 4.31c30.36,1.42 60.67,2.9 92.45,2.9 1.42,1.42 2.89,1.42 2.89,1.42 30.36,0 60.67,1.42 93.92,4.31l7.21 0.06c31.78,1.42 63.56,2.89 96.82,5.79l11.58 0c34.67,2.89 67.93,4.31 105.45,7.21 2.89,0 5.79,0 8.68,1.42 38.99,2.89 79.46,5.79 121.4,8.68l1.42 0c216.73,17.37 466.67,44.78 744.09,85.25l2.89 0c53.47,7.21 106.92,15.89 160.39,25.99 5.79,0 10.1,1.42 14.47,1.42 52.05,8.68 104.03,15.89 157.49,25.99 5.79,1.42 11.58,2.89 17.37,2.89 53.47,10.11 108.35,18.78 164.71,30.36 4.31,1.42 8.68,1.42 13,2.9 301.98,54.88 625.58,127.13 962.24,216.74 5.79,2.89 13,4.31 18.78,5.79 59.25,15.89 118.51,33.25 177.7,49.15 11.58,2.89 21.67,7.21 34.67,10.1 54.89,15.9 111.24,33.26 167.59,49.15 13,4.32 25.99,8.69 38.99,11.58 54.89,17.37 111.24,36.1 170.48,54.89 10.11,2.89 21.68,7.21 34.68,10.1 59.24,20.2 121.39,41.89 182.06,62.14 7.21,2.9 14.47,4.32 21.67,7.21 209.48,75.15 420.43,156.08 632.86,247.05 5.79,1.42 10.1,4.31 15.89,7.21 62.14,27.46 125.71,53.46 187.85,83.82 14.48,5.79 28.89,13 43.36,18.78 53.47,25.99 106.93,50.57 161.81,78.04 17.37,7.21 36.1,15.89 53.47,25.99 50.57,25.99 99.71,50.57 150.28,78.04 18.78,8.68 38.99,18.78 57.77,30.36 49.15,25.99 99.71,52.04 148.81,80.93 17.37,10.1 37.57,20.2 54.88,31.78 52.05,28.88 102.61,57.77 154.6,88.14 15.9,10.1 31.78,18.78 47.68,28.88 59.24,36.1 118.5,72.25 177.69,108.35 7.21,4.31 14.47,8.68 21.67,14.47 134.39,85.25 268.73,176.27 400.22,270.2 11.58,10.11 25.99,20.2 38.99,30.36 50.57,37.57 101.13,75.14 150.29,112.72 18.78,14.47 38.99,31.78 57.77,46.25 43.36,34.68 86.72,67.93 130.01,104.03 20.2,17.37 41.89,36.09 63.56,53.46 40.47,34.68 80.93,67.93 119.93,104.03 21.67,18.78 44.78,38.99 66.45,57.77 38.99,36.1 78.04,72.25 114.13,106.92 21.68,20.2 43.36,41.89 63.56,60.67 40.47,38.99 78.04,78.03 115.61,115.6 18.78,20.2 38.99,40.47 57.77,59.25 43.36,44.78 85.25,89.56 125.71,135.81 14.48,14.47 30.36,31.78 44.78,47.67 111.24,125.71 219.63,254.31 323.66,390.12 14.48,20.2 30.36,41.88 44.78,62.14 36.1,47.67 72.25,95.34 105.45,144.49 18.78,27.46 37.57,53.46 54.88,80.93 31.78,44.78 60.67,89.56 91.04,134.39 18.78,30.36 37.57,59.24 56.35,91.03 27.47,43.36 54.89,89.56 82.35,134.39 18.78,31.78 37.57,63.56 54.89,95.34 27.46,46.25 52.04,92.45 78.03,138.7 17.37,33.26 36.1,65.04 53.47,99.71 25.99,47.68 49.15,96.82 73.67,145.91 15.89,33.26 33.25,65.04 49.15,99.71 25.99,53.47 49.15,108.35 73.66,163.29 13,30.36 27.47,59.24 40.47,91.03 33.25,78.04 65.03,157.49 95.34,238.43 5.79,13 10.1,25.99 14.47,37.57 31.78,85.24 62.14,170.48 91.04,258.62 11.58,33.25 21.67,66.45 33.25,101.13 18.78,59.25 37.58,119.92 54.89,180.59 11.58,40.46 21.68,80.93 34.68,121.39 14.47,57.77 30.36,114.14 44.78,173.38 10.1,43.36 20.2,86.72 31.78,130.02 13,57.77 25.99,114.13 38.99,174.8 8.68,44.78 17.37,89.56 27.46,135.8 11.58,59.25 21.68,119.92 33.26,179.17 7.21,46.25 14.47,92.45 21.67,140.12 10.11,62.14 17.37,125.71 27.47,187.85 5.79,46.26 13,92.45 17.37,140.12 8.68,67.94 14.47,138.71 21.67,208.06 4.32,43.36 8.69,86.72 11.58,130.01 7.21,92.45 13,187.86 18.78,281.72 1.42,24.57 2.9,47.68 4.32,72.25 4.31,108.34 8.68,221.05 10.1,332.29l2.95 -0.17 4.37 1.48z"/>
   </clipPath>
 </defs>
 <g id="Capa_x0020_1">
  <metadata id="CorelCorpID_0Corel-Layer"/>
  <g>
  </g>
  <g style="clip-path:url(#id0)">
   <g id="_1893887976576">
    <rect class="fil0" x="-208.06" y="-98.3" width="14890.49" height="14890.49"/>
    <g>
     <path class="fil1" d="M9668.87 8160.39c0,0 30.36,-37.57 25.99,-75.15l-25.99 75.15zm0 0l0 0 0 0z"/>
    </g>
    <rect class="fil1" transform="matrix(4.26292 -3.41525 3.41525 4.26292 9970.19 11625.5)" width="605.21" height="280.38"/>
    <rect class="fil1" transform="matrix(4.26292 -3.41525 3.41525 4.26292 11157.5 13107.8)" width="605.21" height="634.83"/>
    <path class="fil1" d="M5574.21 3495.06c-2067.57,1657.24 -2401.33,4676.95 -744.09,6744.52 1657.24,2067.56 4676.95,2401.32 6744.51,744.08 2067.57,-1657.24 2401.33,-4676.94 744.09,-6744.51 -1657.24,-2067.56 -4676.95,-2401.33 -6744.51,-744.09zm5244.71 6545.09c-1545.95,1239.65 -3805.68,989.72 -5043.91,-556.23 -1238.23,-1545.95 -989.72,-3805.69 556.23,-5043.92 1545.95,-1239.65 3805.69,-989.71 5043.92,556.24 1239.65,1545.95 989.71,3805.68 -556.24,5043.91z"/>
    <path class="fil1" d="M6777.72 8680.53c-687.73,-858.22 -1053.27,-1836.41 -1083.64,-2714.84 -458,1040.28 -336.66,2294.41 423.32,3243.65 759.98,949.25 1957.75,1340.79 3073.17,1119.74 -849.59,-222.53 -1725.11,-791.76 -2412.85,-1649.97l0 1.42z"/>
    <path class="fil1" d="M10378.29 5562.57c304.88,293.3 492.67,647.27 549.02,981.03 122.82,-420.43 14.48,-891.47 -323.65,-1215.08 -336.66,-323.66 -813.44,-413.22 -1228.14,-274.52 335.18,41.89 697.83,215.27 1002.71,508.56l0.06 0z"/>
    <rect class="fil2" x="-208.06" y="14809.56" width="14890.49" height="14890.49"/>
    <rect class="fil3" x="14682.43" y="-98.3" width="14890.49" height="14890.49"/>
    <rect class="fil4" x="14682.43" y="14809.56" width="14890.49" height="14890.49"/>
    <path class="fil5" d="M10030.05 6007.63c0,0 192.17,271.62 489.78,226.84"/>
    <polygon class="fil6" points="10454.85,25890 2697.52,25177.69 2697.52,17099.59 10485.21,17535.96 "/>
    <polygon class="fil7" points="12428.49,24537.64 10454.85,25890 10485.21,17535.96 12532.52,16794.72 "/>
    <polygon class="fil7" points="10485.21,17535.96 2697.52,17099.59 5207.19,16416.18 12532.52,16794.72 "/>
    <polygon class="fil8" points="10485.21,17535.96 11704.6,19976.28 12532.52,16794.72 "/>
    <path class="fil9" d="M20308.63 5649.29c0,0 -3145.42,-596.7 -3362.16,3208.98 0,0 -25.99,3742.12 4097.56,4249.27 0,0 4110.56,316.39 4909.53,-3640.98 0,0 406.01,-2677.27 -1674.56,-3691.55 0,0 -1801.73,-774.45 -3970.44,-127.14l0.06 1.42z"/>
    <path class="fil10" d="M21006.46 4195.79c0,0 -450.79,-57.77 -374.23,254.31 0,0 520.14,323.66 557.71,1730.91l31.79 145.91 589.49 37.57 247.04 -95.34 -304.88 -254.31c0,0 -228.26,-1255.55 -748.4,-1820.52l1.47 1.47z"/>
    <g>
     <path class="fil10" d="M20720.37 4415.37c0,0 161.81,-34.68 231.16,-145.91l-231.16 145.91zm0 0l0 0 0 0z"/>
    </g>
    <path class="fil10" d="M21595.95 6251.79c0,0 1706.34,-132.91 1053.28,1579.2 0,0 -183.48,-1103.84 -1350.94,-1388.46l297.61 -190.74 0.05 0z"/>
    <path class="fil10" d="M21558.38 6348.6l-525.93 -173.37c0,0 -1884.08,196.48 -2035.78,1908.59 0,0 907.36,-1307.59 2561.71,-1735.22z"/>
    <path class="fil10" d="M21221.73 5997.48c0,0 -1109.64,-1020.07 -2346.39,251.41 0,0 957.93,-580.8 2391.22,40.47l-44.78 -291.88 -0.05 0z"/>
    <path class="fil10" d="M21298.34 5610.3c0,0 -716.62,-608.28 -1491.07,-475.36 0,0 666.05,0 1332.16,913.15l286.09 -127.13 -127.13 -310.67 -0.06 0z"/>
    <path class="fil10" d="M21526.6 5997.48c0,0 608.29,-1135.62 2073.36,-1066.27 0,0 -621.27,50.57 -1585,1204.97l-488.36 -140.12 0 1.42z"/>
    <path class="fil10" d="M22020.75 6365.92c0,0 647.27,-551.92 2645.48,-862.59 0,0 -1116.84,-507.14 -2866.53,634.27l222.53 228.26 -1.48 0.06z"/>
    <path class="fil11" d="M24351.26 25518.66c-797.55,241.31 -1504.07,501.35 -3343.37,501.35 -2217.84,0 -2612.27,-255.72 -3421.34,-501.35l0 -7956.7 6764.72 0 0 7956.7z"/>
    <path class="fil12" d="M24495.75 17372.69l-7086.91 0 0 361.23c1124.11,65.04 2310.3,102.61 3554.33,101.13 1235.34,0 2414.33,-37.57 3532.63,-101.13l0 -361.23 -0.05 0z"/>
    <ellipse class="fil13" cx="20945.8" cy="17379.9" rx="3495.02" ry="101.13"/>
    <path class="fil14" d="M17588.01 25140.12l-135.81 111.23 0 278.83c0,0 447.9,546.13 3518.18,546.13 3070.27,0 3476.28,-567.82 3476.28,-567.82l0 -222.52 -95.34 -144.5c0,0 362.65,768.66 -3382.35,768.66 -3745.02,0 -3382.36,-768.66 -3382.36,-768.66l1.42 -1.36z"/>
    <circle class="fil15" cx="20945.8" cy="21571.38" r="2385.38"/>
    <circle class="fil9" cx="20945.8" cy="21571.38" r="1670.24"/>
    <path class="fil5 str0" d="M17588.01 18402.87c0,0 1278.7,247.04 3382.36,247.04 2103.66,0 3382.35,-157.49 3382.35,-157.49"/>
    <path class="fil5 str0" d="M17588.01 18902.75c0,0 1278.7,247.04 3382.36,247.04 2103.66,0 3382.35,-157.49 3382.35,-157.49"/>
    <path class="fil5 str0" d="M17588.01 19440.26c0,0 1278.7,247.04 3382.36,247.04 2103.66,0 3382.35,-157.49 3382.35,-157.49"/>
    <path class="fil5 str0" d="M17588.01 19938.71c0,0 1278.7,247.05 3382.36,247.05 2103.66,0 3382.35,-157.49 3382.35,-157.49"/>
    <path class="fil5 str0" d="M17588.01 20438.6c0,0 1278.7,247.04 3382.36,247.04 2103.66,0 3382.35,-157.49 3382.35,-157.49"/>
    <path class="fil5 str0" d="M17588.01 20937.11c0,0 1278.7,247.04 3382.36,247.04 2103.66,0 3382.35,-157.49 3382.35,-157.49"/>
    <path class="fil5 str0" d="M17588.01 21474.57c0,0 1278.7,247.04 3382.36,247.04 2103.66,0 3382.35,-157.49 3382.35,-157.49"/>
    <path class="fil5 str0" d="M17588.01 21974.5c0,0 1278.7,333.76 3382.36,333.76 2103.66,0 3382.35,-244.15 3382.35,-244.15"/>
    <path class="fil5 str0" d="M17588.01 22472.97c0,0 1278.7,374.22 3382.36,374.22 2103.66,0 3382.35,-284.61 3382.35,-284.61"/>
    <path class="fil5 str0" d="M17588.01 22972.84c0,0 1278.7,355.44 3382.36,355.44 2103.66,0 3382.35,-265.83 3382.35,-265.83"/>
    <path class="fil5 str0" d="M17588.01 23510.35c0,0 1278.7,374.23 3382.36,374.23 2103.66,0 3382.35,-284.61 3382.35,-284.61"/>
    <path class="fil5 str0" d="M17588.01 24010.23c0,0 1278.7,374.23 3382.36,374.23 2103.66,0 3382.35,-284.61 3382.35,-284.61"/>
    <path class="fil5 str0" d="M17588.01 24508.75c0,0 1278.7,374.23 3382.36,374.23 2103.66,0 3382.35,-284.61 3382.35,-284.61"/>
    <path class="fil5 str0" d="M17588.01 25008.63c0,0 1278.7,374.23 3382.36,374.23 2103.66,0 3382.35,-284.62 3382.35,-284.62"/>
    <circle class="fil16" cx="6591.34" cy="21341.65" r="2499.57"/>
    <circle class="fil6" cx="6591.34" cy="21341.65" r="1413.03"/>
   </g>
  </g>
  <path class="fil17" d="M29321.5 8010.16l0 13116.22 0 0 0 187.86 -2.89 -0.06c-1.42,112.71 -5.79,223.95 -10.11,332.29 -1.42,24.57 -2.89,47.68 -4.31,72.25 -5.79,95.34 -11.58,189.27 -18.78,281.71 -2.9,44.79 -7.21,86.73 -11.58,130.02 -7.21,69.35 -13,140.12 -21.68,208.05 -4.31,47.68 -11.58,93.93 -17.37,140.13 -8.68,62.14 -15.89,127.13 -27.46,187.85 -7.21,47.67 -14.48,93.92 -21.68,140.12 -10.1,60.67 -20.2,121.4 -33.25,179.17 -8.69,46.25 -17.37,91.03 -27.47,137.28 -13,57.77 -25.99,115.6 -38.99,173.38 -10.1,43.36 -20.2,88.14 -31.78,130.01 -14.47,57.77 -30.36,115.61 -44.78,173.38 -11.58,40.46 -21.67,80.93 -34.67,121.4 -17.37,60.66 -36.1,121.39 -54.89,180.58 -10.11,34.68 -20.2,67.93 -33.26,101.13 -28.88,88.15 -59.24,173.38 -91.03,258.63 -4.32,11.58 -8.69,25.99 -14.48,37.57 -30.36,82.35 -62.14,160.38 -95.34,239.84 -13,30.36 -27.46,59.25 -40.46,89.56 -24.57,54.89 -47.68,109.82 -73.67,164.7 -15.9,34.68 -33.26,66.46 -49.15,99.72 -24.57,49.15 -47.68,98.23 -73.67,147.38 -17.37,33.26 -36.09,65.04 -53.46,98.24 -25.99,46.25 -50.57,92.44 -78.04,138.7 -17.37,33.26 -36.09,63.56 -54.88,95.34 -27.47,46.26 -54.89,91.04 -82.35,135.81 -18.78,30.36 -37.58,59.24 -56.36,89.56 -30.36,44.78 -59.24,91.04 -91.03,134.39 -17.37,27.46 -36.1,54.88 -54.89,80.93 -34.67,49.15 -69.35,96.81 -105.44,144.49 -14.48,20.2 -30.36,41.88 -44.78,62.14 -104.03,135.81 -212.37,265.83 -323.66,390.11 -14.48,15.9 -30.36,33.26 -44.78,49.15 -40.47,44.78 -82.35,89.57 -125.72,134.39 -18.78,20.2 -38.99,40.47 -57.77,59.25 -38.99,38.99 -76.56,78.03 -115.6,115.6 -20.2,20.2 -41.89,40.47 -63.56,60.67 -37.57,36.09 -76.56,72.24 -114.13,106.92 -21.68,18.78 -44.79,38.99 -66.46,59.25 -38.99,34.67 -79.46,67.93 -119.92,102.6 -21.68,17.37 -43.36,37.57 -63.56,53.47 -43.36,36.09 -86.72,69.35 -130.02,104.02 -18.78,15.9 -38.99,31.78 -57.77,46.26 -49.15,38.99 -99.71,76.56 -150.28,112.71 -13,10.11 -27.47,18.78 -38.99,30.36 -131.49,95.34 -265.84,184.96 -400.22,271.62 -7.21,4.32 -14.48,8.69 -21.68,13 -59.24,37.57 -118.5,73.67 -177.69,108.35 -15.9,10.1 -31.78,18.78 -47.68,28.88 -52.04,30.36 -102.6,59.25 -154.59,89.56 -17.37,10.11 -37.57,20.2 -54.89,30.36 -49.15,28.89 -99.71,54.89 -148.81,80.93l-57.77 31.78c-50.57,25.99 -99.71,50.57 -150.28,76.56 -17.37,8.69 -36.09,17.37 -53.46,27.47 -54.89,25.99 -108.34,50.57 -161.81,76.56 -14.48,7.21 -28.89,13 -43.36,20.2 -62.14,28.89 -125.71,54.89 -187.85,83.83 -5.79,1.42 -10.11,4.31 -15.9,5.79 -212.37,91.03 -421.9,173.37 -632.85,247.04 -7.21,2.9 -14.48,4.32 -21.68,7.21 -60.66,21.68 -122.81,43.36 -182.06,62.14 -11.58,4.32 -24.57,7.21 -34.67,11.58 -57.77,17.37 -114.14,36.1 -170.49,53.47 -13,4.31 -25.99,7.21 -38.99,11.58 -54.88,15.89 -111.23,34.67 -167.58,50.57 -11.58,2.89 -21.68,5.79 -34.68,8.68 -59.24,17.37 -118.5,34.68 -177.69,49.15 -5.79,1.42 -13,4.32 -18.78,5.79 -335.19,89.56 -658.84,160.39 -962.25,218.16 -4.31,0 -8.68,1.42 -13,1.42 -54.88,10.11 -109.81,20.2 -164.7,30.36 -5.79,1.42 -11.58,1.42 -17.37,2.9 -53.47,8.68 -105.45,17.37 -157.49,25.99 -4.32,1.42 -8.69,1.42 -14.48,2.89 -53.46,7.21 -106.92,15.9 -160.38,24.57l-3.01 -0.11c-277.4,40.47 -527.35,66.46 -744.09,85.25l-1.42 0c-41.88,4.31 -82.35,7.21 -121.39,10.1l-8.63 0c-37.58,2.9 -72.25,5.79 -105.45,7.21l-11.58 0c-33.26,2.9 -65.04,4.32 -96.82,5.79 -2.89,0 -5.79,1.42 -7.21,1.42 -33.25,1.42 -63.56,2.9 -93.92,4.32l-2.89 0.05c-31.78,1.42 -62.14,2.9 -91.04,2.9l0 4.31 -206.63 0c-11.58,0 -24.57,0 -33.26,1.42 -7.21,0 -14.47,0 -20.2,-1.42l-10998.03 0c-7.21,1.42 -13,1.42 -21.68,1.42 -8.68,-1.42 -18.78,-1.42 -31.78,-1.42l-170.48 0 0 -2.89 -13.05 0c-14.48,-1.42 -30.37,-1.42 -46.26,-1.42 -13,-1.42 -28.89,-1.42 -43.36,-1.42 -11.58,-1.42 -24.57,-1.42 -37.57,-2.9 -24.57,0 -49.15,-1.42 -75.14,-2.89 -5.79,0 -10.11,0 -14.48,-1.42 -934.83,-49.15 -3052.9,-284.62 -4967.36,-1366.84 -1912.97,-1080.75 -3622.2,-3008.13 -3737.8,-6441.06l-4.32 -225.42 -1.36 0 0 -13231.84 1.47 0 4.32 -225.42c231.21,-6865.8 6834.07,-7708.12 8705.15,-7807.84 4.32,0 8.69,0 14.48,-1.42 25.99,-1.42 50.57,-1.42 75.14,-2.9 13,-1.42 25.99,-1.42 37.57,-1.42 14.47,-1.42 30.36,-1.42 43.36,-1.42 15.89,-1.42 31.78,-1.42 46.25,-1.42 4.32,-1.42 10.11,-1.42 13,-1.42l0 -2.89 11476.24 -0.11 0 4.31c30.36,1.42 60.67,2.9 92.45,2.9 1.42,1.42 2.89,1.42 2.89,1.42 30.36,0 60.67,1.42 93.92,4.31l7.21 0.06c31.78,1.42 63.56,2.89 96.82,5.79l11.58 0c34.67,2.89 67.93,4.31 105.45,7.21 2.89,0 5.79,0 8.68,1.42 38.99,2.89 79.46,5.79 121.4,8.68l1.42 0c216.73,17.37 466.67,44.78 744.09,85.25l2.89 0c53.47,7.21 106.92,15.89 160.39,25.99 5.79,0 10.1,1.42 14.47,1.42 52.05,8.68 104.03,15.89 157.49,25.99 5.79,1.42 11.58,2.89 17.37,2.89 53.47,10.11 108.35,18.78 164.71,30.36 4.31,1.42 8.68,1.42 13,2.9 301.98,54.88 625.58,127.13 962.24,216.74 5.79,2.89 13,4.31 18.78,5.79 59.25,15.89 118.51,33.25 177.7,49.15 11.58,2.89 21.67,7.21 34.67,10.1 54.89,15.9 111.24,33.26 167.59,49.15 13,4.32 25.99,8.69 38.99,11.58 54.89,17.37 111.24,36.1 170.48,54.89 10.11,2.89 21.68,7.21 34.68,10.1 59.24,20.2 121.39,41.89 182.06,62.14 7.21,2.9 14.47,4.32 21.67,7.21 209.48,75.15 420.43,156.08 632.86,247.05 5.79,1.42 10.1,4.31 15.89,7.21 62.14,27.46 125.71,53.46 187.85,83.82 14.48,5.79 28.89,13 43.36,18.78 53.47,25.99 106.93,50.57 161.81,78.04 17.37,7.21 36.1,15.89 53.47,25.99 50.57,25.99 99.71,50.57 150.28,78.04 18.78,8.68 38.99,18.78 57.77,30.36 49.15,25.99 99.71,52.04 148.81,80.93 17.37,10.1 37.57,20.2 54.88,31.78 52.05,28.88 102.61,57.77 154.6,88.14 15.9,10.1 31.78,18.78 47.68,28.88 59.24,36.1 118.5,72.25 177.69,108.35 7.21,4.31 14.47,8.68 21.67,14.47 134.39,85.25 268.73,176.27 400.22,270.2 11.58,10.11 25.99,20.2 38.99,30.36 50.57,37.57 101.13,75.14 150.29,112.72 18.78,14.47 38.99,31.78 57.77,46.25 43.36,34.68 86.72,67.93 130.01,104.03 20.2,17.37 41.89,36.09 63.56,53.46 40.47,34.68 80.93,67.93 119.93,104.03 21.67,18.78 44.78,38.99 66.45,57.77 38.99,36.1 78.04,72.25 114.13,106.92 21.68,20.2 43.36,41.89 63.56,60.67 40.47,38.99 78.04,78.03 115.61,115.6 18.78,20.2 38.99,40.47 57.77,59.25 43.36,44.78 85.25,89.56 125.71,135.81 14.48,14.47 30.36,31.78 44.78,47.67 111.24,125.71 219.63,254.31 323.66,390.12 14.48,20.2 30.36,41.88 44.78,62.14 36.1,47.67 72.25,95.34 105.45,144.49 18.78,27.46 37.57,53.46 54.88,80.93 31.78,44.78 60.67,89.56 91.04,134.39 18.78,30.36 37.57,59.24 56.35,91.03 27.47,43.36 54.89,89.56 82.35,134.39 18.78,31.78 37.57,63.56 54.89,95.34 27.46,46.25 52.04,92.45 78.03,138.7 17.37,33.26 36.1,65.04 53.47,99.71 25.99,47.68 49.15,96.82 73.67,145.91 15.89,33.26 33.25,65.04 49.15,99.71 25.99,53.47 49.15,108.35 73.66,163.29 13,30.36 27.47,59.24 40.47,91.03 33.25,78.04 65.03,157.49 95.34,238.43 5.79,13 10.1,25.99 14.47,37.57 31.78,85.24 62.14,170.48 91.04,258.62 11.58,33.25 21.67,66.45 33.25,101.13 18.78,59.25 37.58,119.92 54.89,180.59 11.58,40.46 21.68,80.93 34.68,121.39 14.47,57.77 30.36,114.14 44.78,173.38 10.1,43.36 20.2,86.72 31.78,130.02 13,57.77 25.99,114.13 38.99,174.8 8.68,44.78 17.37,89.56 27.46,135.8 11.58,59.25 21.68,119.92 33.26,179.17 7.21,46.25 14.47,92.45 21.67,140.12 10.11,62.14 17.37,125.71 27.47,187.85 5.79,46.26 13,92.45 17.37,140.12 8.68,67.94 14.47,138.71 21.67,208.06 4.32,43.36 8.69,86.72 11.58,130.01 7.21,92.45 13,187.86 18.78,281.72 1.42,24.57 2.9,47.68 4.32,72.25 4.31,108.34 8.68,221.05 10.1,332.29l2.95 -0.17 4.37 1.48z"/>
 </g>
</svg>
