<?xml version="1.0" encoding="UTF-8"?>
<!DOCTYPE svg PUBLIC "-//W3C//DTD SVG 1.1//EN" "http://www.w3.org/Graphics/SVG/1.1/DTD/svg11.dtd">
<!-- Creator: CorelDRAW -->
<svg xmlns="http://www.w3.org/2000/svg" xml:space="preserve" width="635mm" height="226mm" version="1.1" style="shape-rendering:geometricPrecision; text-rendering:geometricPrecision; image-rendering:optimizeQuality; fill-rule:evenodd; clip-rule:evenodd"
viewBox="0 0 63500 22600"
 xmlns:xlink="http://www.w3.org/1999/xlink"
 xmlns:xodm="http://www.corel.com/coreldraw/odm/2003">
 <defs>
  <style type="text/css">
   <![CDATA[
    .fil2 {fill:#0B8231}
    .fil9 {fill:#288A22}
    .fil6 {fill:#45BEB2}
    .fil4 {fill:#96C73E}
    .fil10 {fill:#A6E2DB}
    .fil0 {fill:#A8EC6B}
    .fil14 {fill:#D4FEFD}
    .fil8 {fill:#E52326}
    .fil13 {fill:#EAA668}
    .fil5 {fill:#F086B4}
    .fil11 {fill:#F08E94}
    .fil3 {fill:#F3E918}
    .fil12 {fill:#F6B766}
    .fil1 {fill:#FAF406}
    .fil7 {fill:#FCFFFD}
   ]]>
  </style>
 </defs>
 <g id="Capa_x0020_1">
  <metadata id="CorelCorpID_0Corel-Layer"/>
  <g id="_1858118586784">
   <g>
    <path class="fil0" d="M13471.07 11608.89c616.36,401.2 4651.64,331.04 5451.68,116.7 -183.96,-180.5 20.02,-132.58 -348.58,-166.83 -4.28,-0.41 -326.06,32.32 -358.24,35.22 -1448.58,131.75 -4612.28,-83 -4744.86,14.91z"/>
    <path class="fil0" d="M13460.71 11966.86c312.67,400.5 2292.54,347.89 2762.37,347.06 553.94,-1.11 2349.16,22.65 2737.23,-211.85 -478.95,-162.83 -2191.03,25.82 -2854.21,19.19 -922.26,-9.25 -1746.88,-111.17 -2645.39,-154.4z"/>
   </g>
   <g>
    <path class="fil1" d="M25247.11 10558.06c-417.22,829.45 -866.47,1681.83 -1266.97,2507.29 -326.9,673.95 -1178.86,1691.91 -1275.81,2350.4 467.34,112.97 490.13,29 891.74,-203.85 -194.32,11.19 -293.06,63.67 -285.74,-258.39l1010.65 -1828.23c169.18,-451.32 348.57,-992.83 715.93,-1295.97l19.2 -131.61 541.09 -1035.93c241.69,426.75 50.41,405.2 446.77,870.2l944.5 -24.86c385.31,-405.06 630.72,-1044.35 55.79,-1327.05 -788.44,10.22 -516.23,-187.13 -1259.79,226.36l-159.09 -345.54 55.79 105.79c-361.97,505.18 23.89,156.75 -434.06,391.39z"/>
    <path class="fil1" d="M25215.9 12001.66c-473.29,688.18 -621.2,687.35 -285.47,1611.13l207.71 213.1c910.66,65.46 766.34,-16.99 1457.28,-346.92 242.1,-1108.15 -256.6,-1679.22 -1379.52,-1477.31z"/>
    <path class="fil1" d="M27629.83 12116.01c-107.59,681.27 202.87,989.94 846.58,626.03l10.63 -716.76c-367.91,-118.22 -608.63,-132.03 -857.21,90.73z"/>
   </g>
   <g>
    <path class="fil2" d="M13083 8225.47l426.19 273.72c1429.65,-93.35 4678.29,118.77 5812.82,-137.55l-33.7 -476.04c-1632.95,-116.7 -4638.79,-196.11 -6196.06,13.67l-9.25 326.2z"/>
    <path class="fil2" d="M18922.88 14758.92c-846.71,461.69 -4969,712.34 -5435.65,-165.72l-347.89 44.19 -7.32 391.39c1088.96,714.27 4977.71,704.19 6117.34,41.43l-9.66 -427.99 -316.82 116.7z"/>
   </g>
   <g>
    <path class="fil3" d="M19322.01 8361.64c-201.22,612.5 -125.95,5335.12 -82.31,6280.58l9.66 427.99c-1139.63,662.76 -5028.38,672.84 -6117.34,-41.43l7.32 -391.39c129.82,-835.95 146.39,-5728.03 -56.34,-6411.92l9.25 -326.2c1557.27,-209.78 4563.11,-130.37 6196.06,-13.67l33.7 476.04zm-8576.57 8148.17l10871.86 0 15.47 -3506.06 1599.39 -1628.25c-295.68,-586.12 -1162.42,-1181.21 -1612.09,-1751.58l-2.07 -3499.43 -10866.49 0 2.35 3269.62c141.14,504.64 1367.51,1515.56 1782.66,2027.38 -354.1,138.1 -1503.13,1355.08 -1790.67,1705.73l-0.41 3382.59z"/>
    <path class="fil3" d="M13487.23 14593.2c466.65,878.06 4588.94,627.41 5435.65,165.72l-9.25 -2286.32c-936.21,11.74 -1855.71,86.04 -2807.53,87.83 -659.31,1.11 -2104.85,-177.05 -2635.17,-86.03l16.3 2118.8z"/>
    <path class="fil3" d="M13467.89 10738.84c1063.96,355.2 4268.26,302.17 5411.35,115.87l66.57 -2360.63 -5468.53 31.63 -9.39 2213.13z"/>
    <path class="fil3" d="M31010.76 12711.8c-463.06,-1.94 -2175.7,-2684.2 -3222.25,-3770.95 -895.75,-929.99 -1035.79,-920.33 -788.03,-1302.05 640.12,-281.73 4250.58,4014.84 4010.28,5073zm-5763.65 -2153.74c457.95,-234.64 72.09,113.79 434.06,-391.39l-55.79 -105.79 159.09 345.54c743.56,-413.49 471.35,-216.14 1259.79,-226.36 -292.09,-446.63 -680.03,-281.18 -1158.42,-203.01l640.81 -1436.98c571.89,132.86 1583.09,1685.29 1951.14,2161.34 510.57,660.28 1477.85,1654.49 1819.11,2345.43l-3180 629.62c-370.81,262.95 -525.48,272.2 -957.2,361.42 -399.26,82.58 -722.7,241.96 -1144.06,370.95 -669.39,75.68 -1183.83,494 -1705.31,544.68 -7.32,322.06 91.42,269.58 285.74,258.39l3990.53 -1241.69c1267.8,-332.56 3647.48,-505.88 3886.54,-1260.48 286.15,-903.35 -2276.1,-3765.01 -3035.4,-4532.04 -975.99,-985.79 -1022.12,-997.53 -1760.56,-934.42l-1430.07 3314.79z"/>
   </g>
   <g>
    <path class="fil4" d="M4809.01 8632.05c2.49,-616.08 -316.81,-599.65 -366.53,-1069.76 763.45,-179.53 718.7,713.59 1028.19,1253.72 429.92,-270.69 601.03,-506.02 1138.67,-551.18 -16.57,323.99 -77.61,432.82 -383.51,597.72 587.22,-12.85 452.98,-309.22 1265.31,-168.21l-285.74 450.63c1834.86,423.98 2300.41,2826.03 1493.88,4307.76 -805.15,1479.65 -2565.84,2327.47 -4291.18,1900.18 -1864.69,-461.68 -2974.78,-1759.04 -2865.54,-3745.81 51.24,-934 374.68,-1681.01 1168.09,-2158.16 1955.98,-1176.1 672.99,-270.27 1710.84,-763.44 72.51,-34.53 -85.35,-282.01 387.52,-53.45zm-4852.03 7877.76l10788.46 0 0.41 -3382.59c287.54,-350.65 1436.57,-1567.63 1790.67,-1705.73 -415.15,-511.82 -1641.52,-1522.74 -1782.66,-2027.38l-2.35 -3269.62 -10794.53 0 0 10385.32z"/>
    <path class="fil4" d="M6455.5 10621.31c-417.22,-53.72 -247.63,-183.54 -555.88,-503.94 -200.25,-208.13 -406.58,-285.61 -664.69,-546.9 -1265.32,301.07 -1665.82,1190.19 -2229.15,1212.14 -5.52,-407.54 373.3,-953.33 747.42,-1083.29 -2671.63,46.13 -2183.98,5699.99 1927.39,5149.09 3870.1,-518.72 3498.47,-5665.32 430.47,-5290.64 416.11,188.78 429.23,621.74 344.44,1063.54z"/>
   </g>
   <g>
    <path class="fil5" d="M23596.07 15211.9c-401.61,232.85 -424.4,316.82 -891.74,203.85 96.95,-658.49 948.91,-1676.45 1275.81,-2350.4 400.5,-825.46 849.75,-1677.84 1266.97,-2507.29l1430.07 -3314.79c738.44,-63.11 784.57,-51.37 1760.56,934.42 759.3,767.03 3321.55,3628.69 3035.4,4532.04 -239.06,754.6 -2618.74,927.92 -3886.54,1260.48l-3990.53 1241.69zm-1978.77 1297.91l10990.78 0 1.24 -3495.7 1645.8 -1620.24c-319.99,-619.96 -1243.22,-1205.24 -1632.4,-1785.97l-18.78 -3483.41 -10985.94 0 2.07 3499.43c449.67,570.37 1316.41,1165.46 1612.09,1751.58l-1599.39 1628.25 -15.47 3506.06z"/>
    <path class="fil5" d="M27629.83 12116.01c248.58,-222.76 489.3,-208.95 857.21,-90.73l-10.63 716.76c-643.71,363.91 -954.17,55.24 -846.58,-626.03zm-585.57 -1935.95c574.93,282.7 329.52,921.99 -55.79,1327.05l-193.49 340.98c-838.15,-28.86 -363.63,-124.02 -859.01,-302.03 -358.1,-128.72 -615.12,-82.31 -879.86,151.64l-19.2 131.61 4.84 213.92 174.15 -41.57c1122.92,-201.91 1621.62,369.16 1379.52,1477.31l-47.09 354.51 568.57 -157.02 3180 -629.62c-341.26,-690.94 -1308.54,-1685.15 -1819.11,-2345.43 -368.05,-476.05 -1379.25,-2028.48 -1951.14,-2161.34l-640.81 1436.98c478.39,-78.17 866.33,-243.62 1158.42,203.01z"/>
    <path class="fil5" d="M27000.48 7638.8c-247.76,381.72 -107.72,372.06 788.03,1302.05 1046.55,1086.75 2759.19,3769.01 3222.25,3770.95 240.3,-1058.16 -3370.16,-5354.73 -4010.28,-5073z"/>
    <path class="fil5" d="M23310.33 14953.51c521.48,-50.68 1035.92,-469 1705.31,-544.68l436.69 -323.31 -314.19 -259.63 -207.71 -213.1 -223.86 -72.92 -107.04 -547.03 -278.55 132.44 -1010.65 1828.23z"/>
   </g>
   <g>
    <path class="fil6" d="M47213.74 13907.09c-174.7,299.28 -1033.16,139.76 -1390.43,176.64l-31.77 1468.46 2703.54 22.38 30.66 -8245.95c570.09,-194.45 2932.09,-218.76 3317.68,86.87 702.13,276.62 513.75,1070.45 512.09,1742.88 -1.93,777.94 -0.41,1555.88 -0.41,2333.83 0,3069.09 -27.34,2287.84 -2055.69,2544.85l-19.61 1574.53 2800.9 16.16c174.15,-1897.7 33.42,-4520.44 28.86,-6469.37 -3.03,-1348.04 -192.1,-1855.44 1378.01,-1845.36 1245.98,8.15 1980.84,-357.55 2432.16,831.81 1119.48,-424.26 1176.79,-1150 2949.5,-949.33 2142.56,242.51 3538.79,2545.26 2729.22,4561.18 -547.3,1362.95 -989.65,1206.2 -1895.62,1952.24l-11.19 796.45 -2419.04 30.94 -52.48 -826.28 -1277.05 -832.08 -49.58 2719.97 1317.38 28.17 43.78 -973.08 2437.82 -33.7 2.35 966.59 1724.65 69.19c-436.27,290.85 -22287.73,116.15 -26890.2,150.54 -122.78,0.82 -363.49,14.08 -471.63,1.79 -560.98,-63.53 -145.01,-0.27 -303.14,-110.07l556.15 -71.54c-491.93,-1388.91 -305.21,-2148.21 -308.8,-4016.91 -2.49,-1332.57 -76.79,-2942.18 20.85,-4243.67l1637.37 -55.38 39.08 5817.1c-5.66,465.83 -57.45,525.9 120.01,839.26 314.19,-140.31 235.2,172.22 278.15,-477.7l-2.07 -2308.42 1668.99 -29c55.24,788.16 20.58,1563.76 22.23,2324.85 2.21,1084.4 166.28,1197.5 -344.29,2122.67l1435.73 29.41c-658.48,-1072.38 -346.91,-2781.01 -346.91,-4019.12 0,-1250.67 -106.76,-3086.08 35.35,-4264.8l1645.93 -24.31 24.72 5926.76c-6.63,616.08 -119.04,544.41 262.81,716.35 407.83,-735.82 -41.43,-5327.11 157.58,-6632.61l1646.76 -2.07c101.65,1344.17 11.6,3041.2 11.6,4397.38 0,1052.77 326.2,3277.5 -487.65,3925.63l1187.7 -1.8 32.6 -8336.13c3646.37,33.56 3801.32,-407.96 3797.18,1728.38 -1.66,894.5 1.93,1789.42 1.8,2683.92 0,805.98 257.01,1946.31 -633.63,2181.5zm-14605.66 2602.72l30891.92 0 0 -10385.32 -30896.06 0 18.78 3483.41c389.18,580.73 1312.41,1166.01 1632.4,1785.97l-1645.8 1620.24 -1.24 3495.7z"/>
    <path class="fil6" d="M60936.64 9742.83c647.16,284.49 650.61,888.56 189.89,1393.75 -82.44,-378.55 97.92,-979.99 -189.89,-1393.75zm-2587.39 2647.6c-1529.92,-642.33 -1391.26,-3309.13 62.56,-3756.17 -332,638.32 -534.18,992.14 -553.52,1806.82 -22.79,967.7 290.71,1208.83 490.96,1949.35zm296.93 -4163.3c-3252.23,1280.23 -1302.19,5649.99 1658.49,4632.03 3039.82,-1045.18 1390.03,-5832.02 -1658.49,-4632.03z"/>
    <path class="fil6" d="M46063.33 12302.87c165.87,-345.95 160.62,-2910 -0.55,-3271.42 -423.43,74.3 -328.14,-28.73 -331.31,585.42l8.01 1997.55c-1.25,621.33 -139.9,613.04 323.85,688.45z"/>
    <path class="fil6" d="M50393.46 12318.06c403.68,-185.06 260.88,-1.1 261.43,-1526.05 0.28,-547.17 121.81,-1378.43 -144.31,-1768.43 -397.61,212.13 -233.54,284.35 -233.26,1535.03 0.13,537.64 -124.02,1353.29 116.14,1759.45z"/>
    <path class="fil6" d="M55074.38 12870.62c-419.42,185.89 -257.15,-102.2 -258.81,1422.06 -1.79,1615.41 -108,1117.68 265.3,1348.18 196.25,-449.53 225.11,-2381.06 -6.49,-2770.24z"/>
    <path class="fil6" d="M55084.87 11175.8c219.45,-436 222.21,-1734.04 -0.13,-2168.66 -279.39,143.22 -265.58,-316.67 -271.1,1084.68 -5.25,1330.22 -89.08,913.7 271.23,1083.98z"/>
   </g>
   <g>
    <path class="fil7" d="M55074.38 12870.62c231.6,389.18 202.74,2320.71 6.49,2770.24 -373.3,-230.5 -267.09,267.23 -265.3,-1348.18 1.66,-1524.26 -160.61,-1236.17 258.81,-1422.06zm-4680.92 -552.56c-240.16,-406.16 -116.01,-1221.81 -116.14,-1759.45 -0.28,-1250.68 -164.35,-1322.9 233.26,-1535.03 266.12,390 144.59,1221.26 144.31,1768.43 -0.55,1524.95 142.25,1340.99 -261.43,1526.05zm-4330.13 -15.19c-463.75,-75.41 -325.1,-67.12 -323.85,-688.45l-8.01 -1997.55c3.17,-614.15 -92.12,-511.12 331.31,-585.42 161.17,361.42 166.42,2925.47 0.55,3271.42zm9021.54 -1127.07c-360.31,-170.28 -276.48,246.24 -271.23,-1083.98 5.52,-1401.35 -8.29,-941.46 271.1,-1084.68 222.34,434.62 219.58,1732.66 0.13,2168.66zm3561.31 -2948.67c3048.52,-1199.99 4698.31,3586.85 1658.49,4632.03 -2960.68,1017.96 -4910.72,-3351.8 -1658.49,-4632.03zm-6802.76 -811.64l-3174.47 -61.04 -19.2 8332.67c-610.42,126.37 -2343.63,113.25 -2933.61,-4.42 -130.65,-479.36 -161.03,-1197.64 25.41,-1664.99 479.64,-165.44 922.12,-63.8 1472.19,-110.62 890.64,-235.19 633.63,-1375.52 633.63,-2181.5 0.13,-894.5 -3.46,-1789.42 -1.8,-2683.92 4.14,-2136.34 -150.81,-1694.82 -3797.18,-1728.38l-32.6 8336.13 -1187.7 1.8c813.85,-648.13 487.65,-2872.86 487.65,-3925.63 0,-1356.18 90.05,-3053.21 -11.6,-4397.38l-1646.76 2.07c-199.01,1305.5 250.25,5896.79 -157.58,6632.61 -381.85,-171.94 -269.44,-100.27 -262.81,-716.35l-24.72 -5926.76 -1645.93 24.31c-142.11,1178.72 -35.35,3014.13 -35.35,4264.8 0,1238.11 -311.57,2946.74 346.91,4019.12l-1435.73 -29.41c510.57,-925.17 346.5,-1038.27 344.29,-2122.67 -1.65,-761.09 33.01,-1536.69 -22.23,-2324.85l-1668.99 29 2.07 2308.42c-42.95,649.92 36.04,337.39 -278.15,477.7 -177.46,-313.36 -125.67,-373.43 -120.01,-839.26l-39.08 -5817.1 -1637.37 55.38c-97.64,1301.49 -23.34,2911.1 -20.85,4243.67 3.59,1868.7 -183.13,2628 308.8,4016.91l-556.15 71.54c158.13,109.8 -257.84,46.54 303.14,110.07 108.14,12.29 348.85,-0.97 471.63,-1.79 4602.47,-34.39 26453.93,140.31 26890.2,-150.54l-1724.65 -69.19 -2.35 -966.59 -2437.82 33.7 -43.78 973.08 -1317.38 -28.17 49.58 -2719.97 1277.05 832.08 52.48 826.28 2419.04 -30.94 11.19 -796.45c905.97,-746.04 1348.32,-589.29 1895.62,-1952.24 809.57,-2015.92 -586.66,-4318.67 -2729.22,-4561.18 -1772.71,-200.67 -1830.02,525.07 -2949.5,949.33 -451.32,-1189.36 -1186.18,-823.66 -2432.16,-831.81 -1570.11,-10.08 -1381.04,497.32 -1378.01,1845.36 4.56,1948.93 145.29,4571.67 -28.86,6469.37l-2800.9 -16.16 19.61 -1574.53c2028.35,-257.01 2055.69,524.24 2055.69,-2544.85 0,-777.95 -1.52,-1555.89 0.41,-2333.83 1.66,-672.43 190.04,-1466.26 -512.09,-1742.88z"/>
    <path class="fil7" d="M58349.25 12390.43c-200.25,-740.52 -513.75,-981.65 -490.96,-1949.35 19.34,-814.68 221.52,-1168.5 553.52,-1806.82 -1453.82,447.04 -1592.48,3113.84 -62.56,3756.17z"/>
   </g>
   <path class="fil8" d="M6455.5 10621.31c84.79,-441.8 71.67,-874.76 -344.44,-1063.54 3068,-374.68 3439.63,4771.92 -430.47,5290.64 -4111.37,550.9 -4599.02,-5102.96 -1927.39,-5149.09 -374.12,129.96 -752.94,675.75 -747.42,1083.29 563.33,-21.95 963.83,-911.07 2229.15,-1212.14 258.11,261.29 464.44,338.77 664.69,546.9 308.25,320.4 138.66,450.22 555.88,503.94zm-1646.49 -1989.26c-472.87,-228.56 -315.01,18.92 -387.52,53.45 -1037.85,493.17 245.14,-412.66 -1710.84,763.44 -793.41,477.15 -1116.85,1224.16 -1168.09,2158.16 -109.24,1986.77 1000.85,3284.13 2865.54,3745.81 1725.34,427.29 3486.03,-420.53 4291.18,-1900.18 806.53,-1481.73 340.98,-3883.78 -1493.88,-4307.76l285.74 -450.63c-812.33,-141.01 -678.09,155.36 -1265.31,168.21 305.9,-164.9 366.94,-273.73 383.51,-597.72 -537.64,45.16 -708.75,280.49 -1138.67,551.18 -309.49,-540.13 -264.74,-1433.25 -1028.19,-1253.72 49.72,470.11 369.02,453.68 366.53,1069.76z"/>
   <path class="fil9" d="M13460.71 11966.86c898.51,43.23 1723.13,145.15 2645.39,154.4 663.18,6.63 2375.26,-182.02 2854.21,-19.19 -388.07,234.5 -2183.29,210.74 -2737.23,211.85 -469.83,0.83 -2449.7,53.44 -2762.37,-347.06zm10.36 -357.97c132.58,-97.91 3296.28,116.84 4744.86,-14.91 32.18,-2.9 353.96,-35.63 358.24,-35.22 368.6,34.25 164.62,-13.67 348.58,166.83 -800.04,214.34 -4835.32,284.5 -5451.68,-116.7zm6.21 -3083.18l5468.53 -31.63 -66.57 2360.63c-1143.09,186.3 -4347.39,239.33 -5411.35,-115.87l9.39 -2213.13zm-337.94 6111.68l347.89 -44.19 -16.3 -2118.8c530.32,-91.02 1975.86,87.14 2635.17,86.03 951.82,-1.79 1871.32,-76.09 2807.53,-87.83l9.25 2286.32 316.82 -116.7c-43.64,-945.46 -118.91,-5668.08 82.31,-6280.58 -1134.53,256.32 -4383.17,44.2 -5812.82,137.55l-426.19 -273.72c202.73,683.89 186.16,5575.97 56.34,6411.92z"/>
   <path class="fil10" d="M47213.74 13907.09c-550.07,46.82 -992.55,-54.82 -1472.19,110.62 -186.44,467.35 -156.06,1185.63 -25.41,1664.99 589.98,117.67 2323.19,130.79 2933.61,4.42l19.2 -8332.67 3174.47 61.04c-385.59,-305.63 -2747.59,-281.32 -3317.68,-86.87l-30.66 8245.95 -2703.54 -22.38 31.77 -1468.46c357.27,-36.88 1215.73,122.64 1390.43,-176.64z"/>
   <path class="fil11" d="M25056.11 11697.7c264.74,-233.95 521.76,-280.36 879.86,-151.64 495.38,178.01 20.86,273.17 859.01,302.03l193.49 -340.98 -944.5 24.86c-396.36,-465 -205.08,-443.45 -446.77,-870.2l-541.09 1035.93z"/>
   <path class="fil12" d="M25138.14 13825.89l314.19 259.63 -436.69 323.31c421.36,-128.99 744.8,-288.37 1144.06,-370.95 431.72,-89.22 586.39,-98.47 957.2,-361.42l-568.57 157.02 47.09 -354.51c-690.94,329.93 -546.62,412.38 -1457.28,346.92z"/>
   <path class="fil13" d="M24320.98 13125.28l278.55 -132.44 107.04 547.03 223.86 72.92c-335.73,-923.78 -187.82,-922.95 285.47,-1611.13l-174.15 41.57 -4.84 -213.92c-367.36,303.14 -546.75,844.65 -715.93,1295.97z"/>
   <path class="fil14" d="M60936.64 9742.83c287.81,413.76 107.45,1015.2 189.89,1393.75 460.72,-505.19 457.27,-1109.26 -189.89,-1393.75z"/>
  </g>
 </g>
</svg>
