<?xml version="1.0" encoding="UTF-8"?>
<!DOCTYPE svg PUBLIC "-//W3C//DTD SVG 1.1//EN" "http://www.w3.org/Graphics/SVG/1.1/DTD/svg11.dtd">
<!-- Creator: CorelDRAW -->
<svg xmlns="http://www.w3.org/2000/svg" xml:space="preserve" width="456mm" height="63mm" version="1.1" style="shape-rendering:geometricPrecision; text-rendering:geometricPrecision; image-rendering:optimizeQuality; fill-rule:evenodd; clip-rule:evenodd"
viewBox="0 0 45600 6300"
 xmlns:xlink="http://www.w3.org/1999/xlink"
 xmlns:xodm="http://www.corel.com/coreldraw/odm/2003">
 <defs>
  <style type="text/css">
   <![CDATA[
    .fil2 {fill:#0B8231}
    .fil9 {fill:#288A22}
    .fil6 {fill:#45BEB2}
    .fil4 {fill:#96C73E}
    .fil10 {fill:#A6E2DB}
    .fil0 {fill:#A8EC6B}
    .fil14 {fill:#D4FEFD}
    .fil8 {fill:#E52326}
    .fil13 {fill:#EAA668}
    .fil5 {fill:#F086B4}
    .fil11 {fill:#F08E94}
    .fil3 {fill:#F3E918}
    .fil12 {fill:#F6B766}
    .fil1 {fill:#FAF406}
    .fil7 {fill:#FCFFFD}
   ]]>
  </style>
 </defs>
 <g id="Capa_x0020_1">
  <metadata id="CorelCorpID_0Corel-Layer"/>
  <g id="_1893884330528">
   <g>
    <path class="fil0" d="M11514.41 3347.14c380.27,247.52 2869.87,204.24 3363.46,72 -113.49,-111.36 12.36,-81.79 -215.06,-102.92 -2.64,-0.26 -201.17,19.93 -221.02,21.72 -893.71,81.29 -2845.58,-51.21 -2927.38,9.2z"/>
    <path class="fil0" d="M11508.02 3568c192.9,247.09 1414.4,214.63 1704.27,214.12 341.75,-0.69 1449.33,13.97 1688.76,-130.71 -295.49,-100.46 -1351.78,15.93 -1760.93,11.84 -569,-5.7 -1077.76,-68.59 -1632.1,-95.25z"/>
   </g>
   <g>
    <path class="fil1" d="M18779.74 2698.82c-257.4,511.74 -534.57,1037.63 -781.67,1546.89 -201.68,415.8 -727.31,1043.85 -787.12,1450.11 288.33,69.69 302.39,17.89 550.17,-125.77 -119.89,6.91 -180.81,39.28 -176.29,-159.41l623.53 -1127.95c104.37,-278.45 215.06,-612.53 441.7,-799.56l11.84 -81.2 333.84 -639.12c149.1,263.28 31.1,249.99 275.63,536.88l582.72 -15.34c237.72,-249.91 389.13,-644.32 34.42,-818.74 -486.43,6.31 -318.49,-115.45 -777.24,139.66l-98.15 -213.19 34.42 65.27c-223.32,311.68 14.74,96.71 -267.8,241.47z"/>
    <path class="fil1" d="M18760.49 3589.47c-292,424.57 -383.26,424.06 -176.12,994l128.15 131.47c561.84,40.39 472.8,-10.48 899.08,-214.04 149.36,-683.68 -158.31,-1036 -851.11,-911.43z"/>
    <path class="fil1" d="M20249.78 3660.02c-66.37,420.31 125.17,610.75 522.31,386.23l6.56 -442.21c-226.99,-72.94 -375.5,-81.46 -528.87,55.98z"/>
   </g>
   <g>
    <path class="fil2" d="M11274.98 1259.71l262.95 168.88c882.04,-57.6 2886.31,73.27 3586.27,-84.87l-20.79 -293.7c-1007.46,-72 -2861.95,-120.99 -3822.72,8.44l-5.71 201.25z"/>
    <path class="fil2" d="M14877.96 5290.58c-522.4,284.84 -3065.67,439.49 -3353.58,-102.24l-214.63 27.26 -4.52 241.47c671.84,440.68 3071.04,434.46 3774.15,25.56l-5.96 -264.05 -195.46 72z"/>
   </g>
   <g>
    <path class="fil3" d="M15124.2 1343.72c-124.15,377.89 -77.71,3291.55 -50.78,3874.86l5.96 264.05c-703.11,408.9 -3102.31,415.12 -3774.15,-25.56l4.52 -241.47c80.09,-515.74 90.31,-3533.96 -34.77,-3955.89l5.71 -201.25c960.77,-129.43 2815.26,-80.44 3822.72,-8.44l20.79 293.7zm-5291.39 5027.09l6707.49 0 9.55 -2163.1 986.75 -1004.56c-182.42,-361.61 -717.17,-728.76 -994.59,-1080.66l-1.28 -2159 -6704.18 0 1.45 2017.22c87.08,311.34 843.7,935.04 1099.83,1250.81 -218.47,85.21 -927.37,836.03 -1104.77,1052.37l-0.25 2086.92z"/>
    <path class="fil3" d="M11524.38 5188.34c287.91,541.73 2831.18,387.08 3353.58,102.24l-5.71 -1410.56c-577.61,7.24 -1144.9,53.08 -1732.13,54.19 -406.77,0.68 -1298.61,-109.24 -1625.8,-53.09l10.06 1307.22z"/>
    <path class="fil3" d="M11512.45 2810.35c656.42,219.15 2633.34,186.43 3338.58,71.49l41.07 -1456.41 -3373.86 19.52 -5.79 1365.4z"/>
    <path class="fil3" d="M22335.68 4027.59c-285.69,-1.19 -1342.32,-1656.04 -1988,-2326.52 -552.64,-573.77 -639.03,-567.8 -486.18,-803.31 394.93,-173.82 2622.44,2476.99 2474.18,3129.83zm-3555.94 -1328.77c282.54,-144.76 44.48,70.21 267.8,-241.47l-34.42 -65.27 98.15 213.19c458.75,-255.11 290.81,-133.35 777.24,-139.66 -180.21,-275.55 -419.55,-173.47 -714.7,-125.25l395.36 -886.55c352.83,81.96 976.7,1039.75 1203.77,1333.45 315,407.37 911.78,1020.76 1122.32,1447.04l-1961.93 388.45c-228.77,162.23 -324.2,167.94 -590.55,222.98 -246.33,50.95 -445.88,149.28 -705.84,228.86 -412.99,46.69 -730.38,304.78 -1052.11,336.05 -4.52,198.69 56.4,166.32 176.29,159.41l2461.99 -766.07c782.18,-205.18 2250.35,-312.11 2397.84,-777.67 176.54,-557.32 -1404.26,-2322.85 -1872.72,-2796.08 -602.14,-608.19 -630.6,-615.44 -1086.19,-576.5l-882.3 2045.09z"/>
   </g>
   <g>
    <path class="fil4" d="M6170.27 1510.55c1.54,-380.1 -195.46,-369.96 -226.13,-659.99 471.01,-110.77 443.41,440.25 634.35,773.49 265.24,-167.01 370.81,-312.19 702.52,-340.06 -10.23,199.89 -47.89,267.04 -236.62,368.77 362.29,-7.92 279.47,-190.77 780.65,-103.78l-176.29 278.02c1132.03,261.58 1419.26,1743.55 921.66,2657.71 -496.74,912.89 -1583.02,1435.96 -2647.48,1172.34 -1150.44,-284.84 -1835.32,-1085.26 -1767.92,-2311.01 31.61,-576.24 231.16,-1037.12 720.66,-1331.5 1206.76,-725.6 415.21,-166.75 1055.52,-471.01 44.73,-21.3 -52.66,-173.99 239.08,-32.98zm-2993.5 4860.26l6656.04 0 0.25 -2086.92c177.4,-216.34 886.3,-967.16 1104.77,-1052.37 -256.13,-315.77 -1012.75,-939.47 -1099.83,-1250.81l-1.45 -2017.22 -6659.78 0 0 6407.32z"/>
    <path class="fil4" d="M7186.09 2737.84c-257.41,-33.14 -152.78,-113.23 -342.95,-310.91 -123.55,-128.4 -250.85,-176.2 -410.09,-337.41 -780.65,185.75 -1027.74,734.3 -1375.3,747.84 -3.4,-251.44 230.31,-588.17 461.13,-668.34 -1648.28,28.46 -1347.43,3516.66 1189.12,3176.77 2387.7,-320.02 2158.41,-3495.27 265.59,-3264.11 256.72,116.48 264.81,383.59 212.5,656.16z"/>
   </g>
   <g>
    <path class="fil5" d="M17761.12 5570.05c-247.78,143.66 -261.84,195.46 -550.17,125.77 59.81,-406.26 585.44,-1034.31 787.12,-1450.11 247.1,-509.26 524.27,-1035.15 781.67,-1546.89l882.3 -2045.09c455.59,-38.94 484.05,-31.69 1086.19,576.5 468.46,473.23 2049.26,2238.76 1872.72,2796.08 -147.49,465.56 -1615.66,572.49 -2397.84,777.67l-2461.99 766.07zm-1220.82 800.76l6780.86 0 0.77 -2156.71 1015.38 -999.62c-197.42,-382.48 -767.01,-743.58 -1007.12,-1101.87l-11.58 -2149.12 -6777.88 0 1.28 2159c277.42,351.9 812.17,719.05 994.59,1080.66l-986.75 1004.56 -9.55 2163.1z"/>
    <path class="fil5" d="M20249.78 3660.02c153.37,-137.44 301.88,-128.92 528.87,-55.98l-6.56 442.21c-397.14,224.52 -588.68,34.08 -522.31,-386.23zm-361.27 -1194.41c354.71,174.42 203.3,568.83 -34.42,818.74l-119.37 210.37c-517.11,-17.81 -224.35,-76.51 -529.98,-186.34 -220.93,-79.41 -379.5,-50.79 -542.84,93.55l-11.84 81.2 2.98 131.98 107.45 -25.64c692.8,-124.57 1000.47,227.75 851.11,911.43l-29.06 218.72 350.79 -96.87 1961.93 -388.45c-210.54,-426.28 -807.32,-1039.67 -1122.32,-1447.04 -227.07,-293.7 -850.94,-1251.49 -1203.77,-1333.45l-395.36 886.55c295.15,-48.22 534.49,-150.3 714.7,125.25z"/>
    <path class="fil5" d="M19861.5 897.76c-152.85,235.51 -66.46,229.54 486.18,803.31 645.68,670.48 1702.31,2325.33 1988,2326.52 148.26,-652.84 -2079.25,-3303.65 -2474.18,-3129.83z"/>
    <path class="fil5" d="M17584.83 5410.64c321.73,-31.27 639.12,-289.36 1052.11,-336.05l269.42 -199.47 -193.84 -160.18 -128.15 -131.47 -138.12 -44.99 -66.03 -337.5 -171.86 81.71 -623.53 1127.95z"/>
   </g>
   <g>
    <path class="fil6" d="M32332.26 4765.04c-107.79,184.64 -637.42,86.23 -857.85,108.98l-19.59 905.98 1667.97 13.8 18.91 -5087.41c351.73,-119.97 1808.99,-134.96 2046.88,53.59 433.18,170.67 316.96,660.43 315.94,1075.29 -1.19,479.96 -0.26,959.92 -0.26,1439.88 0,1893.5 -16.87,1411.5 -1268.27,1570.07l-12.1 971.42 1728.04 9.97c107.44,-1170.8 20.62,-2788.93 17.81,-3991.34 -1.88,-831.69 -118.52,-1144.73 850.17,-1138.51 768.72,5.03 1222.1,-220.59 1500.54,513.19 690.68,-261.75 726.04,-709.5 1819.72,-585.7 1321.87,149.62 2183.29,1570.33 1683.82,2814.06 -337.66,840.89 -610.57,744.18 -1169.52,1204.46l-6.9 491.38 -1492.45 19.08 -32.38 -509.78 -787.89 -513.36 -30.58 1678.11 812.76 17.38 27.01 -600.35 1504.04 -20.79 1.45 596.35 1064.04 42.69c-269.16,179.44 -13750.62,71.65 -16590.16,92.87 -75.74,0.51 -224.25,8.69 -290.97,1.11 -346.1,-39.2 -89.47,-0.17 -187.02,-67.91l343.12 -44.14c-303.5,-856.9 -188.31,-1325.36 -190.52,-2478.27 -1.54,-822.14 -47.38,-1815.2 12.86,-2618.17l1010.19 -34.17 24.11 3588.92c-3.49,287.39 -35.44,324.46 74.05,517.79 193.84,-86.57 145.1,106.25 171.6,-294.73l-1.28 -1424.2 1029.7 -17.89c34.09,486.26 12.7,964.77 13.72,1434.34 1.36,669.03 102.59,738.81 -212.41,1309.6l885.79 18.15c-406.26,-661.62 -214.04,-1715.77 -214.04,-2479.64 0,-771.61 -65.86,-1903.98 21.81,-2631.21l1015.47 -14.99 15.26 3656.56c-4.09,380.1 -73.45,335.88 162.14,441.96 251.61,-453.97 -25.56,-3286.61 97.22,-4092.05l1015.98 -1.28c62.71,829.3 7.16,1876.3 7.16,2713.01 0,649.52 201.25,2022.08 -300.86,2421.95l732.76 -1.11 20.11 -5143.05c2249.67,20.71 2345.27,-251.69 2342.71,1066.34 -1.02,551.87 1.19,1104 1.11,1655.87 0,497.26 158.56,1200.79 -390.92,1345.9zm-9011.1 1605.77l19059.05 0 0 -6407.32 -19061.6 0 11.58 2149.12c240.11,358.29 809.7,719.39 1007.12,1101.87l-1015.38 999.62 -0.77 2156.71z"/>
    <path class="fil6" d="M40798.72 2195.86c399.27,175.52 401.4,548.2 117.16,859.88 -50.87,-233.54 60.41,-604.61 -117.16,-859.88zm-1596.31 1633.46c-943.9,-396.29 -858.35,-2041.59 38.6,-2317.4 -204.83,393.81 -329.57,612.11 -341.5,1114.73 -14.06,597.03 179.35,745.8 302.9,1202.67zm183.19 -2568.59c-2006.49,789.85 -803.4,3485.82 1023.23,2857.77 1875.44,-644.83 857.58,-3598.11 -1023.23,-2857.77z"/>
    <path class="fil6" d="M31622.5 3775.3c102.33,-213.44 99.09,-1795.35 -0.34,-2018.33 -261.24,45.84 -202.45,-17.73 -204.41,361.18l4.95 1232.4c-0.77,383.34 -86.32,378.23 199.8,424.75z"/>
    <path class="fil6" d="M34294.01 3784.67c249.06,-114.17 160.96,-0.68 161.3,-941.51 0.17,-337.58 75.15,-850.43 -89.04,-1091.05 -245.31,130.87 -144.08,175.44 -143.91,947.05 0.08,331.7 -76.52,834.92 71.65,1085.51z"/>
    <path class="fil6" d="M37181.95 4125.58c-258.77,114.68 -158.65,-63.06 -159.68,877.35 -1.1,996.64 -66.63,689.56 163.68,831.77 121.08,-277.34 138.89,-1469.02 -4,-1709.12z"/>
    <path class="fil6" d="M37188.42 3079.94c135.39,-268.99 137.1,-1069.83 -0.08,-1337.97 -172.37,88.36 -163.85,-195.37 -167.26,669.2 -3.24,820.69 -54.96,563.71 167.34,668.77z"/>
   </g>
   <g>
    <path class="fil7" d="M37181.95 4125.58c142.89,240.1 125.08,1431.78 4,1709.12 -230.31,-142.21 -164.78,164.87 -163.68,-831.77 1.03,-940.41 -99.09,-762.67 159.68,-877.35zm-2887.94 -340.91c-148.17,-250.59 -71.57,-753.81 -71.65,-1085.51 -0.17,-771.61 -101.4,-816.18 143.91,-947.05 164.19,240.62 89.21,753.47 89.04,1091.05 -0.34,940.83 87.76,827.34 -161.3,941.51zm-2671.51 -9.37c-286.12,-46.52 -200.57,-41.41 -199.8,-424.75l-4.95 -1232.4c1.96,-378.91 -56.83,-315.34 204.41,-361.18 99.43,222.98 102.67,1804.89 0.34,2018.33zm5565.92 -695.36c-222.3,-105.06 -170.58,151.92 -167.34,-668.77 3.41,-864.57 -5.11,-580.84 167.26,-669.2 137.18,268.14 135.47,1068.98 0.08,1337.97zm2197.18 -1819.21c1880.81,-740.34 2898.67,2212.94 1023.23,2857.77 -1826.63,628.05 -3029.72,-2067.92 -1023.23,-2857.77zm-4197.02 -500.75l-1958.52 -37.66 -11.84 5140.92c-376.61,77.97 -1445.93,69.87 -1809.92,-2.72 -80.61,-295.75 -99.35,-738.9 15.67,-1027.23 295.92,-102.08 568.92,-39.37 908.29,-68.25 549.48,-145.11 390.92,-848.64 390.92,-1345.9 0.08,-551.87 -2.13,-1104 -1.11,-1655.87 2.56,-1318.03 -93.04,-1045.63 -2342.71,-1066.34l-20.11 5143.05 -732.76 1.11c502.11,-399.87 300.86,-1772.43 300.86,-2421.95 0,-836.71 55.55,-1883.71 -7.16,-2713.01l-1015.98 1.28c-122.78,805.44 154.39,3638.08 -97.22,4092.05 -235.59,-106.08 -166.23,-61.86 -162.14,-441.96l-15.26 -3656.56 -1015.47 14.99c-87.67,727.23 -21.81,1859.6 -21.81,2631.21 0,763.87 -192.22,1818.02 214.04,2479.64l-885.79 -18.15c315,-570.79 213.77,-640.57 212.41,-1309.6 -1.02,-469.57 20.37,-948.08 -13.72,-1434.34l-1029.7 17.89 1.28 1424.2c-26.5,400.98 22.24,208.16 -171.6,294.73 -109.49,-193.33 -77.54,-230.4 -74.05,-517.79l-24.11 -3588.92 -1010.19 34.17c-60.24,802.97 -14.4,1796.03 -12.86,2618.17 2.21,1152.91 -112.98,1621.37 190.52,2478.27l-343.12 44.14c97.55,67.74 -159.08,28.71 187.02,67.91 66.72,7.58 215.23,-0.6 290.97,-1.11 2839.54,-21.22 16321,86.57 16590.16,-92.87l-1064.04 -42.69 -1.45 -596.35 -1504.04 20.79 -27.01 600.35 -812.76 -17.38 30.58 -1678.11 787.89 513.36 32.38 509.78 1492.45 -19.08 6.9 -491.38c558.95,-460.28 831.86,-363.57 1169.52,-1204.46 499.47,-1243.73 -361.95,-2664.44 -1683.82,-2814.06 -1093.68,-123.8 -1129.04,323.95 -1819.72,585.7 -278.44,-733.78 -731.82,-508.16 -1500.54,-513.19 -968.69,-6.22 -852.05,306.82 -850.17,1138.51 2.81,1202.41 89.63,2820.54 -17.81,3991.34l-1728.04 -9.97 12.1 -971.42c1251.4,-158.57 1268.27,323.43 1268.27,-1570.07 0,-479.96 -0.93,-959.92 0.26,-1439.88 1.02,-414.86 117.24,-904.62 -315.94,-1075.29z"/>
    <path class="fil7" d="M39202.41 3829.32c-123.55,-456.87 -316.96,-605.64 -302.9,-1202.67 11.93,-502.62 136.67,-720.92 341.5,-1114.73 -896.95,275.81 -982.5,1921.11 -38.6,2317.4z"/>
   </g>
   <path class="fil8" d="M7186.09 2737.84c52.31,-272.57 44.22,-539.68 -212.5,-656.16 1892.82,-231.16 2122.11,2944.09 -265.59,3264.11 -2536.55,339.89 -2837.4,-3148.31 -1189.12,-3176.77 -230.82,80.17 -464.53,416.9 -461.13,668.34 347.56,-13.54 594.65,-562.09 1375.3,-747.84 159.24,161.21 286.54,209.01 410.09,337.41 190.17,197.68 85.54,277.77 342.95,310.91zm-1015.82 -1227.29c-291.74,-141.01 -194.35,11.68 -239.08,32.98 -640.31,304.26 151.24,-254.59 -1055.52,471.01 -489.5,294.38 -689.05,755.26 -720.66,1331.5 -67.4,1225.75 617.48,2026.17 1767.92,2311.01 1064.46,263.62 2150.74,-259.45 2647.48,-1172.34 497.6,-914.16 210.37,-2396.13 -921.66,-2657.71l176.29 -278.02c-501.18,-86.99 -418.36,95.86 -780.65,103.78 188.73,-101.73 226.39,-168.88 236.62,-368.77 -331.71,27.87 -437.28,173.05 -702.52,340.06 -190.94,-333.24 -163.34,-884.26 -634.35,-773.49 30.67,290.03 227.67,279.89 226.13,659.99z"/>
   <path class="fil9" d="M11508.02 3568c554.34,26.66 1063.1,89.55 1632.1,95.25 409.15,4.09 1465.44,-112.3 1760.93,-11.84 -239.43,144.68 -1347.01,130.02 -1688.76,130.71 -289.87,0.51 -1511.37,32.97 -1704.27,-214.12zm6.39 -220.86c81.8,-60.41 2033.67,72.09 2927.38,-9.2 19.85,-1.79 218.38,-21.98 221.02,-21.72 227.42,21.13 101.57,-8.44 215.06,102.92 -493.59,132.24 -2983.19,175.52 -3363.46,-72zm3.83 -1902.19l3373.86 -19.52 -41.07 1456.41c-705.24,114.94 -2682.16,147.66 -3338.58,-71.49l5.79 -1365.4zm-208.49 3770.65l214.63 -27.26 -10.06 -1307.22c327.19,-56.15 1219.03,53.77 1625.8,53.09 587.23,-1.11 1154.52,-46.95 1732.13,-54.19l5.71 1410.56 195.46 -72c-26.93,-583.31 -73.37,-3496.97 50.78,-3874.86 -699.96,158.14 -2704.23,27.27 -3586.27,84.87l-262.95 -168.88c125.08,421.93 114.86,3440.15 34.77,3955.89z"/>
   <path class="fil10" d="M32332.26 4765.04c-339.37,28.88 -612.37,-33.83 -908.29,68.25 -115.02,288.33 -96.28,731.48 -15.67,1027.23 363.99,72.59 1433.31,80.69 1809.92,2.72l11.84 -5140.92 1958.52 37.66c-237.89,-188.55 -1695.15,-173.56 -2046.88,-53.59l-18.91 5087.41 -1667.97 -13.8 19.59 -905.98c220.43,-22.75 750.06,75.66 857.85,-108.98z"/>
   <path class="fil11" d="M18661.9 3401.93c163.34,-144.34 321.91,-172.96 542.84,-93.55 305.63,109.83 12.87,168.53 529.98,186.34l119.37 -210.37 -582.72 15.34c-244.53,-286.89 -126.53,-273.6 -275.63,-536.88l-333.84 639.12z"/>
   <path class="fil12" d="M18712.52 4714.94l193.84 160.18 -269.42 199.47c259.96,-79.58 459.51,-177.91 705.84,-228.86 266.35,-55.04 361.78,-60.75 590.55,-222.98l-350.79 96.87 29.06 -218.72c-426.28,203.56 -337.24,254.43 -899.08,214.04z"/>
   <path class="fil13" d="M18208.36 4282.69l171.86 -81.71 66.03 337.5 138.12 44.99c-207.14,-569.94 -115.88,-569.43 176.12,-994l-107.45 25.64 -2.98 -131.98c-226.64,187.03 -337.33,521.11 -441.7,799.56z"/>
   <path class="fil14" d="M40798.72 2195.86c177.57,255.27 66.29,626.34 117.16,859.88 284.24,-311.68 282.11,-684.36 -117.16,-859.88z"/>
  </g>
 </g>
</svg>
