<?xml version="1.0" encoding="UTF-8"?>
<!DOCTYPE svg PUBLIC "-//W3C//DTD SVG 1.1//EN" "http://www.w3.org/Graphics/SVG/1.1/DTD/svg11.dtd">
<!-- Creator: CorelDRAW -->
<svg xmlns="http://www.w3.org/2000/svg" xml:space="preserve" width="73mm" height="12mm" version="1.1" style="shape-rendering:geometricPrecision; text-rendering:geometricPrecision; image-rendering:optimizeQuality; fill-rule:evenodd; clip-rule:evenodd"
viewBox="0 0 7300 1200"
 xmlns:xlink="http://www.w3.org/1999/xlink"
 xmlns:xodm="http://www.corel.com/coreldraw/odm/2003">
 <defs>
  <style type="text/css">
   <![CDATA[
    .fil2 {fill:#0B8231}
    .fil9 {fill:#288A22}
    .fil6 {fill:#45BEB2}
    .fil4 {fill:#96C73E}
    .fil10 {fill:#A6E2DB}
    .fil0 {fill:#A8EC6B}
    .fil14 {fill:#D4FEFD}
    .fil8 {fill:#E52326}
    .fil13 {fill:#EAA668}
    .fil5 {fill:#F086B4}
    .fil11 {fill:#F08E94}
    .fil3 {fill:#F3E918}
    .fil12 {fill:#F6B766}
    .fil1 {fill:#FAF406}
    .fil7 {fill:#FCFFFD}
   ]]>
  </style>
 </defs>
 <g id="Capa_x0020_1">
  <metadata id="CorelCorpID_0Corel-Layer"/>
  <g id="_1893885586816">
   <g>
    <path class="fil0" d="M1544.78 650.46c70.35,45.78 530.9,37.78 622.21,13.31 -21,-20.6 2.28,-15.13 -39.79,-19.04 -0.49,-0.04 -37.21,3.69 -40.88,4.02 -165.33,15.04 -526.41,-9.47 -541.54,1.71z"/>
    <path class="fil0" d="M1543.6 691.31c35.69,45.71 261.65,39.7 315.27,39.61 63.22,-0.13 268.11,2.59 312.4,-24.18 -54.66,-18.58 -250.06,2.95 -325.75,2.19 -105.26,-1.05 -199.37,-12.69 -301.92,-17.62z"/>
   </g>
   <g>
    <path class="fil1" d="M2888.79 530.52c-47.62,94.67 -98.89,191.95 -144.6,286.16 -37.31,76.92 -134.54,193.1 -145.61,268.25 53.34,12.9 55.94,3.31 101.78,-23.26 -22.18,1.28 -33.45,7.27 -32.62,-29.49l115.35 -208.66c19.31,-51.51 39.78,-113.31 81.71,-147.91l2.19 -15.02 61.76 -118.23c27.58,48.7 5.75,46.25 50.99,99.32l107.79 -2.84c43.98,-46.23 71.99,-119.19 6.37,-151.46 -89.98,1.17 -58.92,-21.36 -143.78,25.84l-18.16 -39.44 6.37 12.07c-41.31,57.66 2.73,17.89 -49.54,44.67z"/>
    <path class="fil1" d="M2885.23 695.28c-54.02,78.54 -70.9,78.45 -32.58,183.88l23.7 24.32c103.94,7.47 87.47,-1.94 166.32,-39.59 27.63,-126.48 -29.28,-191.65 -157.44,-168.61z"/>
    <path class="fil1" d="M3160.73 708.33c-12.28,77.76 23.16,112.99 96.62,71.45l1.22 -81.8c-41.99,-13.49 -69.47,-15.07 -97.84,10.35z"/>
   </g>
   <g>
    <path class="fil2" d="M1500.49 264.3l48.64 31.24c163.17,-10.65 533.94,13.56 663.42,-15.7l-3.84 -54.33c-186.37,-13.32 -529.43,-22.38 -707.16,1.56l-1.06 37.23z"/>
    <path class="fil2" d="M2167 1009.97c-96.63,52.69 -567.11,81.3 -620.37,-18.91l-39.71 5.04 -0.83 44.67c124.28,81.52 568.11,80.37 698.17,4.73l-1.1 -48.85 -36.16 13.32z"/>
   </g>
   <g>
    <path class="fil3" d="M2212.55 279.84c-22.96,69.91 -14.37,608.9 -9.39,716.81l1.1 48.85c-130.06,75.64 -573.89,76.79 -698.17,-4.73l0.83 -44.67c14.82,-95.41 16.71,-653.74 -6.43,-731.8l1.06 -37.23c177.73,-23.94 520.79,-14.88 707.16,-1.56l3.84 54.33zm-978.85 929.96l1240.82 0 1.76 -400.15 182.54 -185.83c-33.74,-66.9 -132.67,-134.81 -183.99,-199.91l-0.23 -399.39 -1240.2 0 0.27 373.16c16.1,57.59 156.07,172.97 203.45,231.39 -40.41,15.76 -171.55,154.65 -204.37,194.67l-0.05 386.06z"/>
    <path class="fil3" d="M1546.63 991.06c53.26,100.21 523.74,71.6 620.37,18.91l-1.05 -260.94c-106.85,1.34 -211.8,9.82 -320.43,10.03 -75.25,0.12 -240.23,-20.21 -300.75,-9.82l1.86 241.82z"/>
    <path class="fil3" d="M1544.42 551.15c121.43,40.54 487.14,34.49 617.6,13.23l7.6 -269.42 -624.13 3.61 -1.07 252.58z"/>
    <path class="fil3" d="M3546.6 776.33c-52.85,-0.22 -248.31,-306.35 -367.76,-430.38 -102.23,-106.14 -118.21,-105.04 -89.94,-148.6 73.06,-32.16 485.13,458.21 457.7,578.98zm-657.81 -245.81c52.27,-26.78 8.23,12.99 49.54,-44.67l-6.37 -12.07 18.16 39.44c84.86,-47.2 53.8,-24.67 143.78,-25.84 -33.34,-50.97 -77.61,-32.09 -132.21,-23.17l73.13 -164c65.27,15.16 180.68,192.34 222.69,246.67 58.27,75.36 168.67,188.83 207.62,267.69l-362.94 71.86c-42.32,30.01 -59.97,31.06 -109.25,41.25 -45.56,9.42 -82.48,27.61 -130.57,42.33 -76.4,8.64 -135.11,56.38 -194.63,62.17 -0.83,36.76 10.44,30.77 32.62,29.49l455.44 -141.72c144.69,-37.95 416.29,-57.73 443.57,-143.86 32.66,-103.1 -259.77,-429.7 -346.43,-517.24 -111.39,-112.51 -116.66,-113.85 -200.93,-106.65l-163.22 378.32z"/>
   </g>
   <g>
    <path class="fil4" d="M556.18 310.71c0.28,-70.32 -36.16,-68.44 -41.84,-122.1 87.14,-20.49 82.03,81.45 117.35,143.09 49.07,-30.89 68.6,-57.75 129.96,-62.91 -1.89,36.98 -8.86,49.4 -43.77,68.22 67.02,-1.46 51.7,-35.29 144.41,-19.2l-32.61 51.44c209.41,48.39 262.54,322.53 170.49,491.64 -91.89,168.88 -292.84,265.64 -489.75,216.87 -212.82,-52.69 -339.51,-200.76 -327.05,-427.51 5.85,-106.6 42.77,-191.85 133.32,-246.31 223.23,-134.23 76.81,-30.85 195.26,-87.13 8.27,-3.94 -9.74,-32.19 44.23,-6.1zm-553.77 899.09l1231.29 0 0.05 -386.06c32.82,-40.02 163.96,-178.91 204.37,-194.67 -47.38,-58.42 -187.35,-173.8 -203.45,-231.39l-0.27 -373.16 -1231.99 0 0 1185.28z"/>
    <path class="fil4" d="M744.09 537.74c-47.62,-6.13 -28.26,-20.95 -63.44,-57.51 -22.86,-23.76 -46.41,-32.6 -75.86,-62.42 -144.42,34.36 -190.13,135.84 -254.42,138.34 -0.63,-46.51 42.61,-108.8 85.31,-123.64 -304.92,5.27 -249.26,650.55 219.97,587.67 441.7,-59.2 399.28,-646.58 49.13,-603.82 47.49,21.55 48.99,70.96 39.31,121.38z"/>
   </g>
   <g>
    <path class="fil5" d="M2700.36 1061.67c-45.84,26.57 -48.44,36.16 -101.78,23.26 11.07,-75.15 108.3,-191.33 145.61,-268.25 45.71,-94.21 96.98,-191.49 144.6,-286.16l163.22 -378.32c84.27,-7.2 89.54,-5.86 200.93,106.65 86.66,87.54 379.09,414.14 346.43,517.24 -27.28,86.13 -298.88,105.91 -443.57,143.86l-455.44 141.72zm-225.84 148.13l1254.38 0 0.14 -398.97 187.84 -184.92c-36.52,-70.75 -141.89,-137.55 -186.31,-203.83l-2.14 -397.56 -1253.83 0 0.23 399.39c51.32,65.1 150.25,133.01 183.99,199.91l-182.54 185.83 -1.76 400.15z"/>
    <path class="fil5" d="M3160.73 708.33c28.37,-25.42 55.85,-23.84 97.84,-10.35l-1.22 81.8c-73.46,41.54 -108.9,6.31 -96.62,-71.45zm-66.83 -220.95c65.62,32.27 37.61,105.23 -6.37,151.46l-22.08 38.91c-95.66,-3.29 -41.5,-14.15 -98.04,-34.47 -40.87,-14.69 -70.2,-9.39 -100.42,17.31l-2.19 15.02 0.55 24.42 19.88 -4.75c128.16,-23.04 185.07,42.13 157.44,168.61l-5.37 40.46 64.89 -17.92 362.94 -71.86c-38.95,-78.86 -149.35,-192.33 -207.62,-267.69 -42.01,-54.33 -157.42,-231.51 -222.69,-246.67l-73.13 164c54.6,-8.92 98.87,-27.8 132.21,23.17z"/>
    <path class="fil5" d="M3088.9 197.35c-28.27,43.56 -12.29,42.46 89.94,148.6 119.45,124.03 314.91,430.16 367.76,430.38 27.43,-120.77 -384.64,-611.14 -457.7,-578.98z"/>
    <path class="fil5" d="M2667.74 1032.18c59.52,-5.79 118.23,-53.53 194.63,-62.17l49.84 -36.9 -35.86 -29.63 -23.7 -24.32 -25.55 -8.32 -12.22 -62.43 -31.79 15.11 -115.35 208.66z"/>
   </g>
   <g>
    <path class="fil6" d="M5395.86 912.75c-19.94,34.16 -117.92,15.95 -158.69,20.16l-3.63 167.6 308.56 2.55 3.5 -941.12c65.06,-22.19 334.64,-24.96 378.65,9.92 80.13,31.57 58.63,122.17 58.44,198.91 -0.22,88.79 -0.05,177.58 -0.05,266.37 0,350.27 -3.12,261.11 -234.61,290.44l-2.24 179.7 319.67 1.85c19.87,-216.59 3.81,-515.92 3.29,-738.36 -0.34,-153.85 -21.92,-211.76 157.28,-210.61 142.2,0.93 226.07,-40.8 277.58,94.94 127.77,-48.42 134.31,-131.25 336.63,-108.35 244.53,27.68 403.88,290.49 311.49,520.57 -62.47,155.56 -112.95,137.67 -216.35,222.81l-1.28 90.9 -276.09 3.53 -5.99 -94.3 -145.75 -94.97 -5.66 310.43 150.36 3.22 4.99 -111.06 278.23 -3.85 0.27 110.32 196.84 7.9c-49.79,33.19 -2543.72,13.26 -3069,17.18 -14.01,0.09 -41.49,1.61 -53.83,0.2 -64.02,-7.25 -16.55,-0.03 -34.59,-12.56l63.47 -8.16c-56.15,-158.52 -34.83,-245.18 -35.24,-458.45 -0.29,-152.09 -8.77,-335.8 2.38,-484.34l186.87 -6.32 4.46 663.91c-0.65,53.17 -6.56,60.02 13.7,95.79 35.86,-16.02 26.84,19.65 31.74,-54.52l-0.23 -263.47 190.48 -3.31c6.3,89.96 2.35,178.48 2.54,265.34 0.25,123.76 18.97,136.67 -39.3,242.26l163.86 3.36c-75.15,-122.39 -39.59,-317.4 -39.59,-458.7 0,-142.75 -12.18,-352.22 4.03,-486.75l187.86 -2.77 2.82 676.42c-0.76,70.31 -13.59,62.13 29.99,81.76 46.55,-83.98 -4.73,-607.99 17.99,-756.99l187.94 -0.23c11.6,153.41 1.33,347.09 1.33,501.87 0,120.16 37.23,374.07 -55.66,448.04l135.55 -0.21 3.72 -951.41c416.17,3.83 433.85,-46.56 433.38,197.27 -0.19,102.09 0.22,204.22 0.2,306.31 0,91.99 29.34,222.14 -72.31,248.98zm-1666.96 297.05l3525.72 0 0 -1185.28 -3526.19 0 2.14 397.56c44.42,66.28 149.79,133.08 186.31,203.83l-187.84 184.92 -0.14 398.97z"/>
    <path class="fil6" d="M6962.06 437.48c73.86,32.47 74.26,101.41 21.67,159.07 -9.41,-43.2 11.18,-111.85 -21.67,-159.07zm-295.3 302.17c-174.61,-73.31 -158.78,-377.67 7.14,-428.69 -37.89,72.85 -60.97,113.23 -63.17,206.21 -2.6,110.45 33.18,137.97 56.03,222.48zm33.89 -475.16c-371.18,146.12 -148.62,644.84 189.29,528.66 346.93,-119.29 158.64,-665.61 -189.29,-528.66z"/>
    <path class="fil6" d="M5264.56 729.66c18.93,-39.48 18.33,-332.12 -0.06,-373.37 -48.33,8.48 -37.45,-3.28 -37.82,66.81l0.92 227.99c-0.14,70.91 -15.97,69.96 36.96,78.57z"/>
    <path class="fil6" d="M5758.76 731.39c46.07,-21.12 29.78,-0.12 29.84,-174.17 0.03,-62.45 13.9,-157.32 -16.47,-201.83 -45.38,24.21 -26.66,32.46 -26.62,175.2 0.01,61.36 -14.16,154.45 13.25,200.8z"/>
    <path class="fil6" d="M6293 794.46c-47.87,21.21 -29.35,-11.67 -29.54,162.3 -0.21,184.37 -12.33,127.56 30.28,153.87 22.4,-51.31 25.69,-271.76 -0.74,-316.17z"/>
    <path class="fil6" d="M6294.2 601.03c25.04,-49.76 25.36,-197.91 -0.02,-247.51 -31.89,16.34 -30.31,-36.15 -30.94,123.79 -0.6,151.82 -10.17,104.28 30.96,123.72z"/>
   </g>
   <g>
    <path class="fil7" d="M6293 794.46c26.43,44.41 23.14,264.86 0.74,316.17 -42.61,-26.31 -30.49,30.5 -30.28,-153.87 0.19,-173.97 -18.33,-141.09 29.54,-162.3zm-534.24 -63.07c-27.41,-46.35 -13.24,-139.44 -13.25,-200.8 -0.04,-142.74 -18.76,-150.99 26.62,-175.2 30.37,44.51 16.5,139.38 16.47,201.83 -0.06,174.05 16.23,153.05 -29.84,174.17zm-494.2 -1.73c-52.93,-8.61 -37.1,-7.66 -36.96,-78.57l-0.92 -227.99c0.37,-70.09 -10.51,-58.33 37.82,-66.81 18.39,41.25 18.99,333.89 0.06,373.37zm1029.64 -128.63c-41.13,-19.44 -31.56,28.1 -30.96,-123.72 0.63,-159.94 -0.95,-107.45 30.94,-123.79 25.38,49.6 25.06,197.75 0.02,247.51zm406.45 -336.54c347.93,-136.95 536.22,409.37 189.29,528.66 -337.91,116.18 -560.47,-382.54 -189.29,-528.66zm-776.4 -92.63l-362.31 -6.97 -2.19 951.02c-69.67,14.42 -267.48,12.92 -334.82,-0.51 -14.91,-54.71 -18.37,-136.69 2.91,-190.02 54.74,-18.89 105.24,-7.29 168.02,-12.63 101.65,-26.84 72.31,-156.99 72.31,-248.98 0.02,-102.09 -0.39,-204.22 -0.2,-306.31 0.47,-243.83 -17.21,-193.44 -433.38,-197.27l-3.72 951.41 -135.55 0.21c92.89,-73.97 55.66,-327.88 55.66,-448.04 0,-154.78 10.27,-348.46 -1.33,-501.87l-187.94 0.23c-22.72,149 28.56,673.01 -17.99,756.99 -43.58,-19.63 -30.75,-11.45 -29.99,-81.76l-2.82 -676.42 -187.86 2.77c-16.21,134.53 -4.03,344 -4.03,486.75 0,141.3 -35.56,336.31 39.59,458.7l-163.86 -3.36c58.27,-105.59 39.55,-118.5 39.3,-242.26 -0.19,-86.86 3.76,-175.38 -2.54,-265.34l-190.48 3.31 0.23 263.47c-4.9,74.17 4.12,38.5 -31.74,54.52 -20.26,-35.77 -14.35,-42.62 -13.7,-95.79l-4.46 -663.91 -186.87 6.32c-11.15,148.54 -2.67,332.25 -2.38,484.34 0.41,213.27 -20.91,299.93 35.24,458.45l-63.47 8.16c18.04,12.53 -29.43,5.31 34.59,12.56 12.34,1.41 39.82,-0.11 53.83,-0.2 525.28,-3.92 3019.21,16.01 3069,-17.18l-196.84 -7.9 -0.27 -110.32 -278.23 3.85 -4.99 111.06 -150.36 -3.22 5.66 -310.43 145.75 94.97 5.99 94.3 276.09 -3.53 1.28 -90.9c103.4,-85.14 153.88,-67.25 216.35,-222.81 92.39,-230.08 -66.96,-492.89 -311.49,-520.57 -202.32,-22.9 -208.86,59.93 -336.63,108.35 -51.51,-135.74 -135.38,-94.01 -277.58,-94.94 -179.2,-1.15 -157.62,56.76 -157.28,210.61 0.52,222.44 16.58,521.77 -3.29,738.36l-319.67 -1.85 2.24 -179.7c231.49,-29.33 234.61,59.83 234.61,-290.44 0,-88.79 -0.17,-177.58 0.05,-266.37 0.19,-76.74 21.69,-167.34 -58.44,-198.91z"/>
    <path class="fil7" d="M6666.76 739.65c-22.85,-84.51 -58.63,-112.03 -56.03,-222.48 2.2,-92.98 25.28,-133.36 63.17,-206.21 -165.92,51.02 -181.75,355.38 -7.14,428.69z"/>
   </g>
   <path class="fil8" d="M744.09 537.74c9.68,-50.42 8.18,-99.83 -39.31,-121.38 350.15,-42.76 392.57,544.62 -49.13,603.82 -469.23,62.88 -524.89,-582.4 -219.97,-587.67 -42.7,14.84 -85.94,77.13 -85.31,123.64 64.29,-2.5 110,-103.98 254.42,-138.34 29.45,29.82 53,38.66 75.86,62.42 35.18,36.56 15.82,51.38 63.44,57.51zm-187.91 -227.03c-53.97,-26.09 -35.96,2.16 -44.23,6.1 -118.45,56.28 27.97,-47.1 -195.26,87.13 -90.55,54.46 -127.47,139.71 -133.32,246.31 -12.46,226.75 114.23,374.82 327.05,427.51 196.91,48.77 397.86,-47.99 489.75,-216.87 92.05,-169.11 38.92,-443.25 -170.49,-491.64l32.61 -51.44c-92.71,-16.09 -77.39,17.74 -144.41,19.2 34.91,-18.82 41.88,-31.24 43.77,-68.22 -61.36,5.16 -80.89,32.02 -129.96,62.91 -35.32,-61.64 -30.21,-163.58 -117.35,-143.09 5.68,53.66 42.12,51.78 41.84,122.1z"/>
   <path class="fil9" d="M1543.6 691.31c102.55,4.93 196.66,16.57 301.92,17.62 75.69,0.76 271.09,-20.77 325.75,-2.19 -44.29,26.77 -249.18,24.05 -312.4,24.18 -53.62,0.09 -279.58,6.1 -315.27,-39.61zm1.18 -40.85c15.13,-11.18 376.21,13.33 541.54,-1.71 3.67,-0.33 40.39,-4.06 40.88,-4.02 42.07,3.91 18.79,-1.56 39.79,19.04 -91.31,24.47 -551.86,32.47 -622.21,-13.31zm0.71 -351.89l624.13 -3.61 -7.6 269.42c-130.46,21.26 -496.17,27.31 -617.6,-13.23l1.07 -252.58zm-38.57 697.53l39.71 -5.04 -1.86 -241.82c60.52,-10.39 225.5,9.94 300.75,9.82 108.63,-0.21 213.58,-8.69 320.43,-10.03l1.05 260.94 36.16 -13.32c-4.98,-107.91 -13.57,-646.9 9.39,-716.81 -129.48,29.26 -500.25,5.05 -663.42,15.7l-48.64 -31.24c23.14,78.06 21.25,636.39 6.43,731.8z"/>
   <path class="fil10" d="M5395.86 912.75c-62.78,5.34 -113.28,-6.26 -168.02,12.63 -21.28,53.33 -17.82,135.31 -2.91,190.02 67.34,13.43 265.15,14.93 334.82,0.51l2.19 -951.02 362.31 6.97c-44.01,-34.88 -313.59,-32.11 -378.65,-9.92l-3.5 941.12 -308.56 -2.55 3.63 -167.6c40.77,-4.21 138.75,14 158.69,-20.16z"/>
   <path class="fil11" d="M2866.99 660.59c30.22,-26.7 59.55,-32 100.42,-17.31 56.54,20.32 2.38,31.18 98.04,34.47l22.08 -38.91 -107.79 2.84c-45.24,-53.07 -23.41,-50.62 -50.99,-99.32l-61.76 118.23z"/>
   <path class="fil12" d="M2876.35 903.48l35.86 29.63 -49.84 36.9c48.09,-14.72 85.01,-32.91 130.57,-42.33 49.28,-10.19 66.93,-11.24 109.25,-41.25l-64.89 17.92 5.37 -40.46c-78.85,37.65 -62.38,47.06 -166.32,39.59z"/>
   <path class="fil13" d="M2783.09 823.52l31.79 -15.11 12.22 62.43 25.55 8.32c-38.32,-105.43 -21.44,-105.34 32.58,-183.88l-19.88 4.75 -0.55 -24.42c-41.93,34.6 -62.4,96.4 -81.71,147.91z"/>
   <path class="fil14" d="M6962.06 437.48c32.85,47.22 12.26,115.87 21.67,159.07 52.59,-57.66 52.19,-126.6 -21.67,-159.07z"/>
  </g>
 </g>
</svg>
